<svg width="571" height="155" viewBox="0 0 571 155" fill="none" xmlns="http://www.w3.org/2000/svg">
<path d="M77.5 1H493.5C535.75 1 570 35.2502 570 77.5C570 119.75 535.75 154 493.5 154H77.5C35.2502 154 1 119.75 1 77.5C1 35.2502 35.2502 1 77.5 1Z" fill="black" stroke="#FC8874" stroke-width="2"/>
<path d="M176.2 34.456H216.264C217.629 34.456 218.739 34.9253 219.592 35.864C220.445 36.8027 220.872 38.04 220.872 39.576V127H207.432C204.531 127 202.611 126.531 201.672 125.592C200.819 124.653 200.392 122.691 200.392 119.704V50.456H179.912C177.437 50.456 176.2 48.408 176.2 44.312V34.456ZM225.992 34.456H246.472C248.947 34.456 250.184 36.504 250.184 40.6V50.456H225.992V34.456ZM272.498 127H259.058C256.157 127 254.237 126.531 253.298 125.592C252.445 124.653 252.018 122.691 252.018 119.704V41.752C252.018 38.7653 252.445 36.8027 253.298 35.864C254.237 34.9253 256.157 34.456 259.058 34.456H272.498V127ZM343.248 80.536L343.376 102.168C343.376 112.323 342.096 119.021 339.536 122.264C336.976 125.421 332.325 127 325.584 127H306.768V114.84H316.24C318.373 114.84 319.781 114.584 320.464 114.072C321.147 113.56 321.488 112.579 321.488 111.128V50.456C321.488 48.92 321.147 47.896 320.464 47.384C319.781 46.872 318.373 46.616 316.24 46.616H306.768V34.456H326.864C333.093 34.456 337.403 35.9067 339.792 38.808C342.267 41.624 343.504 47.1707 343.504 55.448L343.248 80.536ZM302.928 127.128H289.488C286.672 127.128 284.795 126.659 283.856 125.72C282.917 124.696 282.448 122.733 282.448 119.832V41.752C282.448 38.8507 282.917 36.9307 283.856 35.992C284.795 34.968 286.672 34.456 289.488 34.456H302.928V127.128ZM387.31 46.616H375.406C374.041 46.616 373.358 46.9573 373.358 47.64V127H359.918C357.017 127 355.097 126.531 354.158 125.592C353.305 124.653 352.878 122.691 352.878 119.704V41.752C352.878 38.7653 353.305 36.8027 354.158 35.864C355.097 34.9253 357.017 34.456 359.918 34.456H387.31V46.616ZM392.43 34.456H405.87C408.771 34.456 410.649 34.9253 411.502 35.864C412.441 36.8027 412.91 38.7653 412.91 41.752V119.576C412.91 122.563 412.441 124.568 411.502 125.592C410.563 126.531 408.686 127 405.87 127H392.43V84.12H378.478V71.96H392.43V34.456ZM493.08 34.456V119.704C493.08 122.691 492.611 124.653 491.672 125.592C490.819 126.531 488.941 127 486.04 127H467.864C462.829 127 459.501 126.232 457.88 124.696C456.344 123.16 454.979 119.192 453.784 112.792C451.395 100.163 447.939 79.768 443.416 51.608C443.075 49.4747 442.563 48.1093 441.88 47.512C441.283 46.9147 440.216 46.5733 438.68 46.488H422.936V34.456H450.712C452.845 34.456 454.552 34.712 455.832 35.224C457.112 35.736 458.136 36.8453 458.904 38.552C459.757 40.1733 460.312 41.752 460.568 43.288C460.909 44.824 461.251 46.616 461.592 48.664C462.019 51.1387 462.616 54.7653 463.384 59.544C464.835 69.1867 467.096 82.7973 470.168 100.376C471.363 107.885 472.173 112.109 472.6 113.048C473.112 113.901 473.965 114.413 475.16 114.584V39.576C475.16 38.04 475.587 36.8027 476.44 35.864C477.293 34.9253 478.403 34.456 479.768 34.456H493.08ZM422.936 50.968H436.248C437.613 50.968 438.723 51.4373 439.576 52.376C440.429 53.3147 440.856 54.552 440.856 56.088V119.704C440.856 122.605 440.472 124.568 439.704 125.592C438.936 126.531 437.4 127 435.096 127H422.936V50.968Z" fill="#FC8874"/>
<path fill-rule="evenodd" clip-rule="evenodd" d="M77.5 155C120.302 155 155 120.302 155 77.5C155 34.6979 120.302 0 77.5 0C34.6979 0 0 34.6979 0 77.5C0 120.302 34.6979 155 77.5 155ZM79.4726 42.2727C83.3637 42.2727 86.518 39.1184 86.518 35.2273C86.518 31.3362 83.3637 28.1818 79.4726 28.1818C75.5815 28.1818 72.4271 31.3362 72.4271 35.2273C72.4271 39.1184 75.5815 42.2727 79.4726 42.2727ZM61.3926 47.5259H35.8182C34.7136 47.5259 33.8182 48.4213 33.8182 49.5259V54.4699C33.8182 57.3557 34.6899 58.7986 36.4334 58.7986H48.8625C49.9671 58.7986 50.8625 59.694 50.8625 60.7986V99.4545C50.8625 100.559 49.9671 101.455 48.8625 101.455H36.4376C34.6942 101.455 33.8225 102.905 33.8225 105.805V110.783C33.8225 111.887 34.7179 112.783 35.8225 112.783H62.0481C62.2118 112.783 62.3702 112.773 62.5234 112.754C62.6406 112.739 62.7582 112.727 62.8762 112.727H65.2915H74.6493C79.3988 112.727 82.6755 111.615 84.4791 109.391C86.2827 107.106 87.1845 102.386 87.1845 95.232L87.0943 79.9913V79.9913C87.1115 78.3146 89.5764 78.1304 89.8522 79.7844C91.4792 89.5423 92.8159 97.1865 93.8622 102.717C94.7039 107.226 95.6659 110.022 96.748 111.104C97.8904 112.186 100.235 112.727 103.782 112.727H116.588C118.632 112.727 119.955 112.397 120.556 111.735C121.217 111.074 121.548 109.691 121.548 107.587V49.5259C121.548 48.4213 120.653 47.5259 119.548 47.5259H112.169C111.207 47.5259 110.426 47.8565 109.824 48.5179C109.223 49.1792 108.923 50.0509 108.923 51.1331V101.801C108.923 102.951 107.711 103.884 107.119 102.897V102.897C106.818 102.236 106.247 99.2602 105.406 93.9695C103.241 81.5845 101.648 71.9952 100.626 65.2015C100.085 61.8347 99.6639 59.2796 99.3633 57.536C99.1228 56.0931 98.8823 54.8306 98.6419 53.7484C98.4615 52.6662 98.0707 51.554 97.4695 50.4117C96.9284 49.2093 96.207 48.4277 95.3051 48.0669C94.4033 47.7062 93.2009 47.5259 91.6979 47.5259H75.5511H72.1284H62.045H61.3926ZM65.293 101.455C65.2939 101.455 65.2945 101.455 65.2945 101.456V102.807C65.2945 103.554 65.9002 104.16 66.6473 104.16H68.066C69.569 104.16 70.561 103.98 71.042 103.619C71.523 103.258 71.7635 102.567 71.7635 101.545V58.7986C71.7635 57.7164 71.523 56.9949 71.042 56.6342C70.561 56.2735 69.569 56.0931 68.066 56.0931H67.2915C66.187 56.0931 65.2915 56.9886 65.2915 58.0931V101.453C65.2915 101.454 65.2922 101.455 65.293 101.455V101.455ZM92.2955 97.5795C92.2955 98.5523 91.1914 99.3409 89.8296 99.3409C88.4677 99.3409 87.3636 98.5523 87.3636 97.5795C87.3636 96.6068 88.4677 95.8182 89.8296 95.8182C91.1914 95.8182 92.2955 96.6068 92.2955 97.5795Z" fill="#FC8874"/>
</svg>
