<svg width="155" height="155" viewBox="0 0 155 155" fill="none" xmlns="http://www.w3.org/2000/svg">
<mask id="path-1-inside-1_114_21" fill="white">
<path fill-rule="evenodd" clip-rule="evenodd" d="M77.5 155C120.302 155 155 120.302 155 77.5C155 34.6979 120.302 0 77.5 0C34.6979 0 0 34.6979 0 77.5C0 120.302 34.6979 155 77.5 155ZM79.4726 42.2727C83.3637 42.2727 86.518 39.1184 86.518 35.2273C86.518 31.3362 83.3637 28.1818 79.4726 28.1818C75.5815 28.1818 72.4271 31.3362 72.4271 35.2273C72.4271 39.1184 75.5815 42.2727 79.4726 42.2727ZM61.3926 47.5259H35.8182C34.7136 47.5259 33.8182 48.4213 33.8182 49.5259V54.4699C33.8182 57.3557 34.6899 58.7986 36.4334 58.7986H48.8625C49.9671 58.7986 50.8625 59.694 50.8625 60.7986V99.4545C50.8625 100.559 49.9671 101.455 48.8625 101.455H36.4376C34.6942 101.455 33.8225 102.905 33.8225 105.805V110.783C33.8225 111.887 34.7179 112.783 35.8225 112.783H62.0481C62.2118 112.783 62.3702 112.773 62.5234 112.754C62.6406 112.739 62.7582 112.727 62.8762 112.727H65.2915H74.6493C79.3988 112.727 82.6755 111.615 84.4791 109.391C86.2827 107.106 87.1845 102.386 87.1845 95.232L87.0943 79.9913V79.9913C87.1115 78.3146 89.5764 78.1304 89.8522 79.7844C91.4792 89.5423 92.8159 97.1865 93.8622 102.717C94.7039 107.226 95.6659 110.022 96.748 111.104C97.8904 112.186 100.235 112.727 103.782 112.727H116.588C118.632 112.727 119.955 112.397 120.556 111.735C121.217 111.074 121.548 109.691 121.548 107.587V49.5259C121.548 48.4213 120.653 47.5259 119.548 47.5259H112.169C111.207 47.5259 110.426 47.8565 109.824 48.5179C109.223 49.1792 108.923 50.0509 108.923 51.1331V101.801C108.923 102.951 107.711 103.884 107.119 102.897V102.897C106.818 102.236 106.247 99.2602 105.406 93.9695C103.241 81.5845 101.648 71.9952 100.626 65.2015C100.085 61.8347 99.6639 59.2796 99.3633 57.536C99.1228 56.0931 98.8823 54.8306 98.6419 53.7484C98.4615 52.6662 98.0707 51.554 97.4695 50.4117C96.9284 49.2093 96.207 48.4277 95.3051 48.0669C94.4033 47.7062 93.2009 47.5259 91.6979 47.5259H75.5511H72.1284H62.045H61.3926ZM65.293 101.455C65.2939 101.455 65.2945 101.455 65.2945 101.456V102.807C65.2945 103.554 65.9002 104.16 66.6473 104.16H68.066C69.569 104.16 70.561 103.98 71.042 103.619C71.523 103.258 71.7635 102.567 71.7635 101.545V58.7986C71.7635 57.7164 71.523 56.9949 71.042 56.6342C70.561 56.2735 69.569 56.0931 68.066 56.0931H67.2915C66.187 56.0931 65.2915 56.9886 65.2915 58.0931V101.453C65.2915 101.454 65.2922 101.455 65.293 101.455V101.455ZM92.2955 97.5795C92.2955 98.5523 91.1914 99.3409 89.8296 99.3409C88.4677 99.3409 87.3636 98.5523 87.3636 97.5795C87.3636 96.6068 88.4677 95.8182 89.8296 95.8182C91.1914 95.8182 92.2955 96.6068 92.2955 97.5795Z"/>
</mask>
<path fill-rule="evenodd" clip-rule="evenodd" d="M77.5 155C120.302 155 155 120.302 155 77.5C155 34.6979 120.302 0 77.5 0C34.6979 0 0 34.6979 0 77.5C0 120.302 34.6979 155 77.5 155ZM79.4726 42.2727C83.3637 42.2727 86.518 39.1184 86.518 35.2273C86.518 31.3362 83.3637 28.1818 79.4726 28.1818C75.5815 28.1818 72.4271 31.3362 72.4271 35.2273C72.4271 39.1184 75.5815 42.2727 79.4726 42.2727ZM61.3926 47.5259H35.8182C34.7136 47.5259 33.8182 48.4213 33.8182 49.5259V54.4699C33.8182 57.3557 34.6899 58.7986 36.4334 58.7986H48.8625C49.9671 58.7986 50.8625 59.694 50.8625 60.7986V99.4545C50.8625 100.559 49.9671 101.455 48.8625 101.455H36.4376C34.6942 101.455 33.8225 102.905 33.8225 105.805V110.783C33.8225 111.887 34.7179 112.783 35.8225 112.783H62.0481C62.2118 112.783 62.3702 112.773 62.5234 112.754C62.6406 112.739 62.7582 112.727 62.8762 112.727H65.2915H74.6493C79.3988 112.727 82.6755 111.615 84.4791 109.391C86.2827 107.106 87.1845 102.386 87.1845 95.232L87.0943 79.9913V79.9913C87.1115 78.3146 89.5764 78.1304 89.8522 79.7844C91.4792 89.5423 92.8159 97.1865 93.8622 102.717C94.7039 107.226 95.6659 110.022 96.748 111.104C97.8904 112.186 100.235 112.727 103.782 112.727H116.588C118.632 112.727 119.955 112.397 120.556 111.735C121.217 111.074 121.548 109.691 121.548 107.587V49.5259C121.548 48.4213 120.653 47.5259 119.548 47.5259H112.169C111.207 47.5259 110.426 47.8565 109.824 48.5179C109.223 49.1792 108.923 50.0509 108.923 51.1331V101.801C108.923 102.951 107.711 103.884 107.119 102.897V102.897C106.818 102.236 106.247 99.2602 105.406 93.9695C103.241 81.5845 101.648 71.9952 100.626 65.2015C100.085 61.8347 99.6639 59.2796 99.3633 57.536C99.1228 56.0931 98.8823 54.8306 98.6419 53.7484C98.4615 52.6662 98.0707 51.554 97.4695 50.4117C96.9284 49.2093 96.207 48.4277 95.3051 48.0669C94.4033 47.7062 93.2009 47.5259 91.6979 47.5259H75.5511H72.1284H62.045H61.3926ZM65.293 101.455C65.2939 101.455 65.2945 101.455 65.2945 101.456V102.807C65.2945 103.554 65.9002 104.16 66.6473 104.16H68.066C69.569 104.16 70.561 103.98 71.042 103.619C71.523 103.258 71.7635 102.567 71.7635 101.545V58.7986C71.7635 57.7164 71.523 56.9949 71.042 56.6342C70.561 56.2735 69.569 56.0931 68.066 56.0931H67.2915C66.187 56.0931 65.2915 56.9886 65.2915 58.0931V101.453C65.2915 101.454 65.2922 101.455 65.293 101.455V101.455ZM92.2955 97.5795C92.2955 98.5523 91.1914 99.3409 89.8296 99.3409C88.4677 99.3409 87.3636 98.5523 87.3636 97.5795C87.3636 96.6068 88.4677 95.8182 89.8296 95.8182C91.1914 95.8182 92.2955 96.6068 92.2955 97.5795Z" fill="#FC8874"/>
<path d="M84.4791 109.391L85.2559 110.02L85.264 110.01L84.4791 109.391ZM87.1845 95.232H88.1846L88.1845 95.2261L87.1845 95.232ZM93.8622 102.717L94.8452 102.534L94.8448 102.531L93.8622 102.717ZM96.748 111.104L96.0409 111.811L96.0505 111.821L96.0603 111.83L96.748 111.104ZM120.556 111.735L119.849 111.028L119.832 111.045L119.816 111.063L120.556 111.735ZM109.824 48.5179L110.564 49.1905L110.564 49.1905L109.824 48.5179ZM105.406 93.9695L106.393 93.8124L106.392 93.8049L106.391 93.7973L105.406 93.9695ZM100.626 65.2015L101.615 65.0527L101.613 65.0428L100.626 65.2015ZM99.3633 57.536L98.3769 57.7004L98.3779 57.7059L99.3633 57.536ZM98.6419 53.7484L97.6555 53.9128L97.6599 53.9392L97.6657 53.9653L98.6419 53.7484ZM97.4695 50.4117L96.5576 50.822L96.5702 50.8501L96.5846 50.8774L97.4695 50.4117ZM95.3051 48.0669L95.6765 47.1385L95.6765 47.1385L95.3051 48.0669ZM71.042 103.619L71.642 104.419L71.642 104.419L71.042 103.619ZM89.8522 79.7844L88.8658 79.9488L89.8522 79.7844ZM62.5234 112.754L62.3988 111.762L62.5234 112.754ZM154 77.5C154 119.75 119.75 154 77.5 154V156C120.854 156 156 120.854 156 77.5H154ZM77.5 1C119.75 1 154 35.2502 154 77.5H156C156 34.1456 120.854 -1 77.5 -1V1ZM1 77.5C1 35.2502 35.2502 1 77.5 1V-1C34.1456 -1 -1 34.1456 -1 77.5H1ZM77.5 154C35.2502 154 1 119.75 1 77.5H-1C-1 120.854 34.1456 156 77.5 156V154ZM85.518 35.2273C85.518 38.5661 82.8114 41.2727 79.4726 41.2727V43.2727C83.916 43.2727 87.518 39.6707 87.518 35.2273H85.518ZM79.4726 29.1818C82.8114 29.1818 85.518 31.8885 85.518 35.2273H87.518C87.518 30.7839 83.916 27.1818 79.4726 27.1818V29.1818ZM73.4271 35.2273C73.4271 31.8885 76.1338 29.1818 79.4726 29.1818V27.1818C75.0292 27.1818 71.4271 30.7839 71.4271 35.2273H73.4271ZM79.4726 41.2727C76.1338 41.2727 73.4271 38.5661 73.4271 35.2273H71.4271C71.4271 39.6707 75.0292 43.2727 79.4726 43.2727V41.2727ZM35.8182 48.5259H61.3926V46.5259H35.8182V48.5259ZM34.8182 54.4699V49.5259H32.8182V54.4699H34.8182ZM36.4334 57.7986C35.8972 57.7986 35.5753 57.6087 35.3279 57.1993C35.0317 56.7089 34.8182 55.8447 34.8182 54.4699H32.8182C32.8182 55.9809 33.0406 57.281 33.6161 58.2335C34.2405 59.267 35.2262 59.7986 36.4334 59.7986V57.7986ZM48.8625 57.7986H36.4334V59.7986H48.8625V57.7986ZM51.8625 99.4545V60.7986H49.8625V99.4545H51.8625ZM36.4376 102.455H48.8625V100.455H36.4376V102.455ZM34.8225 105.805C34.8225 104.422 35.0361 103.552 35.3333 103.057C35.5817 102.644 35.9038 102.455 36.4376 102.455V100.455C35.2281 100.455 34.2425 100.99 33.6192 102.027C33.0447 102.982 32.8225 104.287 32.8225 105.805H34.8225ZM34.8225 110.783V105.805H32.8225V110.783H34.8225ZM62.0481 111.783H35.8225V113.783H62.0481V111.783ZM62.3988 111.762C62.2893 111.775 62.1726 111.783 62.0481 111.783V113.783C62.251 113.783 62.4511 113.771 62.648 113.746L62.3988 111.762ZM65.2915 111.727H62.8762V113.727H65.2915V111.727ZM74.6493 111.727H65.2915V113.727H74.6493V111.727ZM83.7023 108.761C82.1842 110.633 79.2919 111.727 74.6493 111.727V113.727C79.5058 113.727 83.1667 112.597 85.2558 110.02L83.7023 108.761ZM86.1845 95.232C86.1845 98.7736 85.9608 101.674 85.526 103.95C85.0879 106.242 84.4518 107.811 83.6942 108.771L85.264 110.01C86.31 108.685 87.0267 106.752 87.4904 104.325C87.9574 101.882 88.1845 98.8449 88.1845 95.232H86.1845ZM86.0944 79.9972L86.1846 95.238L88.1845 95.2261L88.0943 79.9854L86.0944 79.9972ZM94.8448 102.531C93.8005 97.0112 92.4652 89.3751 90.8386 79.6199L88.8658 79.9488C90.4933 89.7094 91.8313 97.3619 92.8797 102.903L94.8448 102.531ZM97.4552 110.397C97.0811 110.023 96.6298 109.234 96.1605 107.87C95.7017 106.537 95.2614 104.763 94.8452 102.534L92.8792 102.901C93.3047 105.18 93.7663 107.059 94.2694 108.521C94.762 109.953 95.3328 111.103 96.0409 111.811L97.4552 110.397ZM103.782 111.727C102.052 111.727 100.661 111.595 99.5882 111.347C98.5049 111.097 97.8265 110.748 97.4358 110.378L96.0603 111.83C96.8119 112.542 97.877 113.005 99.1385 113.296C100.41 113.589 101.965 113.727 103.782 113.727V111.727ZM116.588 111.727H103.782V113.727H116.588V111.727ZM119.816 111.063C119.701 111.189 119.434 111.368 118.871 111.509C118.317 111.647 117.565 111.727 116.588 111.727V113.727C117.656 113.727 118.586 113.642 119.356 113.449C120.115 113.26 120.81 112.943 121.296 112.408L119.816 111.063ZM120.548 107.587C120.548 108.594 120.468 109.381 120.327 109.97C120.184 110.568 119.998 110.879 119.849 111.028L121.263 112.442C121.776 111.93 122.085 111.219 122.273 110.435C122.463 109.64 122.548 108.684 122.548 107.587H120.548ZM120.548 49.5259V107.587H122.548V49.5259H120.548ZM112.169 48.5259H119.548V46.5259H112.169V48.5259ZM110.564 49.1905C110.96 48.7549 111.465 48.5259 112.169 48.5259V46.5259C110.95 46.5259 109.891 46.9582 109.084 47.8452L110.564 49.1905ZM109.923 51.1331C109.923 50.2445 110.164 49.6307 110.564 49.1905L109.084 47.8452C108.282 48.7277 107.923 49.8574 107.923 51.1331H109.923ZM109.923 101.801V51.1331H107.923V101.801H109.923ZM104.418 94.1266C104.839 96.7758 105.195 98.8546 105.483 100.358C105.627 101.109 105.756 101.725 105.87 102.201C105.978 102.65 106.089 103.048 106.209 103.311L108.029 102.484C107.999 102.417 107.925 102.194 107.815 101.734C107.711 101.301 107.589 100.718 107.447 99.981C107.165 98.5084 106.813 96.4539 106.393 93.8124L104.418 94.1266ZM99.637 65.3503C100.661 72.1557 102.256 81.7541 104.42 94.1416L106.391 93.7973C104.227 81.4149 102.635 71.8347 101.615 65.0527L99.637 65.3503ZM98.3779 57.7059C98.6775 59.4437 99.0976 61.9944 99.6385 65.3602L101.613 65.0428C101.072 61.675 100.65 59.1154 100.349 57.3661L98.3779 57.7059ZM97.6657 53.9653C97.9013 55.0256 98.1385 56.2699 98.3769 57.7004L100.35 57.3716C100.107 55.9163 99.8634 54.6355 99.618 53.5315L97.6657 53.9653ZM96.5846 50.8774C97.1447 51.9416 97.4954 52.9525 97.6555 53.9128L99.6283 53.584C99.4276 52.3799 98.9968 51.1664 98.3544 49.9459L96.5846 50.8774ZM94.9337 48.9954C95.5197 49.2298 96.084 49.7696 96.5576 50.822L98.3814 50.0013C97.7728 48.6489 96.8942 47.6256 95.6765 47.1385L94.9337 48.9954ZM91.6979 48.5259C93.1359 48.5259 94.1966 48.7006 94.9337 48.9954L95.6765 47.1385C94.6101 46.7119 93.2659 46.5259 91.6979 46.5259V48.5259ZM75.5511 48.5259H91.6979V46.5259H75.5511V48.5259ZM72.1284 48.5259H75.5511V46.5259H72.1284V48.5259ZM62.045 48.5259H72.1284V46.5259H62.045V48.5259ZM61.3926 48.5259H62.045V46.5259H61.3926V48.5259ZM66.2945 102.807V101.456H64.2945V102.807H66.2945ZM68.066 103.16H66.6473V105.16H68.066V103.16ZM70.442 102.819C70.3828 102.863 70.1921 102.962 69.7584 103.041C69.3425 103.117 68.7837 103.16 68.066 103.16V105.16C68.8514 105.16 69.5401 105.113 70.1162 105.009C70.6744 104.907 71.2203 104.735 71.642 104.419L70.442 102.819ZM70.7635 101.545C70.7635 102.468 70.5376 102.747 70.442 102.819L71.642 104.419C72.5083 103.769 72.7635 102.665 72.7635 101.545H70.7635ZM70.7635 58.7986V101.545H72.7635V58.7986H70.7635ZM70.442 57.4342C70.5265 57.4976 70.7635 57.7904 70.7635 58.7986H72.7635C72.7635 57.6424 72.5195 56.4923 71.642 55.8342L70.442 57.4342ZM68.066 57.0931C68.7837 57.0931 69.3425 57.1367 69.7584 57.2123C70.1921 57.2911 70.3828 57.3898 70.442 57.4342L71.642 55.8342C71.2203 55.5179 70.6744 55.346 70.1162 55.2445C69.5401 55.1398 68.8514 55.0931 68.066 55.0931V57.0931ZM67.2915 57.0931H68.066V55.0931H67.2915V57.0931ZM66.2915 101.453V58.0931H64.2915V101.453H66.2915ZM89.8296 100.341C90.6949 100.341 91.52 100.092 92.1544 99.6388C92.7869 99.187 93.2955 98.4727 93.2955 97.5795H91.2955C91.2955 97.6592 91.252 97.8256 90.992 98.0113C90.7339 98.1956 90.3261 98.3409 89.8296 98.3409V100.341ZM86.3636 97.5795C86.3636 98.4727 86.8722 99.187 87.5047 99.6388C88.1391 100.092 88.9642 100.341 89.8296 100.341V98.3409C89.333 98.3409 88.9252 98.1956 88.6671 98.0113C88.4071 97.8256 88.3636 97.6592 88.3636 97.5795H86.3636ZM89.8296 94.8182C88.9642 94.8182 88.1391 95.0672 87.5047 95.5203C86.8722 95.9721 86.3636 96.6864 86.3636 97.5795H88.3636C88.3636 97.4999 88.4071 97.3335 88.6671 97.1478C88.9252 96.9635 89.333 96.8182 89.8296 96.8182V94.8182ZM93.2955 97.5795C93.2955 96.6864 92.7869 95.9721 92.1544 95.5203C91.52 95.0672 90.6949 94.8182 89.8296 94.8182V96.8182C90.3261 96.8182 90.7339 96.9635 90.992 97.1478C91.252 97.3335 91.2955 97.4999 91.2955 97.5795H93.2955ZM64.2915 101.453C64.2915 102.006 64.7399 102.455 65.293 102.455V100.455C65.8445 100.455 66.2915 100.902 66.2915 101.453H64.2915ZM67.2915 55.0931C65.6347 55.0931 64.2915 56.4363 64.2915 58.0931H66.2915C66.2915 57.5408 66.7393 57.0931 67.2915 57.0931V55.0931ZM66.2945 101.456C66.2945 100.903 65.8462 100.455 65.293 100.455V102.455C64.7415 102.455 64.2945 102.007 64.2945 101.456H66.2945ZM88.0943 80.0015C88.0959 79.8459 88.1459 79.779 88.1845 79.7421C88.2369 79.692 88.3294 79.6452 88.451 79.6361C88.5725 79.627 88.6725 79.6594 88.7339 79.7024C88.7799 79.7346 88.8402 79.7951 88.8658 79.9488L90.8386 79.6199C90.5999 78.1883 89.369 77.5617 88.3016 77.6417C87.2331 77.7217 86.1092 78.5268 86.0944 79.9811L88.0943 80.0015ZM64.2945 102.807C64.2945 104.107 65.3479 105.16 66.6473 105.16V103.16C66.4525 103.16 66.2945 103.002 66.2945 102.807H64.2945ZM35.8182 46.5259C34.1613 46.5259 32.8182 47.869 32.8182 49.5259H34.8182C34.8182 48.9736 35.2659 48.5259 35.8182 48.5259V46.5259ZM122.548 49.5259C122.548 47.869 121.205 46.5259 119.548 46.5259V48.5259C120.1 48.5259 120.548 48.9736 120.548 49.5259H122.548ZM32.8225 110.783C32.8225 112.44 34.1656 113.783 35.8225 113.783V111.783C35.2702 111.783 34.8225 111.335 34.8225 110.783H32.8225ZM107.923 101.801C107.923 101.914 107.892 102.029 107.839 102.131C107.783 102.236 107.719 102.297 107.684 102.321C107.647 102.346 107.696 102.297 107.817 102.318C107.878 102.328 107.928 102.353 107.962 102.378C107.994 102.401 107.994 102.412 107.976 102.383L106.261 103.412C106.529 103.857 106.944 104.199 107.484 104.29C107.998 104.377 108.462 104.208 108.801 103.98C109.461 103.536 109.923 102.7 109.923 101.801H107.923ZM48.8625 59.7986C49.4148 59.7986 49.8625 60.2463 49.8625 60.7986H51.8625C51.8625 59.1417 50.5194 57.7986 48.8625 57.7986V59.7986ZM62.648 113.746C62.7534 113.733 62.8217 113.727 62.8762 113.727V111.727C62.6947 111.727 62.5277 111.746 62.3988 111.762L62.648 113.746ZM49.8625 99.4545C49.8625 100.007 49.4148 100.455 48.8625 100.455V102.455C50.5194 102.455 51.8625 101.111 51.8625 99.4545H49.8625Z" fill="#FC8874" mask="url(#path-1-inside-1_114_21)"/>
</svg>
