<svg xmlns="http://www.w3.org/2000/svg" viewBox="0 0 500 500"><g id="freepik--Character--inject-3"><polygon points="390.69 416.75 397.29 416.75 383.79 340.56 377.19 340.56 390.69 416.75" style="fill:#263238"></polygon><polygon points="245.53 416.75 252.14 416.75 238.64 340.56 232.03 340.56 245.53 416.75" style="fill:#263238"></polygon><polygon points="390.69 416.75 397.29 416.75 383.79 340.56 377.19 340.56 390.69 416.75" style="fill:#fff;opacity:0.30000000000000004"></polygon><polygon points="245.53 416.75 252.14 416.75 238.64 340.56 232.03 340.56 245.53 416.75" style="fill:#fff;opacity:0.30000000000000004"></polygon><rect x="188.09" y="378.65" width="199.15" height="6.69" transform="translate(575.33 763.99) rotate(180)" style="fill:#263238"></rect><rect x="188.09" y="378.65" width="199.15" height="6.69" transform="translate(575.33 763.99) rotate(180)" style="fill:#fff;opacity:0.5"></rect><polygon points="329.79 416.75 323.19 416.75 336.69 340.56 343.29 340.56 329.79 416.75" style="fill:#263238"></polygon><polygon points="184.64 416.75 178.03 416.75 191.53 340.56 198.14 340.56 184.64 416.75" style="fill:#263238"></polygon><polygon points="329.79 416.75 323.19 416.75 336.69 340.56 343.29 340.56 329.79 416.75" style="fill:#fff;opacity:0.30000000000000004"></polygon><polygon points="184.64 416.75 178.03 416.75 191.53 340.56 198.14 340.56 184.64 416.75" style="fill:#fff;opacity:0.30000000000000004"></polygon><polygon points="244.52 337.59 251.09 337.59 262.09 276.44 255.52 276.44 244.52 337.59" style="fill:#263238"></polygon><polygon points="244.52 337.59 251.09 337.59 262.09 276.44 255.52 276.44 244.52 337.59" style="fill:#fff;opacity:0.30000000000000004"></polygon><polygon points="375.01 337.59 381.58 337.59 392.58 276.44 386.01 276.44 375.01 337.59" style="fill:#263238"></polygon><polygon points="309.76 337.59 316.33 337.59 327.33 276.44 320.76 276.44 309.76 337.59" style="fill:#263238"></polygon><polygon points="375.01 337.59 381.58 337.59 392.58 276.44 386.01 276.44 375.01 337.59" style="fill:#fff;opacity:0.30000000000000004"></polygon><polygon points="309.76 337.59 316.33 337.59 327.33 276.44 320.76 276.44 309.76 337.59" style="fill:#fff;opacity:0.30000000000000004"></polygon><polygon points="233.17 280.62 405.74 280.62 407.8 269.18 235.23 269.18 233.17 280.62" style="fill:#263238"></polygon><polygon points="229.45 301.32 402.02 301.32 404.08 289.88 231.51 289.88 229.45 301.32" style="fill:#263238"></polygon><polygon points="225.72 322.02 398.29 322.02 400.35 310.58 227.78 310.58 225.72 322.02" style="fill:#263238"></polygon><rect x="176.66" y="335.79" width="219.93" height="7.92" transform="translate(573.24 679.5) rotate(180)" style="fill:#263238"></rect><polygon points="233.17 280.62 405.74 280.62 407.8 269.18 235.23 269.18 233.17 280.62" style="fill:#fff;opacity:0.5"></polygon><polygon points="229.45 301.32 402.02 301.32 404.08 289.88 231.51 289.88 229.45 301.32" style="fill:#fff;opacity:0.5"></polygon><polygon points="225.72 322.02 398.29 322.02 400.35 310.58 227.78 310.58 225.72 322.02" style="fill:#fff;opacity:0.5"></polygon><rect x="176.66" y="335.79" width="219.93" height="7.92" transform="translate(573.24 679.5) rotate(180)" style="fill:#fff;opacity:0.5"></rect><rect x="176.66" y="335.79" width="165.93" height="7.92" transform="translate(519.24 679.5) rotate(180)" style="fill:#fff;opacity:0.2"></rect><path d="M325.59,254.21c-4.65,4.91-15.8,16.94-22.7,16.73-7.28-.78-15.42-12-19.3-17.68A2.5,2.5,0,0,1,287.3,250c4.74,3.94,11.46,10.11,15.93,11.91-.68,0-.81.14-.19-.25,5.62-4,10.37-9.42,15.25-14.28,4.65-4.53,11.51,1.88,7.3,6.83Z" style="fill:#e9b376"></path><path d="M323.05,245.25v14.33s-3,2.52-6.75,5.3c-1.86,1.39-3.89,2.84-5.79,4.07-2.89,1.88-5.49,3.26-6.81,3.18-3.94-.24-12.49-6.35-12.49-6.35l5.62-9.36s6.46,3.95,6.87,4.22S317.66,245.34,323.05,245.25Z" style="fill:#4EFCB1"></path><path d="M316.3,264.88c-1.86,1.39-3.89,2.84-5.79,4.07.45-8.22,4.32-11.38,4.32-11.38A14.27,14.27,0,0,1,316.3,264.88Z" style="opacity:0.2"></path><path d="M328.51,207.57c-6.9,5.63-6.08,21.83,1.67,32.46,0,0,16.56,1.39,25.76-2.73s-1-30.35-10.69-32.41A23.19,23.19,0,0,0,328.51,207.57Z" style="fill:#263238"></path><path d="M328.92,224.4c-2.53-4.36-5-16.13,5.47-19.76,13.13-4.54,19,3.83,20.15,12.13s-3.54,14.57-12.22,13.95S330.66,227.42,328.92,224.4Z" style="fill:#263238"></path><path d="M314.82,257.57c-1.28,6.07,1,20.37,1.34,31.15l30.92,3.56c0-3.38.63-8.28,2.65-16.07,1.15-4.56,2.81-10.12,5.08-16.94.33-1,.68-2,1-3.11a7.69,7.69,0,0,0-6-10.33c-1.3-.21-2.68-.39-4.09-.53a104,104,0,0,0-15-.79c-1.63.05-3.33.17-4.95.31C320,245.31,316,251.89,314.82,257.57Z" style="fill:#263238"></path><path d="M345.57,228.41c-1.55,4.74-3.62,13.47-.66,16.84,0,0-4.52-.92-14.51,4.54-2.59-4.16-.44-5.33-.44-5.33,5.53-1,5.89-5,5.44-8.73Z" style="fill:#ebb376"></path><path d="M341.43,231.39l-6,4.33a15,15,0,0,1,.12,2.67c2.09-.19,5.19-2.28,5.68-4.4A7.18,7.18,0,0,0,341.43,231.39Z" style="opacity:0.2"></path><path d="M347.64,217.34c.11,7.91.32,11.26-3.36,15.6-5.52,6.53-15.27,4.93-17.74-2.79-2.22-7-2-18.73,5.46-22.44A10.8,10.8,0,0,1,347.64,217.34Z" style="fill:#ffb573"></path><path d="M340.93,209.94c-2.19,2.75,2.8,11.41,6.74,12.88C355.32,220.3,347.48,201.73,340.93,209.94Z" style="fill:#263238"></path><path d="M331.56,206.25c-2.91,1.28-5.64,6.75-6,8.79,4.33.33,15.48-4.67,15.48-4.67s7.85,1.44,3.63-2.1S331.56,206.25,331.56,206.25Z" style="fill:#263238"></path><path d="M334.48,220.56c0,.64-.25,1.18-.67,1.22s-.8-.47-.85-1.11.26-1.18.68-1.22S334.43,219.92,334.48,220.56Z" style="fill:#263238"></path><path d="M327.23,221.1c0,.64-.25,1.19-.67,1.22s-.8-.46-.85-1.1.26-1.19.68-1.22S327.18,220.46,327.23,221.1Z" style="fill:#263238"></path><path d="M326.57,220l-1.57-.33S325.88,220.83,326.57,220Z" style="fill:#263238"></path><path d="M330.31,221.9a17.66,17.66,0,0,1-2,4.27,2.78,2.78,0,0,0,2.32.25Z" style="fill:#ed893e"></path><path d="M334.33,228.67a6.38,6.38,0,0,1-.94.15.19.19,0,0,1,0-.38,5.07,5.07,0,0,0,4-2.3.18.18,0,0,1,.25-.07.19.19,0,0,1,.08.25A5.27,5.27,0,0,1,334.33,228.67Z" style="fill:#263238"></path><path d="M350.31,224.4a5.76,5.76,0,0,1-2.76,3.45c-1.78,1-3.12-.53-3-2.45.11-1.72,1.17-4.3,3.15-4.48A2.6,2.6,0,0,1,350.31,224.4Z" style="fill:#ffb573"></path><path d="M338,218.68a.39.39,0,0,1-.41-.18c-.9-1.49-3.14-1.67-3.16-1.67a.38.38,0,0,1,.05-.76c.11,0,2.66.22,3.76,2a.38.38,0,0,1-.13.52Z" style="fill:#263238"></path><path d="M325.56,217.73a.37.37,0,0,1-.36-.11.37.37,0,0,1,0-.53,3.71,3.71,0,0,1,3.28-1.05.37.37,0,0,1-.17.73h0a3,3,0,0,0-2.59.86A.42.42,0,0,1,325.56,217.73Z" style="fill:#263238"></path><path d="M333.82,219.48l-1.57-.33S333.13,220.29,333.82,219.48Z" style="fill:#263238"></path><path d="M305.72,248.69l.75,2.34a2.85,2.85,0,0,0,1.85,1.85l4.12,1.32a5.32,5.32,0,0,0,4.83-.81l.85-.64c-1-4-4.95-7.54-4.95-7.54l-1-1.15a2.39,2.39,0,0,0-3.37-.27l-2.29,2A2.73,2.73,0,0,0,305.72,248.69Z" style="fill:#ebb376"></path><path d="M278,250.83l.75,2.35a2.88,2.88,0,0,0,1.86,1.85l4.11,1.32a5.35,5.35,0,0,0,4.83-.81l.86-.64c-1-4-5-7.55-5-7.55l-1-1.14a2.38,2.38,0,0,0-3.38-.27l-2.29,2A2.75,2.75,0,0,0,278,250.83Z" style="fill:#ebb376"></path><path d="M337.8,263.39c2,5.86,7.07,10.23,11.93,12.82,1.15-4.56,2.81-10.12,5.08-16.94-3.05-4.26-7.32-7.29-12.76-6.47C342.05,252.8,335.79,257.46,337.8,263.39Z" style="opacity:0.2"></path><path d="M228.07,379.65l5.22,2.11s44.35-66.9,48.46-64.39c14.87,9.11,45.44,25.39,59.91,15.53s5.88-35.85,5.88-35.85-28.14-9.88-31.62-3.77a47.31,47.31,0,0,0-2.39,5.63c-.72,1.93-1.28,3.56-1.28,3.56h0c-.85-.4-28.43-13.67-41.42-8.2C257.62,299.82,228.07,379.65,228.07,379.65Z" style="fill:#ebb376"></path><path d="M324.25,336.47s-13.95.91-33.06-5.58c0,0-4.71,53.28-7.88,82.2l-6.4-.9s-10.89-78.94-8.74-88.56S282,313.37,282,313.37,304.27,329.74,324.25,336.47Z" style="fill:#ebb376"></path><path d="M324.25,336.47A103.8,103.8,0,0,1,296.34,333l1.82-7.58C305.19,330.07,315,332.9,324.25,336.47Z" style="fill:#4EFCB1"></path><path d="M324.25,336.47A103.8,103.8,0,0,1,296.34,333l1.82-7.58C305.19,330.07,315,332.9,324.25,336.47Z" style="fill:#fff;opacity:0.4"></path><polygon points="296.98 324.65 295.31 333.09 297.85 333.96 299.81 326.51 296.98 324.65" style="fill:#4EFCB1"></polygon><polygon points="296.98 324.65 295.31 333.09 297.85 333.96 299.81 326.51 296.98 324.65" style="fill:#fff;isolation:isolate;opacity:0.6000000000000001"></polygon><path d="M270.49,357.18c-1-21-1.44-31.84,2-36.17a15.22,15.22,0,0,1,8.85-5.12c4.48,11.35,24,18.43,24.54,18.62h0c7.29,1.51,18.09,1.9,18.36,2a71.87,71.87,0,0,1-26.09-11A164.6,164.6,0,0,1,282,313.38s-11.65.63-13.8,10.25c-.88,3.94.42,19.46,2.26,36.45A26.53,26.53,0,0,0,270.49,357.18Z" style="isolation:isolate;opacity:0.2"></path><path d="M222.86,375.26a.83.83,0,0,1,.2-.94.93.93,0,0,1,.67-.35,3.68,3.68,0,0,1,1.89.63c-.49-.64-.87-1.33-.7-1.76.11-.28.39-.43.84-.43a1.36,1.36,0,0,1,1.05.45c.87.95.68,3.12.68,3.22a.3.3,0,0,1,0,.1.1.1,0,0,1,0,.05.18.18,0,0,1-.07,0h-.08a14.3,14.3,0,0,1-2.79-.21C223.72,375.93,223.06,375.68,222.86,375.26Zm.91-.82a.47.47,0,0,0-.35.17c-.23.28-.17.41-.15.45.24.48,1.91.72,3.32.76C225.78,375.21,224.51,374.37,223.77,374.44Zm2-1.57c-.13,0-.36,0-.41.14-.14.37.72,1.52,1.69,2.52a3.79,3.79,0,0,0-.58-2.36.88.88,0,0,0-.48-.28Z" style="fill:#263238"></path><path d="M270.65,407.62a.85.85,0,0,1-.22-.94.94.94,0,0,1,.46-.6,3.67,3.67,0,0,1,2-.24c-.72-.37-1.35-.83-1.38-1.29q0-.45.57-.75a1.34,1.34,0,0,1,1.14,0c1.2.48,2,2.52,2,2.61a.22.22,0,0,1,0,.11h0a.43.43,0,0,1,0,0h0a.14.14,0,0,1-.05.08l-.05.05h0a10.92,10.92,0,0,1-3.67,1.16A1.21,1.21,0,0,1,270.65,407.62Zm.48-1.14a.47.47,0,0,0-.25.31c-.09.35,0,.44.06.47.42.33,2-.17,3.32-.74C273.27,406.32,271.76,406.11,271.13,406.48Zm1.12-2.26c-.12.06-.32.17-.31.3,0,.39,1.29,1.06,2.61,1.54a3.82,3.82,0,0,0-1.54-1.87.83.83,0,0,0-.34-.07A.92.92,0,0,0,272.25,404.22Z" style="fill:#263238"></path><path d="M236.58,379.51c.29-.66-8-3.84-8-3.84s-7.23,2.74-12.54,1.66-4,3,1.4,5.48l13.22,6.1C234.51,390.66,233.63,386.33,236.58,379.51Z" style="fill:#263238"></path><path d="M284.87,405.56c0-.72-8.83-.05-8.83-.05s-5.36,5.58-10.61,6.88-2.27,4.43,3.62,4.36l14.56-.18C287.79,416.52,285.13,413,284.87,405.56Z" style="fill:#263238"></path><path d="M347.54,297.05s-28.14-9.88-31.62-3.77a49,49,0,0,0-2.39,5.63c-.72,1.93-1.28,3.56-1.28,3.56h0l-2.31-1.06-9.42,28.13c15,8.32,36.17,9.28,44.85,3.37C359.81,323.05,347.54,297.05,347.54,297.05Z" style="fill:#4EFCB1"></path><g style="opacity:0.4"><path d="M347.54,297.05s-28.14-9.88-31.62-3.77a49,49,0,0,0-2.39,5.63c-.72,1.93-1.28,3.56-1.28,3.56h0l-2.31-1.06-9.42,28.13c15,8.32,36.17,9.28,44.85,3.37C359.81,323.05,347.54,297.05,347.54,297.05Z" style="fill:#fff"></path></g><path d="M312.25,302.47l16.23,6.89s-8.33-7-15-10.45C312.81,300.84,312.25,302.47,312.25,302.47Z" style="isolation:isolate;opacity:0.30000000000000004"></path><polygon points="315.52 294.05 316.09 287.11 347.54 291.29 347.95 297.99 315.52 294.05" style="fill:#4EFCB1"></polygon><polygon points="315.52 294.05 316.09 287.11 347.54 291.29 347.95 297.99 315.52 294.05" style="fill:#fff;opacity:0.4"></polygon><polygon points="316.15 287.79 317.8 288.03 317.29 293.44 315.93 293.28 316.15 287.79" style="fill:#263238"></polygon><polygon points="319.36 288.25 337.09 290.83 336.63 295.75 318.86 293.63 319.36 288.25" style="fill:#263238"></polygon><polygon points="347.54 297.05 338.19 295.94 338.65 291.06 338.65 291.06 347.09 292.28 347.54 297.05" style="fill:#263238"></polygon><polygon points="316.15 287.79 317.8 288.03 317.29 293.44 315.93 293.28 316.15 287.79" style="isolation:isolate;opacity:0.2"></polygon><polygon points="319.36 288.25 337.09 290.83 336.63 295.75 318.86 293.63 319.36 288.25" style="isolation:isolate;opacity:0.2"></polygon><polygon points="347.54 297.05 338.19 295.94 338.65 291.06 338.65 291.06 347.09 292.28 347.54 297.05" style="isolation:isolate;opacity:0.2"></polygon><path d="M328.75,295.46h-.19l-5.05-.67a1.43,1.43,0,0,1-.95-.55,1.41,1.41,0,0,1-.29-1.06l.45-3.38a1.48,1.48,0,0,1,.55-1,1.44,1.44,0,0,1,1.06-.28l5.05.67a1.43,1.43,0,0,1,1.24,1.61l-.45,3.38A1.43,1.43,0,0,1,328.75,295.46Zm-4.61-5.92a.43.43,0,0,0-.26.09.46.46,0,0,0-.17.29l-.44,3.38a.41.41,0,0,0,.08.32.46.46,0,0,0,.29.17h0l5.05.67a.44.44,0,0,0,.49-.38l.45-3.38a.45.45,0,0,0-.09-.32.46.46,0,0,0-.29-.17l-5.05-.67Z" style="fill:#fff"></path><path d="M329,292.78h-.08l-1.78-.29a.49.49,0,0,1-.41-.57.51.51,0,0,1,.57-.42l1.78.29a.5.5,0,0,1-.08,1Z" style="fill:#fff"></path><polygon points="308.58 299.46 311.2 300.84 302.31 331.06 298.58 330.32 308.58 299.46" style="fill:#4EFCB1"></polygon><polygon points="308.58 299.46 311.2 300.84 302.31 331.06 298.58 330.32 308.58 299.46" style="fill:#fff;isolation:isolate;opacity:0.6000000000000001"></polygon><path d="M306.48,269h-22a1.71,1.71,0,0,1-1.67-1.54l-3.07-29.25a1.39,1.39,0,0,1,1.4-1.54h22a1.72,1.72,0,0,1,1.68,1.54l3.06,29.25A1.38,1.38,0,0,1,306.48,269Z" style="fill:#263238"></path><path d="M306.48,269h-22a1.71,1.71,0,0,1-1.67-1.54l-3.07-29.25a1.39,1.39,0,0,1,1.4-1.54h22a1.72,1.72,0,0,1,1.68,1.54l3.06,29.25A1.38,1.38,0,0,1,306.48,269Z" style="fill:#fff;opacity:0.6000000000000001"></path><path d="M305.56,269H284.45a1.71,1.71,0,0,1-1.67-1.54l-3.07-29.25a1.39,1.39,0,0,1,1.4-1.54h21.11a1.71,1.71,0,0,1,1.67,1.54L307,267.41A1.38,1.38,0,0,1,305.56,269Z" style="fill:#fff;opacity:0.2"></path><path d="M292.71,250.39a2.15,2.15,0,0,0-2.17,2.39,2.65,2.65,0,0,0,2.59,2.4,2.16,2.16,0,0,0,2.17-2.4A2.66,2.66,0,0,1,292.71,250.39Z" style="fill:#263238"></path><path d="M297.48,238.94H285.84a1.54,1.54,0,0,1-1.36-.88l-.7-1.44h15.36l-.45,1.44A1.24,1.24,0,0,1,297.48,238.94Z" style="opacity:0.30000000000000004"></path><path d="M353.66,305.87h-4.09s-5.11-15.34-8.09-28.34a94.31,94.31,0,0,1-1.91-10.43,29.9,29.9,0,0,1,1-11.58,29,29,0,0,1,5.18-10.22l-.83-.05c7.74-.08,11.92,2.6,12.44,7.42s-8,33.42-8.44,37.24S353.66,305.87,353.66,305.87Z" style="fill:#4EFCB1"></path><path d="M327.24,244.71s-8.19,12.9-10.38,18.38-.93,21.18-.93,21.18-4.19-18.89-1.5-28.25S321.79,244.74,327.24,244.71Z" style="fill:#4EFCB1"></path><path d="M355.28,256.34c-4.31,6.18-14.6,20.69-23.46,17.29-4.67-2.13-8-6-11.09-9.75a79.72,79.72,0,0,1-7.21-10.78,2.49,2.49,0,0,1,4-2.95c2.84,2.95,5.8,5.91,8.75,8.65,2.57,2.32,5.87,5.34,8.85,6.43a1.9,1.9,0,0,0-.66-.17c-.17,0-.13,0,0-.11,5-3.42,8.84-9.3,12.55-14.19,3.86-5.33,11.77,0,8.29,5.58Z" style="fill:#e9b376"></path><path d="M354.2,260s-7.2,12.28-12.72,17.49a94.31,94.31,0,0,1-1.91-10.43,29.9,29.9,0,0,1,1-11.58l5.7-4.7C349.1,248.45,354.2,260,354.2,260Z" style="opacity:0.2"></path><path d="M354.71,248.68c3.77,2,2.63,7.47-2.31,13.93s-13.88,15.19-18.58,13.6-10-7.84-10-7.84l3.43-9.68s6.73,5.11,8.13,4.85,8.26-9.14,10.24-11.89S350.62,246.47,354.71,248.68Z" style="fill:#4EFCB1"></path><path d="M284.43,249.25l-.14,1.92a2.2,2.2,0,0,1-1.87,2l-2.61.39.62-7,2.18.38A2.19,2.19,0,0,1,284.43,249.25Z" style="fill:#ffb573"></path></g></svg>