<svg width="1900" height="800" viewBox="0 0 1900 800" fill="none" xmlns="http://www.w3.org/2000/svg">
<g clip-path="url(#clip0_4_13)">
<rect width="1900" height="800" fill="#FCE742"/>
<path d="M639 198C514.51 148.334 344.719 156.385 307 285C280.101 376.72 358.308 425.163 396 513C428.418 588.546 490.627 622.02 484.5 704C471.917 872.357 179.475 777.454 54 664.5C-129.545 499.271 63.6197 256.343 197 48.4999C262.626 -53.7636 305.341 -113.938 406 -182C702.619 -382.565 1092.72 -303.619 1308 -17.5001C1353.76 43.3177 1348.99 98.4048 1401.5 153.5C1568.65 328.882 1946.67 -174.592 2014.5 57.9999C2043.01 155.77 2067.68 270.639 1976.5 316C1927.02 340.612 1886.33 295.526 1835 316C1762.27 345.011 1779.62 432.059 1715.5 477C1602.9 555.921 1500.87 491.535 1363.5 485.5C1146.43 475.963 988.328 530.517 813.5 401.5C729.265 339.337 736.236 236.793 639 198Z" fill="#4EFCB1"/>
<path d="M651.582 168.371C529.677 118.519 363.413 126.6 326.477 255.696C300.136 347.758 376.719 396.382 413.628 484.547C445.373 560.375 506.29 593.975 500.29 676.26C487.969 845.246 201.6 749.989 78.7314 636.613C-101.001 470.767 88.1513 226.932 218.761 18.3124C283.024 -84.333 324.853 -144.732 423.421 -213.048C713.879 -414.362 1095.88 -335.122 1306.69 -47.9341C1351.5 13.1109 1346.83 68.4037 1398.25 123.705C1561.93 299.742 1932.1 -205.612 1998.51 27.8479C2026.43 125.983 2050.59 241.281 1961.3 286.811C1912.86 311.516 1873 266.261 1822.74 286.811C1751.52 315.931 1768.51 403.304 1705.72 448.413C1595.46 527.628 1495.55 463.002 1361.03 456.944C1148.47 447.372 993.654 502.13 822.457 372.631C739.972 310.236 746.798 207.308 651.582 168.371Z" fill="#FC8874"/>
</g>
<defs>
<clipPath id="clip0_4_13">
<rect width="1900" height="800" fill="white"/>
</clipPath>
</defs>
</svg>
