<svg width="465" height="121" viewBox="0 0 465 121" fill="none" xmlns="http://www.w3.org/2000/svg">
<path d="M138.2 27.456H178.264C179.629 27.456 180.739 27.9253 181.592 28.864C182.445 29.8027 182.872 31.04 182.872 32.576V120H169.432C166.531 120 164.611 119.531 163.672 118.592C162.819 117.653 162.392 115.691 162.392 112.704V43.456H141.912C139.437 43.456 138.2 41.408 138.2 37.312V27.456ZM187.992 27.456H208.472C210.947 27.456 212.184 29.504 212.184 33.6V43.456H187.992V27.456ZM305.248 73.536L305.376 95.168C305.376 105.323 304.096 112.021 301.536 115.264C298.976 118.421 294.325 120 287.584 120H268.768V107.84H278.24C280.373 107.84 281.781 107.584 282.464 107.072C283.147 106.56 283.488 105.579 283.488 104.128V43.456C283.488 41.92 283.147 40.896 282.464 40.384C281.781 39.872 280.373 39.616 278.24 39.616H268.768V27.456H288.864C295.093 27.456 299.403 28.9067 301.792 31.808C304.267 34.624 305.504 40.1707 305.504 48.448L305.248 73.536ZM264.928 120.128H251.488C248.672 120.128 246.795 119.659 245.856 118.72C244.917 117.696 244.448 115.733 244.448 112.832V34.752C244.448 31.8507 244.917 29.9307 245.856 28.992C246.795 27.968 248.672 27.456 251.488 27.456H264.928V120.128ZM349.31 39.616H337.406C336.041 39.616 335.358 39.9573 335.358 40.64V120H321.918C319.017 120 317.097 119.531 316.158 118.592C315.305 117.653 314.878 115.691 314.878 112.704V34.752C314.878 31.7653 315.305 29.8027 316.158 28.864C317.097 27.9253 319.017 27.456 321.918 27.456H349.31V39.616ZM354.43 27.456H367.87C370.771 27.456 372.649 27.9253 373.502 28.864C374.441 29.8027 374.91 31.7653 374.91 34.752V112.576C374.91 115.563 374.441 117.568 373.502 118.592C372.563 119.531 370.686 120 367.87 120H354.43V77.12H340.478V64.96H354.43V27.456ZM455.08 27.456V112.704C455.08 115.691 454.611 117.653 453.672 118.592C452.819 119.531 450.941 120 448.04 120H429.864C424.829 120 421.501 119.232 419.88 117.696C418.344 116.16 416.979 112.192 415.784 105.792C413.395 93.1627 409.939 72.768 405.416 44.608C405.075 42.4747 404.563 41.1093 403.88 40.512C403.283 39.9147 402.216 39.5733 400.68 39.488H384.936V27.456H412.712C414.845 27.456 416.552 27.712 417.832 28.224C419.112 28.736 420.136 29.8453 420.904 31.552C421.757 33.1733 422.312 34.752 422.568 36.288C422.909 37.824 423.251 39.616 423.592 41.664C424.019 44.1387 424.616 47.7653 425.384 52.544C426.835 62.1867 429.096 75.7973 432.168 93.376C433.363 100.885 434.173 105.109 434.6 106.048C435.112 106.901 435.965 107.413 437.16 107.584V32.576C437.16 31.04 437.587 29.8027 438.44 28.864C439.293 27.9253 440.403 27.456 441.768 27.456H455.08ZM384.936 43.968H398.248C399.613 43.968 400.723 44.4373 401.576 45.376C402.429 46.3147 402.856 47.552 402.856 49.088V112.704C402.856 115.605 402.472 117.568 401.704 118.592C400.936 119.531 399.4 120 397.096 120H384.936V43.968Z" fill="#1A1818"/>
<path d="M234.498 120H221.058C218.157 120 216.237 119.531 215.298 118.592C214.445 117.653 214.018 115.691 214.018 112.704V34.752C214.018 31.7653 214.445 29.8027 215.298 28.864C216.237 27.9253 218.157 27.456 221.058 27.456H234.498V120Z" fill="#428CFC"/>
<path fill-rule="evenodd" clip-rule="evenodd" d="M75 10C75 15.5228 70.5229 20 65 20C59.4772 20 55 15.5228 55 10C55 4.47715 59.4772 0 65 0C70.5229 0 75 4.47715 75 10ZM39.3382 27.4561H2.2002C1.09563 27.4561 0.200195 28.3515 0.200195 29.4561V37.3121C0.200195 41.4081 1.43753 43.4561 3.9122 43.4561H22.3922C23.4968 43.4561 24.3922 44.3515 24.3922 45.4561V112.704C24.3922 115.691 24.8189 117.653 25.6722 118.592C26.6109 119.531 28.5309 120 31.4322 120H39.3382H44.8722H58.1542C64.8955 120 69.5462 118.421 72.1062 115.264C74.6662 112.021 75.9462 105.323 75.9462 95.1681L75.91 89.048C75.9032 87.9071 76.8591 87 78 87V87C78.7377 87 79.4567 86.98 80.1489 86.9421C81.2047 86.8843 82.1642 87.6028 82.3444 88.6447C83.5162 95.4173 84.5428 101.133 85.4242 105.792C86.6189 112.192 87.9842 116.16 89.5202 117.696C91.1415 119.232 94.4695 120 99.5042 120H117.68C120.582 120 122.459 119.531 123.312 118.592C124.251 117.653 124.72 115.691 124.72 112.704V29.4561C124.72 28.3515 123.825 27.4561 122.72 27.4561H111.408C110.043 27.4561 108.934 27.9254 108.08 28.8641C107.227 29.8027 106.8 31.0401 106.8 32.5761V105.278C106.8 106.495 105.605 107.507 104.728 106.663C104.54 106.483 104.378 106.278 104.24 106.048C103.814 105.109 103.003 100.885 101.808 93.3761C98.7362 75.7974 96.4749 62.1867 95.0242 52.5441C94.2562 47.7654 93.6589 44.1387 93.2322 41.6641C92.8909 39.6161 92.5495 37.8241 92.2082 36.2881C91.9522 34.7521 91.3975 33.1734 90.5442 31.5521C89.7762 29.8454 88.7522 28.7361 87.4722 28.2241C86.1922 27.7121 84.4855 27.4561 82.3522 27.4561H59.4342H54.5762H40.2642H39.3382ZM78.6484 82.0052C79.9563 82.0261 81.0147 80.8755 80.7969 79.5857C80.4522 77.5449 80.0972 75.4289 79.7318 73.2378C79.3404 70.8903 75.8425 71.1563 75.8182 73.5361V73.5361L75.8562 79.9579C75.863 81.1004 76.8241 82.0009 77.9666 82C77.9777 82 77.9889 82 78 82C78.2178 82 78.434 82.0017 78.6484 82.0052ZM46.8722 39.6161C45.7676 39.6161 44.8722 40.5115 44.8722 41.6161V105.84C44.8722 106.945 45.7676 107.84 46.8722 107.84H48.8102C50.9435 107.84 52.3515 107.584 53.0342 107.072C53.7169 106.56 54.0582 105.579 54.0582 104.128V43.4561C54.0582 41.9201 53.7169 40.8961 53.0342 40.3841C52.3515 39.8721 50.9435 39.6161 48.8102 39.6161H46.8722Z" fill="#428CFC"/>
</svg>
