<svg width="465" height="121" viewBox="0 0 465 121" fill="none" xmlns="http://www.w3.org/2000/svg">
<path d="M138 27.456H178.064C179.429 27.456 180.538 27.9253 181.392 28.864C182.245 29.8027 182.672 31.04 182.672 32.576V120H169.232C166.33 120 164.41 119.531 163.472 118.592C162.618 117.653 162.192 115.691 162.192 112.704V43.456H141.712C139.237 43.456 138 41.408 138 37.312V27.456ZM187.792 27.456H208.272C210.746 27.456 211.984 29.504 211.984 33.6V43.456H187.792V27.456ZM305.048 73.536L305.176 95.168C305.176 105.323 303.896 112.021 301.336 115.264C298.776 118.421 294.125 120 287.384 120H268.568V107.84H278.04C280.173 107.84 281.581 107.584 282.264 107.072C282.946 106.56 283.288 105.579 283.288 104.128V43.456C283.288 41.92 282.946 40.896 282.264 40.384C281.581 39.872 280.173 39.616 278.04 39.616H268.568V27.456H288.664C294.893 27.456 299.202 28.9067 301.592 31.808C304.066 34.624 305.304 40.1707 305.304 48.448L305.048 73.536ZM264.728 120.128H251.288C248.472 120.128 246.594 119.659 245.656 118.72C244.717 117.696 244.248 115.733 244.248 112.832V34.752C244.248 31.8507 244.717 29.9307 245.656 28.992C246.594 27.968 248.472 27.456 251.288 27.456H264.728V120.128ZM349.11 39.616H337.206C335.84 39.616 335.158 39.9573 335.158 40.64V120H321.718C318.816 120 316.896 119.531 315.958 118.592C315.104 117.653 314.678 115.691 314.678 112.704V34.752C314.678 31.7653 315.104 29.8027 315.958 28.864C316.896 27.9253 318.816 27.456 321.718 27.456H349.11V39.616ZM354.23 27.456H367.67C370.571 27.456 372.448 27.9253 373.302 28.864C374.24 29.8027 374.71 31.7653 374.71 34.752V112.576C374.71 115.563 374.24 117.568 373.302 118.592C372.363 119.531 370.486 120 367.67 120H354.23V77.12H340.278V64.96H354.23V27.456ZM454.88 27.456V112.704C454.88 115.691 454.41 117.653 453.472 118.592C452.618 119.531 450.741 120 447.84 120H429.664C424.629 120 421.301 119.232 419.68 117.696C418.144 116.16 416.778 112.192 415.584 105.792C413.194 93.1627 409.738 72.768 405.216 44.608C404.874 42.4747 404.362 41.1093 403.68 40.512C403.082 39.9147 402.016 39.5733 400.48 39.488H384.736V27.456H412.512C414.645 27.456 416.352 27.712 417.632 28.224C418.912 28.736 419.936 29.8453 420.704 31.552C421.557 33.1733 422.112 34.752 422.368 36.288C422.709 37.824 423.05 39.616 423.392 41.664C423.818 44.1387 424.416 47.7653 425.184 52.544C426.634 62.1867 428.896 75.7973 431.968 93.376C433.162 100.885 433.973 105.109 434.4 106.048C434.912 106.901 435.765 107.413 436.96 107.584V32.576C436.96 31.04 437.386 29.8027 438.24 28.864C439.093 27.9253 440.202 27.456 441.568 27.456H454.88ZM384.736 43.968H398.048C399.413 43.968 400.522 44.4373 401.376 45.376C402.229 46.3147 402.656 47.552 402.656 49.088V112.704C402.656 115.605 402.272 117.568 401.504 118.592C400.736 119.531 399.2 120 396.896 120H384.736V43.968Z" fill="#FCE742"/>
<path d="M234.298 120H220.858C217.956 120 216.036 119.531 215.098 118.592C214.244 117.653 213.818 115.691 213.818 112.704V34.752C213.818 31.7653 214.244 29.8027 215.098 28.864C216.036 27.9253 217.956 27.456 220.858 27.456H234.298V120Z" fill="#212121"/>
<path fill-rule="evenodd" clip-rule="evenodd" d="M74.7998 10C74.7998 15.5228 70.3227 20 64.7998 20C59.277 20 54.7998 15.5228 54.7998 10C54.7998 4.47715 59.277 0 64.7998 0C70.3227 0 74.7998 4.47715 74.7998 10ZM39.138 27.4561H2C0.895431 27.4561 0 28.3515 0 29.4561V37.3121C0 41.4081 1.23733 43.4561 3.712 43.4561H22.192C23.2966 43.4561 24.192 44.3515 24.192 45.4561V112.704C24.192 115.691 24.6187 117.653 25.472 118.592C26.4107 119.531 28.3307 120 31.232 120H39.138H44.672H57.954C64.6953 120 69.346 118.421 71.906 115.264C74.466 112.021 75.746 105.323 75.746 95.1681L75.7098 89.048C75.703 87.9071 76.6589 87 77.7998 87V87C78.5375 87 79.2565 86.98 79.9487 86.9421C81.0045 86.8843 81.964 87.6028 82.1442 88.6447C83.316 95.4173 84.3426 101.133 85.224 105.792C86.4187 112.192 87.784 116.16 89.32 117.696C90.9413 119.232 94.2693 120 99.304 120H117.48C120.381 120 122.259 119.531 123.112 118.592C124.051 117.653 124.52 115.691 124.52 112.704V29.4561C124.52 28.3515 123.625 27.4561 122.52 27.4561H111.208C109.843 27.4561 108.733 27.9254 107.88 28.8641C107.027 29.8027 106.6 31.0401 106.6 32.5761V105.278C106.6 106.495 105.404 107.507 104.528 106.663C104.34 106.483 104.178 106.278 104.04 106.048C103.613 105.109 102.803 100.885 101.608 93.3761C98.536 75.7974 96.2747 62.1867 94.824 52.5441C94.056 47.7654 93.4587 44.1387 93.032 41.6641C92.6907 39.6161 92.3493 37.8241 92.008 36.2881C91.752 34.7521 91.1973 33.1734 90.344 31.5521C89.576 29.8454 88.552 28.7361 87.272 28.2241C85.992 27.7121 84.2853 27.4561 82.152 27.4561H59.234H54.376H40.064H39.138ZM78.4482 82.0052C79.7561 82.0261 80.8145 80.8755 80.5967 79.5857C80.252 77.5449 79.897 75.4289 79.5316 73.2378C79.1402 70.8903 75.6423 71.1563 75.618 73.5361V73.5361L75.656 79.9579C75.6628 81.1004 76.6239 82.0009 77.7664 82C77.7775 82 77.7887 82 77.7998 82C78.0176 82 78.2338 82.0017 78.4482 82.0052ZM46.672 39.6161C45.5674 39.6161 44.672 40.5115 44.672 41.6161V105.84C44.672 106.945 45.5674 107.84 46.672 107.84H48.61C50.7433 107.84 52.1513 107.584 52.834 107.072C53.5167 106.56 53.858 105.579 53.858 104.128V43.4561C53.858 41.9201 53.5167 40.8961 52.834 40.3841C52.1513 39.8721 50.7433 39.6161 48.61 39.6161H46.672Z" fill="#212121"/>
</svg>
