<svg width="1900" height="3174" viewBox="0 0 1900 3174" fill="none" xmlns="http://www.w3.org/2000/svg">
<g clip-path="url(#clip0_10_2)">
<rect width="1900" height="3174" fill="#262324"/>
<path d="M749.5 456C567.167 348.667 251.646 375.799 192.5 131C173.24 51.2837 146.873 -10.8546 192.5 -79C251.637 -167.322 355.428 -110.444 460.5 -126.5C1030.25 -213.565 1453.05 -474.069 1936 -159.5C2654.93 308.776 2712.77 1692.95 1927 2037.5C1561.17 2197.91 705.79 2357.02 904.5 2010.5C962.265 1909.77 1020.5 1868.54 1113.5 1799C1329.82 1637.25 1652.82 1842.13 1776.5 1602C1822.69 1512.33 1828.39 1449.87 1828.5 1349C1828.69 1177.54 1802.74 1055.21 1679.5 936C1518.65 780.412 1309.8 953.958 1113.5 846.5C930.63 746.392 931.833 563.333 749.5 456Z" fill="#594943"/>
<path d="M791.347 411.738C608.989 299.343 293.425 327.754 234.27 71.4103C215.007 -12.0657 188.637 -77.1346 234.27 -148.494C293.415 -240.981 397.221 -181.421 502.307 -198.234C1072.13 -289.406 1494.99 -562.196 1978.01 -232.791C2697.04 257.571 2754.89 1707.03 1969.01 2067.83C1603.13 2235.8 747.631 2402.41 946.369 2039.55C1004.14 1934.07 1062.39 1890.9 1155.4 1818.08C1371.74 1648.7 1694.79 1863.24 1818.49 1611.79C1864.68 1517.89 1870.39 1452.48 1870.5 1346.86C1870.68 1167.31 1844.73 1039.21 1721.48 914.377C1560.61 751.451 1351.72 933.181 1155.4 820.656C972.503 715.826 973.706 524.134 791.347 411.738Z" fill="#484F73"/>
</g>
<defs>
<clipPath id="clip0_10_2">
<rect width="1900" height="3174" fill="white"/>
</clipPath>
</defs>
</svg>
