<svg width="1900" height="3174" viewBox="0 0 1900 3174" fill="none" xmlns="http://www.w3.org/2000/svg">
<g clip-path="url(#clip0_1_2)">
<rect width="1900" height="3174" fill="#32AFA8"/>
<path d="M749.5 456C567.167 348.667 251.646 375.799 192.5 131C173.24 51.2837 146.873 -10.8546 192.5 -79C251.637 -167.322 355.428 -110.444 460.5 -126.5C1030.25 -213.565 1453.05 -474.069 1936 -159.5C2654.93 308.776 2712.77 1692.95 1927 2037.5C1561.17 2197.91 705.79 2357.02 904.5 2010.5C962.265 1909.77 1020.5 1868.54 1113.5 1799C1329.82 1637.25 1652.82 1842.13 1776.5 1602C1822.69 1512.33 1828.39 1449.87 1828.5 1349C1828.69 1177.54 1802.74 1055.21 1679.5 936C1518.65 780.412 1309.79 953.958 1113.5 846.5C930.63 746.392 931.833 563.333 749.5 456Z" fill="#381D71"/>
<path d="M791.347 411.738C608.989 299.343 293.425 327.754 234.27 71.4103C215.007 -12.0657 188.637 -77.1346 234.27 -148.494C293.415 -240.981 397.221 -181.421 502.307 -198.234C1072.13 -289.406 1494.99 -562.196 1978.01 -232.791C2697.04 257.571 2754.89 1707.03 1969.01 2067.83C1603.13 2235.8 747.631 2402.41 946.369 2039.55C1004.14 1934.07 1062.39 1890.9 1155.4 1818.08C1371.74 1648.7 1694.79 1863.24 1818.49 1611.79C1864.68 1517.89 1870.39 1452.48 1870.5 1346.86C1870.68 1167.31 1844.73 1039.21 1721.48 914.377C1560.61 751.451 1351.72 933.181 1155.4 820.656C972.503 715.826 973.706 524.134 791.347 411.738Z" fill="#6040A5"/>
<path d="M312.5 1417C252.904 1380.84 246.292 1216.69 312.5 1238.5C341.632 1248.1 347.012 1271.69 370 1292C393.478 1312.74 422.719 1313.43 431.5 1343.5C441.67 1378.33 426.481 1412.33 394 1428.5C365.224 1442.82 339.98 1433.67 312.5 1417Z" fill="#F2AC57"/>
<path d="M554.5 1891.49C494.904 1855.33 488.292 1691.18 554.5 1712.99C583.632 1722.58 589.012 1746.18 612 1766.49C635.478 1787.23 664.719 1787.92 673.5 1817.99C683.67 1852.81 668.481 1886.82 636 1902.99C607.224 1917.31 581.98 1908.16 554.5 1891.49Z" fill="#6040A5"/>
<path d="M304.461 1444.48C240.76 1406.51 233.692 1234.19 304.461 1257.09C335.599 1267.16 341.35 1291.93 365.921 1313.25C391.016 1335.02 422.271 1335.75 431.657 1367.32C442.528 1403.88 426.292 1439.58 391.574 1456.55C360.817 1471.58 333.833 1461.98 304.461 1444.48Z" fill="#4EFCB1"/>
<path d="M546.461 1918.96C482.76 1881 475.692 1708.68 546.461 1731.57C577.599 1741.65 583.35 1766.42 607.921 1787.74C633.016 1809.51 664.271 1810.24 673.657 1841.8C684.528 1878.36 668.292 1914.06 633.574 1931.04C602.817 1946.07 575.833 1936.47 546.461 1918.96Z" fill="#6D76A6"/>
</g>
<defs>
<clipPath id="clip0_1_2">
<rect width="1900" height="3174" fill="white"/>
</clipPath>
</defs>
</svg>
