<svg width="232" height="275" viewBox="0 0 232 275" fill="none" xmlns="http://www.w3.org/2000/svg">
<path d="M214.04 274.389H220.64L207.14 198.199H200.54L214.04 274.389Z" fill="#263238"/>
<path d="M68.8799 274.389H75.4899L61.9899 198.199H55.3799L68.8799 274.389Z" fill="#263238"/>
<path opacity="0.3" d="M214.04 274.389H220.64L207.14 198.199H200.54L214.04 274.389Z" fill="white"/>
<path opacity="0.3" d="M68.8799 274.389H75.4899L61.9899 198.199H55.3799L68.8799 274.389Z" fill="white"/>
<path d="M11.4398 242.979L210.59 242.979V236.289L11.4398 236.289V242.979Z" fill="#263238"/>
<path opacity="0.5" d="M11.4398 242.979L210.59 242.979V236.289L11.4398 236.289V242.979Z" fill="white"/>
<path d="M153.14 274.389H146.54L160.04 198.199H166.64L153.14 274.389Z" fill="#263238"/>
<path d="M7.98988 274.389H1.37988L14.8799 198.199H21.4899L7.98988 274.389Z" fill="#263238"/>
<path opacity="0.3" d="M153.14 274.389H146.54L160.04 198.199H166.64L153.14 274.389Z" fill="white"/>
<path opacity="0.3" d="M7.98988 274.389H1.37988L14.8799 198.199H21.4899L7.98988 274.389Z" fill="white"/>
<path d="M67.8701 195.229H74.4401L85.4401 134.079H78.8701L67.8701 195.229Z" fill="#263238"/>
<path opacity="0.3" d="M67.8701 195.229H74.4401L85.4401 134.079H78.8701L67.8701 195.229Z" fill="white"/>
<path d="M198.36 195.229H204.93L215.93 134.079H209.36L198.36 195.229Z" fill="#263238"/>
<path d="M133.11 195.229H139.68L150.68 134.079H144.11L133.11 195.229Z" fill="#263238"/>
<path opacity="0.3" d="M198.36 195.229H204.93L215.93 134.079H209.36L198.36 195.229Z" fill="white"/>
<path opacity="0.3" d="M133.11 195.229H139.68L150.68 134.079H144.11L133.11 195.229Z" fill="white"/>
<path d="M56.52 138.259H229.09L231.15 126.819H58.58L56.52 138.259Z" fill="#263238"/>
<path d="M52.7998 158.96H225.37L227.43 147.52H54.8598L52.7998 158.96Z" fill="#263238"/>
<path d="M49.0698 179.659H221.64L223.7 168.219H51.1298L49.0698 179.659Z" fill="#263238"/>
<path d="M0.000183105 201.349L219.93 201.349V193.429L0.000183105 193.429V201.349Z" fill="#263238"/>
<path opacity="0.5" d="M56.52 138.259H229.09L231.15 126.819H58.58L56.52 138.259Z" fill="white"/>
<path opacity="0.5" d="M52.7998 158.96H225.37L227.43 147.52H54.8598L52.7998 158.96Z" fill="white"/>
<path opacity="0.5" d="M49.0698 179.659H221.64L223.7 168.219H51.1298L49.0698 179.659Z" fill="white"/>
<path opacity="0.5" d="M0.000183105 201.349L219.93 201.349V193.429L0.000183105 193.429V201.349Z" fill="white"/>
<path opacity="0.2" d="M0.000183105 201.349L165.93 201.349V193.429L0.000183105 193.429V201.349Z" fill="white"/>
<path d="M148.94 111.849C144.29 116.759 133.14 128.789 126.24 128.579C118.96 127.799 110.82 116.579 106.94 110.899C106.621 110.396 106.493 109.796 106.578 109.207C106.662 108.617 106.955 108.077 107.402 107.684C107.849 107.291 108.422 107.071 109.018 107.063C109.613 107.054 110.192 107.259 110.65 107.639C115.39 111.579 122.11 117.749 126.58 119.549C125.9 119.549 125.77 119.689 126.39 119.299C132.01 115.299 136.76 109.879 141.64 105.019C146.29 100.489 153.15 106.899 148.94 111.849V111.849Z" fill="#E9B376"/>
<path d="M146.4 102.889V117.219C146.4 117.219 143.4 119.739 139.65 122.519C137.79 123.909 135.76 125.359 133.86 126.589C130.97 128.469 128.37 129.849 127.05 129.769C123.11 129.529 114.56 123.419 114.56 123.419L120.18 114.059C120.18 114.059 126.64 118.009 127.05 118.279C127.46 118.549 141.01 102.979 146.4 102.889Z" fill="#219D68"/>
<path opacity="0.2" d="M139.65 122.519C137.79 123.909 135.76 125.359 133.86 126.589C134.31 118.369 138.18 115.209 138.18 115.209C139.309 117.473 139.816 119.996 139.65 122.519V122.519Z" fill="black"/>
<path d="M151.86 65.2094C144.96 70.8394 145.78 87.0394 153.53 97.6694C153.53 97.6694 170.09 99.0594 179.29 94.9394C188.49 90.8194 178.29 64.5894 168.6 62.5294C162.882 61.2779 156.902 62.2353 151.86 65.2094V65.2094Z" fill="#263238"/>
<path d="M152.27 82.0394C149.74 77.6794 147.27 65.9094 157.74 62.2794C170.87 57.7394 176.74 66.1094 177.89 74.4094C179.04 82.7094 174.35 88.9794 165.67 88.3594C156.99 87.7394 154.01 85.0594 152.27 82.0394Z" fill="#263238"/>
<path d="M138.17 115.21C136.89 121.28 139.17 135.58 139.51 146.36L170.43 149.919C170.43 146.539 171.06 141.639 173.08 133.849C174.23 129.289 175.89 123.729 178.16 116.909C178.49 115.909 178.84 114.91 179.16 113.8C179.567 112.729 179.729 111.582 179.636 110.441C179.543 109.3 179.196 108.195 178.621 107.205C178.046 106.215 177.258 105.366 176.313 104.72C175.368 104.073 174.291 103.646 173.16 103.469C171.86 103.259 170.48 103.08 169.07 102.94C164.095 102.315 159.082 102.051 154.07 102.149C152.44 102.199 150.74 102.32 149.12 102.46C143.35 102.95 139.35 109.53 138.17 115.21Z" fill="#263238"/>
<path d="M168.92 86.0493C167.37 90.7893 165.3 99.5193 168.26 102.889C168.26 102.889 163.74 101.969 153.75 107.429C151.16 103.269 153.31 102.099 153.31 102.099C158.84 101.099 159.2 97.0993 158.75 93.3693L168.92 86.0493Z" fill="#EBB376"/>
<path opacity="0.2" d="M164.78 89.0295L158.78 93.3595C158.899 94.2442 158.939 95.1377 158.9 96.0295C160.99 95.8395 164.09 93.7495 164.58 91.6295C164.805 90.7824 164.872 89.9012 164.78 89.0295Z" fill="black"/>
<path d="M170.99 74.9794C171.1 82.8894 171.31 86.2394 167.63 90.5794C162.11 97.1094 152.36 95.5094 149.89 87.7894C147.67 80.7894 147.89 69.0594 155.35 65.3494C156.995 64.5249 158.823 64.1342 160.661 64.2144C162.499 64.2946 164.286 64.843 165.853 65.8076C167.419 66.7722 168.714 68.1211 169.613 69.7262C170.512 71.3313 170.986 73.1396 170.99 74.9794Z" fill="#FFB573"/>
<path d="M164.28 67.5795C162.09 70.3295 167.08 78.9895 171.02 80.4595C178.67 77.9395 170.83 59.3695 164.28 67.5795Z" fill="#263238"/>
<path d="M154.91 63.8894C152 65.1694 149.27 70.6394 148.91 72.6794C153.24 73.0094 164.39 68.0094 164.39 68.0094C164.39 68.0094 172.24 69.4494 168.02 65.9094C163.8 62.3694 154.91 63.8894 154.91 63.8894Z" fill="#263238"/>
<path d="M157.83 78.1994C157.83 78.8394 157.58 79.3794 157.16 79.4194C156.74 79.4594 156.36 78.9494 156.31 78.3094C156.26 77.6694 156.57 77.1294 156.99 77.0894C157.41 77.0494 157.78 77.5594 157.83 78.1994Z" fill="#263238"/>
<path d="M150.58 78.7395C150.58 79.3795 150.33 79.9295 149.91 79.9595C149.49 79.9895 149.11 79.4995 149.06 78.8595C149.01 78.2195 149.32 77.6695 149.74 77.6395C150.16 77.6095 150.53 78.0995 150.58 78.7395Z" fill="#263238"/>
<path d="M149.92 77.6393L148.35 77.3093C148.35 77.3093 149.23 78.4693 149.92 77.6393Z" fill="#263238"/>
<path d="M153.66 79.5396C153.187 81.0459 152.515 82.482 151.66 83.8096C152.006 84.0169 152.392 84.1466 152.793 84.1898C153.193 84.2329 153.598 84.1885 153.98 84.0596L153.66 79.5396Z" fill="#ED893E"/>
<path d="M157.68 86.3095C157.371 86.3828 157.056 86.433 156.74 86.4595C156.689 86.4595 156.641 86.4395 156.605 86.4038C156.57 86.3682 156.55 86.3199 156.55 86.2695C156.55 86.2191 156.57 86.1708 156.605 86.1351C156.641 86.0995 156.689 86.0795 156.74 86.0795C157.541 86.0399 158.321 85.8107 159.017 85.4109C159.712 85.0111 160.303 84.4519 160.74 83.7795C160.751 83.7581 160.767 83.7393 160.786 83.7241C160.805 83.709 160.827 83.6978 160.85 83.6912C160.873 83.6847 160.898 83.6829 160.922 83.6861C160.946 83.6892 160.969 83.6972 160.99 83.7095C161.033 83.7329 161.065 83.7719 161.08 83.8185C161.095 83.865 161.091 83.9155 161.07 83.9595C160.692 84.559 160.197 85.0762 159.614 85.4799C159.032 85.8837 158.374 86.1659 157.68 86.3095V86.3095Z" fill="#263238"/>
<path d="M173.66 82.0395C173.45 82.7679 173.098 83.4476 172.624 84.0396C172.15 84.6316 171.565 85.1244 170.9 85.4895C169.12 86.4895 167.78 84.9595 167.9 83.0395C168.01 81.3195 169.07 78.7395 171.05 78.5595C171.481 78.532 171.912 78.6122 172.304 78.7929C172.696 78.9735 173.036 79.2489 173.295 79.5942C173.554 79.9395 173.723 80.3438 173.787 80.7707C173.851 81.1976 173.807 81.6336 173.66 82.0395V82.0395Z" fill="#FFB573"/>
<path d="M161.35 76.3193C161.272 76.335 161.19 76.3262 161.117 76.294C161.043 76.2618 160.982 76.2078 160.94 76.1393C160.04 74.6493 157.8 74.4693 157.78 74.4693C157.679 74.4627 157.585 74.4163 157.519 74.3403C157.452 74.2644 157.419 74.1651 157.425 74.0643C157.432 73.9635 157.478 73.8695 157.554 73.8029C157.63 73.7364 157.729 73.7027 157.83 73.7093C157.94 73.7093 160.49 73.9293 161.59 75.7093C161.642 75.7956 161.657 75.8987 161.632 75.9961C161.608 76.0936 161.546 76.1774 161.46 76.2293L161.35 76.3193Z" fill="#263238"/>
<path d="M148.91 75.3693C148.846 75.3849 148.779 75.3829 148.715 75.3635C148.652 75.3442 148.595 75.3082 148.55 75.2593C148.515 75.2248 148.487 75.1836 148.468 75.1381C148.448 75.0926 148.438 75.0437 148.438 74.9943C148.438 74.9449 148.448 74.896 148.468 74.8505C148.487 74.805 148.515 74.7638 148.55 74.7293C148.971 74.3022 149.49 73.9835 150.061 73.8007C150.632 73.6178 151.239 73.5761 151.83 73.6793C151.878 73.6905 151.923 73.711 151.963 73.7396C152.003 73.7683 152.037 73.8045 152.063 73.8463C152.089 73.8881 152.107 73.9346 152.115 73.9832C152.123 74.0317 152.121 74.0814 152.11 74.1293C152.099 74.1773 152.079 74.2225 152.05 74.2625C152.021 74.3025 151.985 74.3365 151.943 74.3625C151.901 74.3885 151.855 74.406 151.806 74.4141C151.758 74.4221 151.708 74.4205 151.66 74.4093V74.4093C151.191 74.3377 150.712 74.3783 150.262 74.5278C149.812 74.6773 149.403 74.9314 149.07 75.2693C149.025 75.3144 148.97 75.3485 148.91 75.3693V75.3693Z" fill="#263238"/>
<path d="M157.17 77.1196L155.6 76.7896C155.6 76.7896 156.48 77.9296 157.17 77.1196Z" fill="#263238"/>
<path d="M129.07 106.329L129.82 108.669C129.958 109.103 130.198 109.497 130.52 109.819C130.842 110.141 131.236 110.381 131.67 110.519L135.79 111.839C136.601 112.101 137.463 112.164 138.304 112.023C139.144 111.882 139.939 111.542 140.62 111.029L141.47 110.389C140.47 106.389 136.52 102.849 136.52 102.849L135.52 101.699C135.317 101.46 135.068 101.264 134.788 101.121C134.509 100.978 134.204 100.891 133.891 100.866C133.578 100.841 133.263 100.878 132.965 100.975C132.666 101.071 132.389 101.226 132.15 101.429L129.86 103.429C129.459 103.783 129.17 104.245 129.03 104.761C128.89 105.276 128.904 105.822 129.07 106.329V106.329Z" fill="#EBB376"/>
<path d="M101.35 108.469L102.1 110.819C102.241 111.253 102.484 111.647 102.807 111.969C103.13 112.29 103.526 112.53 103.96 112.669L108.07 113.989C108.881 114.249 109.743 114.31 110.583 114.17C111.423 114.029 112.217 113.689 112.9 113.179L113.76 112.539C112.76 108.539 108.76 104.989 108.76 104.989L107.76 103.849C107.557 103.608 107.308 103.409 107.028 103.264C106.747 103.12 106.441 103.032 106.126 103.007C105.812 102.982 105.495 103.02 105.196 103.118C104.896 103.216 104.619 103.373 104.38 103.579L102.09 105.579C101.702 105.939 101.425 106.403 101.294 106.915C101.163 107.428 101.182 107.968 101.35 108.469Z" fill="#EBB376"/>
<path opacity="0.2" d="M161.15 121.03C163.15 126.89 168.22 131.26 173.08 133.85C174.23 129.29 175.89 123.729 178.16 116.909C175.11 112.649 170.84 109.62 165.4 110.44C165.4 110.44 159.14 115.1 161.15 121.03Z" fill="black"/>
<path d="M51.4199 237.289L56.6399 239.399C56.6399 239.399 100.99 172.499 105.1 175.009C119.97 184.119 150.54 200.399 165.01 190.539C179.48 180.679 170.89 154.689 170.89 154.689C170.89 154.689 142.75 144.809 139.27 150.919C138.353 152.743 137.554 154.623 136.88 156.549C136.16 158.479 135.6 160.109 135.6 160.109C134.75 159.709 107.17 146.439 94.1799 151.909C80.9699 157.459 51.4199 237.289 51.4199 237.289Z" fill="#EBB376"/>
<path d="M147.6 194.11C147.6 194.11 133.65 195.02 114.54 188.53C114.54 188.53 109.83 241.81 106.66 270.73L100.26 269.83C100.26 269.83 89.3698 190.89 91.5198 181.27C93.6698 171.65 105.35 171.01 105.35 171.01C105.35 171.01 127.62 187.38 147.6 194.11Z" fill="#EBB376"/>
<path d="M147.6 194.11C138.182 194.224 128.793 193.057 119.69 190.64L121.51 183.06C128.54 187.71 138.35 190.54 147.6 194.11Z" fill="#219D68"/>
<path opacity="0.4" d="M147.6 194.11C138.182 194.224 128.793 193.057 119.69 190.64L121.51 183.06C128.54 187.71 138.35 190.54 147.6 194.11Z" fill="white"/>
<path d="M120.33 182.29L118.66 190.73L121.2 191.6L123.16 184.15L120.33 182.29Z" fill="#219D68"/>
<path opacity="0.6" d="M120.33 182.29L118.66 190.73L121.2 191.6L123.16 184.15L120.33 182.29Z" fill="white"/>
<path opacity="0.2" d="M93.8398 214.82C92.8398 193.82 92.3998 182.98 95.8398 178.65C98.1111 175.973 101.238 174.165 104.69 173.53C109.17 184.88 128.69 191.96 129.23 192.15C136.52 193.66 147.32 194.05 147.59 194.15C138.25 192.249 129.381 188.51 121.5 183.15C115.873 179.441 110.48 175.39 105.35 171.02C105.35 171.02 93.6998 171.65 91.5498 181.27C90.6698 185.21 91.9698 200.73 93.8098 217.72C93.8726 216.754 93.8827 215.786 93.8398 214.82V214.82Z" fill="black"/>
<path d="M46.2101 232.899C46.1419 232.741 46.1244 232.566 46.1603 232.397C46.1961 232.229 46.2834 232.076 46.4101 231.959C46.4911 231.857 46.5926 231.774 46.708 231.713C46.8234 231.653 46.9502 231.618 47.0801 231.609C47.7561 231.642 48.41 231.86 48.9701 232.239C48.4801 231.599 48.1001 230.909 48.2701 230.479C48.3801 230.199 48.6601 230.049 49.1101 230.049C49.3073 230.044 49.5034 230.081 49.6847 230.159C49.866 230.236 50.0282 230.353 50.1601 230.499C51.0301 231.449 50.8401 233.619 50.8401 233.719C50.8457 233.752 50.8457 233.786 50.8401 233.819C50.8444 233.836 50.8444 233.853 50.8401 233.869C50.817 233.874 50.7933 233.874 50.7701 233.869H50.6901C49.7555 233.891 48.821 233.82 47.9001 233.659C47.0701 233.569 46.4101 233.319 46.2101 232.899ZM47.1201 232.079C47.0531 232.081 46.9871 232.097 46.9267 232.126C46.8664 232.156 46.813 232.198 46.7701 232.249C46.5401 232.529 46.6001 232.659 46.6201 232.699C46.8601 233.179 48.5301 233.419 49.9401 233.459C49.1301 232.849 47.8601 232.009 47.1201 232.079ZM49.1201 230.509C48.9901 230.509 48.7601 230.509 48.7101 230.649C48.5701 231.019 49.4301 232.169 50.4001 233.169C50.4711 232.34 50.2673 231.511 49.8201 230.809C49.6946 230.667 49.5262 230.568 49.3402 230.529L49.1201 230.509Z" fill="#263238"/>
<path d="M94 265.26C93.8723 265.144 93.7828 264.992 93.7436 264.824C93.7043 264.656 93.717 264.48 93.78 264.32C93.8109 264.193 93.8678 264.075 93.947 263.971C94.0262 263.868 94.126 263.782 94.24 263.72C94.8712 263.455 95.564 263.371 96.24 263.48C95.52 263.11 94.89 262.65 94.86 262.19C94.86 261.89 95.05 261.64 95.43 261.44C95.6083 261.356 95.8029 261.312 96 261.312C96.197 261.312 96.3916 261.356 96.57 261.44C97.77 261.92 98.57 263.96 98.57 264.05C98.5793 264.086 98.5793 264.123 98.57 264.16C98.5631 264.191 98.5454 264.219 98.52 264.24L98.47 264.29C97.325 264.89 96.0823 265.283 94.8 265.45C94.5193 265.482 94.2363 265.414 94 265.26V265.26ZM94.48 264.12C94.4182 264.15 94.3637 264.193 94.3205 264.247C94.2773 264.3 94.2464 264.363 94.23 264.43C94.14 264.78 94.23 264.87 94.29 264.9C94.71 265.23 96.29 264.73 97.61 264.16C96.62 263.96 95.11 263.75 94.48 264.12ZM95.6 261.86C95.48 261.92 95.28 262.03 95.29 262.16C95.29 262.55 96.58 263.22 97.9 263.7C97.6031 262.926 97.0626 262.269 96.36 261.83C96.2528 261.782 96.137 261.759 96.02 261.76C95.874 261.759 95.7301 261.793 95.6 261.86V261.86Z" fill="#263238"/>
<path d="M59.9302 237.15C60.2202 236.49 51.9302 233.31 51.9302 233.31C51.9302 233.31 44.7002 236.05 39.3902 234.97C34.0802 233.89 35.3902 237.97 40.7902 240.45L54.0102 246.55C57.8602 248.3 56.9802 243.97 59.9302 237.15Z" fill="#263238"/>
<path d="M108.22 263.199C108.22 262.479 99.3899 263.149 99.3899 263.149C99.3899 263.149 94.0299 268.729 88.7799 270.029C83.5299 271.329 86.5099 274.459 92.3999 274.389L106.96 274.209C111.14 274.159 108.48 270.639 108.22 263.199Z" fill="#263238"/>
<path d="M170.89 154.689C170.89 154.689 142.75 144.809 139.27 150.919C138.357 152.745 137.559 154.625 136.88 156.549C136.16 158.479 135.6 160.109 135.6 160.109L133.29 159.049L123.87 187.179C138.87 195.499 160.04 196.459 168.72 190.549C183.16 180.689 170.89 154.689 170.89 154.689Z" fill="#219D68"/>
<g opacity="0.4">
<path d="M170.89 154.689C170.89 154.689 142.75 144.809 139.27 150.919C138.357 152.745 137.559 154.625 136.88 156.549C136.16 158.479 135.6 160.109 135.6 160.109L133.29 159.049L123.87 187.179C138.87 195.499 160.04 196.459 168.72 190.549C183.16 180.689 170.89 154.689 170.89 154.689Z" fill="white"/>
</g>
<path opacity="0.3" d="M135.6 160.109L151.83 166.999C151.83 166.999 143.5 159.999 136.83 156.549C136.16 158.479 135.6 160.109 135.6 160.109Z" fill="black"/>
<path d="M138.87 151.69L139.44 144.75L170.89 148.93L171.3 155.63L138.87 151.69Z" fill="#219D68"/>
<path opacity="0.4" d="M138.87 151.69L139.44 144.75L170.89 148.93L171.3 155.63L138.87 151.69Z" fill="white"/>
<path d="M139.5 145.429L141.15 145.669L140.64 151.079L139.28 150.919L139.5 145.429Z" fill="#263238"/>
<path d="M142.71 145.889L160.44 148.469L159.98 153.389L142.21 151.269L142.71 145.889Z" fill="#263238"/>
<path d="M170.89 154.689L161.54 153.579L162 148.699L170.44 149.919L170.89 154.689Z" fill="#263238"/>
<path opacity="0.2" d="M139.5 145.429L141.15 145.669L140.64 151.079L139.28 150.919L139.5 145.429Z" fill="black"/>
<path opacity="0.2" d="M142.71 145.889L160.44 148.469L159.98 153.389L142.21 151.269L142.71 145.889Z" fill="black"/>
<path opacity="0.2" d="M170.89 154.689L161.54 153.579L162 148.699L170.44 149.919L170.89 154.689Z" fill="black"/>
<path d="M152.1 153.1H151.91L146.86 152.43C146.673 152.405 146.493 152.344 146.33 152.249C146.167 152.155 146.024 152.029 145.91 151.88C145.793 151.731 145.707 151.561 145.657 151.379C145.608 151.197 145.595 151.007 145.62 150.82L146.07 147.44C146.091 147.245 146.15 147.056 146.245 146.884C146.339 146.713 146.467 146.562 146.62 146.44C146.923 146.21 147.303 146.109 147.68 146.16L152.73 146.83C152.917 146.853 153.098 146.913 153.263 147.007C153.427 147.101 153.57 147.226 153.686 147.376C153.801 147.526 153.885 147.697 153.934 147.879C153.983 148.062 153.995 148.252 153.97 148.44L153.52 151.82C153.483 152.171 153.317 152.495 153.055 152.732C152.793 152.968 152.453 153.099 152.1 153.1V153.1ZM147.49 147.18C147.396 147.18 147.304 147.212 147.23 147.27C147.139 147.341 147.078 147.445 147.06 147.56L146.62 150.94C146.61 150.996 146.613 151.053 146.626 151.108C146.64 151.163 146.665 151.215 146.7 151.26C146.772 151.351 146.875 151.412 146.99 151.43L152.04 152.1C152.155 152.114 152.271 152.082 152.363 152.011C152.455 151.939 152.515 151.835 152.53 151.72L152.98 148.34C152.992 148.225 152.96 148.111 152.89 148.02C152.818 147.928 152.715 147.868 152.6 147.85L147.55 147.18H147.49Z" fill="white"/>
<path d="M152.35 150.419H152.27L150.49 150.129C150.425 150.12 150.363 150.097 150.307 150.063C150.251 150.029 150.203 149.984 150.164 149.931C150.126 149.878 150.099 149.818 150.085 149.754C150.07 149.69 150.068 149.624 150.08 149.559C150.102 149.429 150.174 149.313 150.28 149.234C150.386 149.156 150.519 149.122 150.65 149.139L152.43 149.429C152.562 149.44 152.685 149.503 152.772 149.604C152.858 149.705 152.9 149.837 152.89 149.969C152.879 150.102 152.816 150.225 152.715 150.311C152.614 150.398 152.482 150.44 152.35 150.429V150.419Z" fill="white"/>
<path d="M131.93 157.099L134.55 158.479L125.66 188.699L121.93 187.959L131.93 157.099Z" fill="#219D68"/>
<path opacity="0.6" d="M131.93 157.099L134.55 158.479L125.66 188.699L121.93 187.959L131.93 157.099Z" fill="white"/>
<path d="M129.83 126.639H107.83C107.412 126.632 107.01 126.471 106.702 126.187C106.395 125.903 106.202 125.516 106.16 125.099L103.09 95.8495C103.069 95.6539 103.089 95.456 103.15 95.2689C103.211 95.0819 103.311 94.9099 103.444 94.7643C103.576 94.6187 103.738 94.5029 103.918 94.4245C104.098 94.3461 104.293 94.3069 104.49 94.3094H126.49C126.91 94.3169 127.312 94.4776 127.622 94.7613C127.931 95.0449 128.126 95.432 128.17 95.8495L131.23 125.099C131.253 125.295 131.234 125.494 131.173 125.682C131.113 125.869 131.013 126.042 130.881 126.188C130.748 126.334 130.586 126.45 130.404 126.528C130.223 126.606 130.027 126.644 129.83 126.639Z" fill="#263238"/>
<path opacity="0.6" d="M129.83 126.639H107.83C107.412 126.632 107.01 126.471 106.702 126.187C106.395 125.903 106.202 125.516 106.16 125.099L103.09 95.8495C103.069 95.6539 103.089 95.456 103.15 95.2689C103.211 95.0819 103.311 94.9099 103.444 94.7643C103.576 94.6187 103.738 94.5029 103.918 94.4245C104.098 94.3461 104.293 94.3069 104.49 94.3094H126.49C126.91 94.3169 127.312 94.4776 127.622 94.7613C127.931 95.0449 128.126 95.432 128.17 95.8495L131.23 125.099C131.253 125.295 131.234 125.494 131.173 125.682C131.113 125.869 131.013 126.042 130.881 126.188C130.748 126.334 130.586 126.45 130.404 126.528C130.223 126.606 130.027 126.644 129.83 126.639Z" fill="white"/>
<path opacity="0.2" d="M128.91 126.639H107.8C107.381 126.632 106.98 126.471 106.672 126.187C106.364 125.903 106.171 125.516 106.13 125.099L103.06 95.8495C103.039 95.6539 103.059 95.456 103.12 95.2689C103.181 95.0819 103.281 94.9099 103.413 94.7643C103.546 94.6187 103.707 94.5029 103.888 94.4245C104.068 94.3461 104.263 94.3069 104.46 94.3094H125.57C125.989 94.3172 126.39 94.4782 126.698 94.7621C127.005 95.0459 127.198 95.4328 127.24 95.8495L130.35 125.049C130.381 125.253 130.367 125.46 130.308 125.657C130.249 125.854 130.147 126.036 130.009 126.188C129.871 126.34 129.701 126.46 129.511 126.538C129.32 126.616 129.115 126.651 128.91 126.639V126.639Z" fill="white"/>
<path d="M116.06 108.03C115.755 108.025 115.452 108.085 115.171 108.207C114.891 108.328 114.64 108.508 114.435 108.734C114.229 108.96 114.075 109.227 113.981 109.518C113.887 109.809 113.856 110.116 113.89 110.42C113.951 111.068 114.249 111.671 114.727 112.114C115.205 112.556 115.829 112.808 116.48 112.82C116.786 112.823 117.089 112.761 117.369 112.639C117.649 112.516 117.9 112.335 118.106 112.108C118.311 111.881 118.465 111.614 118.559 111.322C118.653 111.031 118.684 110.724 118.65 110.42C118.001 110.406 117.379 110.155 116.902 109.715C116.425 109.275 116.126 108.675 116.06 108.03Z" fill="#263238"/>
<path opacity="0.3" d="M120.83 96.5795H109.19C108.904 96.5737 108.625 96.4882 108.385 96.3328C108.145 96.1774 107.952 95.9581 107.83 95.6995L107.13 94.2595H122.49L122.04 95.6995C121.962 95.958 121.801 96.1837 121.583 96.3426C121.364 96.5014 121.1 96.5846 120.83 96.5795V96.5795Z" fill="black"/>
<path d="M177.01 163.509H172.92C172.92 163.509 167.81 148.169 164.83 135.169C163.998 131.731 163.361 128.249 162.92 124.739C162.493 120.851 162.833 116.917 163.92 113.159C164.95 109.442 166.711 105.968 169.1 102.939L168.27 102.889C176.01 102.809 180.19 105.489 180.71 110.309C181.23 115.129 172.71 143.729 172.27 147.549C171.83 151.369 177.01 163.509 177.01 163.509Z" fill="#219D68"/>
<path d="M150.59 102.349C150.59 102.349 142.4 115.249 140.21 120.729C138.02 126.209 139.28 141.909 139.28 141.909C139.28 141.909 135.09 123.019 137.78 113.659C140.47 104.299 145.14 102.379 150.59 102.349Z" fill="#219D68"/>
<path d="M178.63 113.98C174.32 120.16 164.03 134.67 155.17 131.27C150.5 129.14 147.17 125.27 144.08 121.52C141.388 118.128 138.976 114.523 136.87 110.74C136.527 110.207 136.399 109.564 136.514 108.941C136.628 108.318 136.975 107.762 137.485 107.386C137.994 107.011 138.628 106.843 139.257 106.918C139.886 106.993 140.463 107.304 140.87 107.79C143.71 110.74 146.67 113.7 149.62 116.44C152.19 118.76 155.49 121.78 158.47 122.87C158.262 122.774 158.038 122.716 157.81 122.7C157.64 122.7 157.68 122.7 157.81 122.59C162.81 119.17 166.65 113.29 170.36 108.4C174.22 103.07 182.13 108.4 178.65 113.98H178.63Z" fill="#E9B376"/>
<path opacity="0.2" d="M177.55 117.639C177.55 117.639 170.35 129.919 164.83 135.129C163.998 131.691 163.361 128.209 162.92 124.699C162.493 120.811 162.833 116.877 163.92 113.119L169.62 108.419C172.45 106.089 177.55 117.639 177.55 117.639Z" fill="black"/>
<path d="M178.06 106.319C181.83 108.319 180.69 113.789 175.75 120.249C170.81 126.709 161.87 135.439 157.17 133.849C152.47 132.259 147.17 126.009 147.17 126.009L150.6 116.329C150.6 116.329 157.33 121.439 158.73 121.179C160.13 120.919 166.99 112.039 168.97 109.289C170.95 106.539 173.97 104.109 178.06 106.319Z" fill="#219D68"/>
<path d="M107.78 106.889L107.64 108.809C107.6 109.305 107.394 109.773 107.054 110.136C106.715 110.499 106.262 110.736 105.77 110.809L103.16 111.199L103.78 104.199L105.96 104.579C106.496 104.67 106.979 104.957 107.316 105.384C107.652 105.81 107.818 106.347 107.78 106.889Z" fill="#FFB573"/>
<path d="M178.58 0H149.85C147.503 0 145.252 0.93242 143.592 2.59212C141.932 4.25181 141 6.50284 141 8.85001V33.85C141 36.1972 141.932 38.4482 143.592 40.1079C145.252 41.7676 147.503 42.7 149.85 42.7H161.21L164.21 50.59L167.21 42.7H178.57C179.732 42.7 180.882 42.471 181.955 42.0261C183.028 41.5813 184.003 40.9292 184.824 40.1073C185.645 39.2854 186.296 38.3097 186.74 37.236C187.184 36.1623 187.411 35.0117 187.41 33.85V8.85001C187.411 7.68912 187.184 6.53934 186.741 5.46632C186.298 4.3933 185.648 3.41805 184.828 2.59625C184.008 1.77445 183.034 1.12221 181.962 0.676743C180.89 0.231278 179.741 0.00131248 178.58 0Z" fill="#219D68"/>
<path opacity="0.7" d="M178.58 0H149.85C147.503 0 145.252 0.93242 143.592 2.59212C141.932 4.25181 141 6.50284 141 8.85001V33.85C141 36.1972 141.932 38.4482 143.592 40.1079C145.252 41.7676 147.503 42.7 149.85 42.7H161.21L164.21 50.59L167.21 42.7H178.57C179.732 42.7 180.882 42.471 181.955 42.0261C183.028 41.5813 184.003 40.9292 184.824 40.1073C185.645 39.2854 186.296 38.3097 186.74 37.236C187.184 36.1623 187.411 35.0117 187.41 33.85V8.85001C187.411 7.68912 187.184 6.53934 186.741 5.46632C186.298 4.3933 185.648 3.41805 184.828 2.59625C184.008 1.77445 183.034 1.12221 181.962 0.676743C180.89 0.231278 179.741 0.00131248 178.58 0Z" fill="white"/>
<path d="M162.72 27.6101C162.53 27.6105 162.342 27.5696 162.169 27.4902C161.997 27.4108 161.843 27.2947 161.72 27.1501L156.12 20.5601C155.895 20.2949 155.784 19.951 155.812 19.604C155.84 19.2571 156.005 18.9355 156.27 18.7101C156.535 18.4846 156.879 18.3738 157.226 18.4019C157.573 18.4301 157.895 18.5949 158.12 18.8601L162.72 24.2801L170.31 15.2801C170.536 15.0149 170.857 14.8501 171.204 14.8219C171.551 14.7938 171.895 14.9046 172.16 15.1301C172.425 15.3555 172.59 15.6771 172.618 16.024C172.646 16.371 172.536 16.7149 172.31 16.9801L163.72 27.1501C163.596 27.2937 163.442 27.409 163.27 27.4884C163.097 27.5677 162.91 27.6092 162.72 27.6101Z" fill="white"/>
<path d="M174.293 31.3223C179.861 25.7535 179.861 16.7246 174.292 11.1557C168.724 5.5868 159.695 5.58679 154.126 11.1557C148.557 16.7245 148.557 25.7535 154.126 31.3224C159.695 36.8912 168.724 36.8912 174.293 31.3223Z" fill="#219D68"/>
</svg>
