<svg width="318" height="94" viewBox="0 0 318 94" fill="none" xmlns="http://www.w3.org/2000/svg">
<path d="M0.2 0.455994H40.264C41.6293 0.455994 42.7387 0.925329 43.592 1.864C44.4453 2.80266 44.872 4.04 44.872 5.576V93H31.432C28.5307 93 26.6107 92.5307 25.672 91.592C24.8187 90.6533 24.392 88.6907 24.392 85.704V16.456H3.912C1.43733 16.456 0.2 14.408 0.2 10.312V0.455994ZM49.992 0.455994H70.472C72.9467 0.455994 74.184 2.504 74.184 6.6V16.456H49.992V0.455994ZM167.248 46.536L167.376 68.168C167.376 78.3227 166.096 85.0213 163.536 88.264C160.976 91.4213 156.325 93 149.584 93H130.768V80.84H140.24C142.373 80.84 143.781 80.584 144.464 80.072C145.147 79.56 145.488 78.5787 145.488 77.128V16.456C145.488 14.92 145.147 13.896 144.464 13.384C143.781 12.872 142.373 12.616 140.24 12.616H130.768V0.455994H150.864C157.093 0.455994 161.403 1.90666 163.792 4.808C166.267 7.624 167.504 13.1707 167.504 21.448L167.248 46.536ZM126.928 93.128H113.488C110.672 93.128 108.795 92.6587 107.856 91.72C106.917 90.696 106.448 88.7333 106.448 85.832V7.752C106.448 4.85066 106.917 2.93066 107.856 1.992C108.795 0.967995 110.672 0.455994 113.488 0.455994H126.928V93.128ZM211.31 12.616H199.406C198.041 12.616 197.358 12.9573 197.358 13.64V93H183.918C181.017 93 179.097 92.5307 178.158 91.592C177.305 90.6533 176.878 88.6907 176.878 85.704V7.752C176.878 4.76533 177.305 2.80266 178.158 1.864C179.097 0.925329 181.017 0.455994 183.918 0.455994H211.31V12.616ZM216.43 0.455994H229.87C232.771 0.455994 234.649 0.925329 235.502 1.864C236.441 2.80266 236.91 4.76533 236.91 7.752V85.576C236.91 88.5627 236.441 90.568 235.502 91.592C234.563 92.5307 232.686 93 229.87 93H216.43V50.12H202.478V37.96H216.43V0.455994ZM317.08 0.455994V85.704C317.08 88.6907 316.611 90.6533 315.672 91.592C314.819 92.5307 312.941 93 310.04 93H291.864C286.829 93 283.501 92.232 281.88 90.696C280.344 89.16 278.979 85.192 277.784 78.792C275.395 66.1627 271.939 45.768 267.416 17.608C267.075 15.4747 266.563 14.1093 265.88 13.512C265.283 12.9147 264.216 12.5733 262.68 12.488H246.936V0.455994H274.712C276.845 0.455994 278.552 0.711995 279.832 1.224C281.112 1.736 282.136 2.84533 282.904 4.55199C283.757 6.17333 284.312 7.75199 284.568 9.28799C284.909 10.824 285.251 12.616 285.592 14.664C286.019 17.1387 286.616 20.7653 287.384 25.544C288.835 35.1867 291.096 48.7973 294.168 66.376C295.363 73.8853 296.173 78.1093 296.6 79.048C297.112 79.9013 297.965 80.4133 299.16 80.584V5.576C299.16 4.04 299.587 2.80266 300.44 1.864C301.293 0.925329 302.403 0.455994 303.768 0.455994H317.08ZM246.936 16.968H260.248C261.613 16.968 262.723 17.4373 263.576 18.376C264.429 19.3147 264.856 20.552 264.856 22.088V85.704C264.856 88.6053 264.472 90.568 263.704 91.592C262.936 92.5307 261.4 93 259.096 93H246.936V16.968Z" fill="#ED7E40"/>
<path d="M96.498 93H83.058C80.1567 93 78.2367 92.5307 77.298 91.592C76.4447 90.6533 76.018 88.6907 76.018 85.704V7.752C76.018 4.76533 76.4447 2.80266 77.298 1.864C78.2367 0.925329 80.1567 0.455994 83.058 0.455994H96.498V93Z" fill="#AF5D2F"/>
</svg>
