<svg width="452" height="100" viewBox="0 0 452 100" fill="none" xmlns="http://www.w3.org/2000/svg">
<path fill-rule="evenodd" clip-rule="evenodd" d="M0 14C0 9.02944 4.02944 5 9 5H111C115.971 5 120 9.02944 120 14V90C120 94.9706 115.971 99 111 99H9C4.02944 99 0 94.9706 0 90V14ZM12.3741 20.7591C15.6343 19.611 16.5787 20.2807 16.6434 20.7591C18.5091 20.7591 22.7188 20.6264 28.4445 20.191L28.7805 21.2244V23.5651V26.446L28 29.3269L28.7805 31.4875V34.9086V39.7805H28.7562L24.8781 40.3659L21.3878 40.7561L21 42.122L21.3878 43.878L22.1634 45.6341H25.8476H28.3684L29.2355 45.4706L29.3659 46.072V49.313V53.0942L28.7805 55.0748V61.3767V64.7978L28.971 65.9697C28.6856 66.5596 28.2577 67.6173 28.124 68.6049C28.1146 68.6747 28.1051 68.7428 28.0959 68.8092C27.9136 70.1237 27.8168 70.8214 29.4964 71.6831C30.1869 72.0374 30.5471 72.059 30.8238 71.9214L31.122 72L32.878 71.6399L34.6341 70.9197V70.7778H36.1624C36.8813 71.0796 38.7504 71.5021 40.4757 70.7778C42.2011 70.0535 43.1552 70.2346 43.4166 70.4156L47.3378 70.2346H51.063L54.6002 70.0861C54.6502 71.0451 54.6783 72.062 54.6783 73.1411V81.5724C54.6783 83.047 54.604 84.0404 54.535 84.9621V84.9622C54.4109 86.6194 54.3042 88.0447 54.6783 91.6183C55.1441 96.0672 56.0367 95.3855 56.4248 94.4885C56.8129 95.3257 58.2101 97 60.6941 97C61.6255 96.5695 62.1171 95.1463 62.2465 94.4885L60.6941 89.2862L59.5297 81.5724V75.4731C59.7528 74.4079 60.104 72.3868 60.3624 70.0704L64.9832 70.2346L67.728 69.3292C69.0351 69.1481 72.5903 68.7498 76.3546 68.6049C80.119 68.4601 80.668 68.4239 80.4719 68.4239L84.7852 67.6996C85.8309 67.7599 88.4319 67.7358 90.4709 67.1564C92.5099 66.577 91.7126 66.6735 91.0591 66.7942L92.8236 66.251L93.4118 65.4489L94 63.716V62.8107L93.2158 61.5432L91.0591 61H87.9221L83.2167 61.5432H76.9428L71.061 62.2675L67.1398 63.1728C66.122 63.2903 63.8163 63.4993 60.6941 63.6712V59.328L62.2465 49.2821L62.4816 47H63.2715H67.3435L68.313 46.2195H71.0277L74.7119 45.0488H77.8144L81.6925 45.6341L86.5402 45.0488L90.2244 45.6341L91 43.878V42.122L89.4488 40.7561L88.0914 40.3659L84.9889 39.7805H82.856L80.723 39.1951H77.6205L75.6814 39.7805H73.1607H70.0582L66.9557 39L64.6288 39.7805H63.2254L63.4108 37.9805V35.1103L65.9336 27.9347V22.7323C65.9336 20.9982 69.0385 17.8529 81.458 19.1445C82.2582 19.2118 82.9494 19.2678 83.5541 19.3169L83.5547 19.3169L83.5547 19.3169C85.8075 19.4996 86.8618 19.5851 87.8921 19.7906C88.7984 19.9713 89.6862 20.2449 91.3549 20.7591C93.8154 21.5173 95.144 20.9021 97.989 19.5849C99.8559 18.7204 102.376 17.5537 106.297 16.2743C107.054 16.2277 107.679 16.2901 108.293 16.3514C110.04 16.5258 111.692 16.6907 116 14.301C114.253 13.0453 111.731 12.3277 104.745 10.7132C99.1559 9.42155 99.958 10.175 101.058 10.7132C100.087 10.7132 97.4094 11.0361 94.4598 12.3277C92.4766 13.1961 91.7847 12.6632 90.9044 11.9853C90.1481 11.4028 89.2526 10.7132 87.2797 10.7132H82.6224C80.9406 11.2514 76.7231 12.3277 73.3077 12.3277H65.9336H51.5734L34.3428 13.4026L34.0488 11.1413L34.6341 7.72022L32.878 7H31.122L29.7561 8.44044L29.3659 9.70083L28.7805 12.5817V13.7496L19.9423 14.301C18.4545 14.301 14.1206 13.9063 8.68706 12.3277C5.73741 11.8972 5.90559 13.4638 6.35839 14.301L5 17.53C5.19406 18.1878 6.94056 19.7545 12.3741 20.7591ZM53.908 63.8737C53.6347 62.2906 53.3307 60.9523 53.0708 59.8079C52.4616 57.126 52.0944 55.5093 52.9318 54.3051C54.329 52.2959 54.6783 49.0429 54.6783 47.6676V46.6098H50.4737H47.3712L39.615 45.6341L36.1247 45.0488H35.6098V47.5125L34.6341 54.7147L34.0488 57.9557V59.7562V62.277L34.5736 64.8599C35.4956 65.1383 37.2912 65.3442 38.3191 64.2593C41.6129 62.2313 43.2206 61.9657 43.6127 62.0864C43.0899 62.3278 42.6324 62.8831 44.9851 63.1728C47.3378 63.4626 48.1874 64.0178 48.3181 64.2593C48.3181 64.0782 48.7887 63.716 50.6708 63.716C51.9008 63.716 52.4877 63.7655 53.048 63.8128C53.3179 63.8355 53.5816 63.8577 53.908 63.8737ZM34.0488 22.1247V19.7067C35.7363 19.5436 37.5074 19.3572 39.3479 19.1445H46.3339H52.9318C54.0962 19.6827 56.0755 24.4186 54.6783 39.0569V39.7805H51.831L48.9224 40.3659H45.4321H41.3601L39.2271 39.7805H35.6098V36.349L36 33.8283V32.7479V28.9668L35.2195 28.0665V25.5457L34.0488 22.1247Z" fill="#012030"/>
<path d="M125.2 6.45599H165.264C166.629 6.45599 167.739 6.92533 168.592 7.864C169.445 8.80266 169.872 10.04 169.872 11.576V99H156.432C153.531 99 151.611 98.5307 150.672 97.592C149.819 96.6533 149.392 94.6907 149.392 91.704V22.456H128.912C126.437 22.456 125.2 20.408 125.2 16.312V6.45599ZM174.992 6.45599H195.472C197.947 6.45599 199.184 8.504 199.184 12.6V22.456H174.992V6.45599ZM292.248 52.536L292.376 74.168C292.376 84.3227 291.096 91.0213 288.536 94.264C285.976 97.4213 281.325 99 274.584 99H255.768V86.84H265.24C267.373 86.84 268.781 86.584 269.464 86.072C270.147 85.56 270.488 84.5787 270.488 83.128V22.456C270.488 20.92 270.147 19.896 269.464 19.384C268.781 18.872 267.373 18.616 265.24 18.616H255.768V6.45599H275.864C282.093 6.45599 286.403 7.90666 288.792 10.808C291.267 13.624 292.504 19.1707 292.504 27.448L292.248 52.536ZM251.928 99.128H238.488C235.672 99.128 233.795 98.6587 232.856 97.72C231.917 96.696 231.448 94.7333 231.448 91.832V13.752C231.448 10.8507 231.917 8.93066 232.856 7.992C233.795 6.96799 235.672 6.45599 238.488 6.45599H251.928V99.128ZM336.31 18.616H324.406C323.041 18.616 322.358 18.9573 322.358 19.64V99H308.918C306.017 99 304.097 98.5307 303.158 97.592C302.305 96.6533 301.878 94.6907 301.878 91.704V13.752C301.878 10.7653 302.305 8.80266 303.158 7.864C304.097 6.92533 306.017 6.45599 308.918 6.45599H336.31V18.616ZM341.43 6.45599H354.87C357.771 6.45599 359.649 6.92533 360.502 7.864C361.441 8.80266 361.91 10.7653 361.91 13.752V91.576C361.91 94.5627 361.441 96.568 360.502 97.592C359.563 98.5307 357.686 99 354.87 99H341.43V56.12H327.478V43.96H341.43V6.45599ZM442.08 6.45599V91.704C442.08 94.6907 441.611 96.6533 440.672 97.592C439.819 98.5307 437.941 99 435.04 99H416.864C411.829 99 408.501 98.232 406.88 96.696C405.344 95.16 403.979 91.192 402.784 84.792C400.395 72.1627 396.939 51.768 392.416 23.608C392.075 21.4747 391.563 20.1093 390.88 19.512C390.283 18.9147 389.216 18.5733 387.68 18.488H371.936V6.45599H399.712C401.845 6.45599 403.552 6.712 404.832 7.224C406.112 7.736 407.136 8.84533 407.904 10.552C408.757 12.1733 409.312 13.752 409.568 15.288C409.909 16.824 410.251 18.616 410.592 20.664C411.019 23.1387 411.616 26.7653 412.384 31.544C413.835 41.1867 416.096 54.7973 419.168 72.376C420.363 79.8853 421.173 84.1093 421.6 85.048C422.112 85.9013 422.965 86.4133 424.16 86.584V11.576C424.16 10.04 424.587 8.80266 425.44 7.864C426.293 6.92533 427.403 6.45599 428.768 6.45599H442.08ZM371.936 22.968H385.248C386.613 22.968 387.723 23.4373 388.576 24.376C389.429 25.3147 389.856 26.552 389.856 28.088V91.704C389.856 94.6053 389.472 96.568 388.704 97.592C387.936 98.5307 386.4 99 384.096 99H371.936V22.968Z" fill="#012030"/>
<path d="M221.498 99H208.058C205.157 99 203.237 98.5307 202.298 97.592C201.445 96.6533 201.018 94.6907 201.018 91.704V13.752C201.018 10.7653 201.445 8.80266 202.298 7.864C203.237 6.92533 205.157 6.45599 208.058 6.45599H221.498V99Z" fill="#0D5F89"/>
</svg>
