<svg width="400" height="400" viewBox="0 0 400 400" fill="none" xmlns="http://www.w3.org/2000/svg">
<circle cx="200" cy="200" r="199.5" stroke="black"/>
<path d="M79 127.988C87.4 124.788 89.8333 126.655 90 127.988C97.5 127.988 119.7 127.088 148.5 123.488H166.5H183.5C186.5 124.988 191.6 138.188 188 178.988V202.988C188 206.821 187.1 215.888 183.5 221.488C179 228.488 188 240.488 188 273.988V297.488C188 308.988 186.5 309.988 188 325.488C189.2 337.888 191.5 335.988 192.5 333.488C193.5 335.821 197.1 340.488 203.5 340.488C205.9 339.288 207.167 335.321 207.5 333.488L203.5 318.988L200.5 297.488V280.488C201.5 275.321 203.5 262.088 203.5 250.488V235.488L207.5 207.488L210.5 175.988V167.988L217 147.988V133.488C217 128.654 225 119.888 257 123.488C273.5 124.988 272 124.488 282.5 127.988C293 131.488 295.5 124.488 321 115.488C328.5 114.988 331 118.988 346 109.988C341.5 106.488 335 104.488 317 99.9878C302.6 96.3877 304.667 98.4878 307.5 99.9878C305 99.9878 298.1 100.888 290.5 104.488C281 108.988 283 99.9878 272 99.9878H260C255.667 101.488 244.8 104.488 236 104.488H217H180L98.5 109.988C94.6667 109.988 83.5 108.888 69.5 104.488C61.9 103.288 62.3333 107.654 63.5 109.988L60 118.988C60.5 120.821 65 125.188 79 127.988Z" fill="#AF5818"/>
<path d="M270 195.5L279.5 197L281.5 192.5V188L277.5 184.5L274 183.5L266 182H260.5L255 180.5H247L242 182H235.5H227.5L219.5 180L213.5 182H204H180.5L173 183.5H164H153.5L148 182H130.5H121L111 183.5L102 184.5L101 188L102 192.5L104 197H113.5H120L128 195.5H135H140L149 197L169 199.5H177H200L207 200.5H210H220.5L223 198.5H230L239.5 195.5H247.5L257.5 197L270 195.5Z" fill="#AF5818"/>
<path d="M134.5 101.5L136 92L131.5 90H127L123.5 94L122.5 97.5L121 105.5V111L119.5 116.5V124.5L121 129.5V136V144L119 152L121 158V167.5V191L122.5 198.5V207.5V218L121 223.5V241V250.5L122.5 260.5L123.5 269.5L127 270.5L131.5 269.5L136 267.5V258V251.5L134.5 243.5V236.5V231.5L136 222.5L138.5 202.5V194.5V171.5L139.5 164.5V161.5V151L137.5 148.5V141.5L134.5 132V124L136 114L134.5 101.5Z" fill="#AF5818"/>
<path d="M135.316 250.5L121.816 253C121.15 254.333 119.716 257.8 119.316 261C118.816 265 118.316 267 122.816 269.5C127.316 272 126.316 268.5 130.316 267C133.516 265.8 134.983 266.5 135.316 267H139.816C141.65 267.833 146.416 269 150.816 267C155.216 265 157.65 265.5 158.316 266L168.316 265.5H177.816L188.816 265H200.316L213.316 265.5L220.316 263C223.65 262.5 232.716 261.4 242.316 261C251.916 260.6 253.316 260.5 252.816 260.5L263.816 258.5C266.483 258.667 273.116 258.6 278.316 257C283.516 255.4 281.483 255.667 279.816 256L284.316 254.5L285.816 252.285L287.316 247.5V245L285.316 241.5L279.816 240H271.816L259.816 241.5H243.816L228.816 243.5L218.816 246C214.816 246.5 203.016 247.6 187.816 248C182.816 248 182.816 247.5 176.816 247.5C172.016 247.5 170.816 248.5 170.816 249C170.483 248.333 168.316 246.8 162.316 246C156.316 245.2 157.483 243.667 158.816 243C157.816 242.667 153.716 243.4 145.316 249C142.516 252.2 137.483 251.333 135.316 250.5Z" fill="#AF5818"/>
</svg>
