<svg width="127" height="147" viewBox="0 0 127 147" fill="none" xmlns="http://www.w3.org/2000/svg">
<path d="M106 21H68.5001V147H44.5001V21H1.00012C1.00012 21 0.549991 14.3355 2.00009 10.5C3.22953 7.2481 6 5 8.5 3.5C11 2 18 0.5 21.5 0.5C25 0.5 106 0 106 0L106 21Z" fill="#273949"/>
<path d="M127 84C127 89.6 124.9 94.5 120.7 98.7C116.5 102.9 111.6 105 106 105H25.0001V63V21H1.00012C1.00012 21 0.549991 14.3355 2.00009 10.5C3.22953 7.2481 6 5 8.5 3.5C11 2 18 0.5 21.5 0.5C25 0.5 106 0 106 0C111.6 0 116.5 2.09999 120.7 6.29999C124.9 10.5 127 15.4 127 21V84ZM103 84V21H25.0001V63V105L43.0001 84H103Z" fill="#273949"/>
</svg>
