<svg width="407" height="302" viewBox="0 0 407 302" fill="none" xmlns="http://www.w3.org/2000/svg">
<path d="M406.9 272.49H373.78V272.74H406.9V272.49Z" fill="#EBEBEB"/>
<path d="M288.22 275.21H279.53V275.46H288.22V275.21Z" fill="#EBEBEB"/>
<path d="M372.78 263.21H353.59V263.46H372.78V263.21Z" fill="#EBEBEB"/>
<path d="M52.65 264.89H9.45996V265.14H52.65V264.89Z" fill="#EBEBEB"/>
<path d="M67.8901 264.89H61.5601V265.14H67.8901V264.89Z" fill="#EBEBEB"/>
<path d="M182.15 269.11H88.4702V269.36H182.15V269.11Z" fill="#EBEBEB"/>
<path d="M38.5601 239.34C38.3201 236.48 38.7101 232.78 42.0501 231.68C47.7001 229.82 51.0501 225.44 50.8601 220.49C50.6701 215.54 56.6201 210.72 61.0801 215.36C65.5401 220 64.9501 211.79 70.9001 209.8C76.8501 207.81 81.9001 212.64 80.2601 217.07C78.6201 221.5 84.5101 224.25 91.5401 220.49C98.5701 216.73 106.3 223.57 104.81 228.92C103.32 234.27 104.54 234.87 108.99 233.09C112.59 231.65 118.47 234.67 119.12 239.34H38.5601Z" fill="#E0E0E0"/>
<path d="M319.07 239.34C318.8 237.08 318.92 233.78 321.72 232.85C326.11 231.4 328.72 228 328.57 224.16C328.42 220.32 333.04 216.58 336.5 220.16C339.96 223.74 339.5 217.39 344.12 215.84C348.74 214.29 352.66 218.05 351.39 221.48C350.12 224.91 354.69 227.06 360.14 224.14C365.59 221.22 371.6 226.53 370.45 230.69C369.3 234.85 370.24 235.31 373.69 233.92C376.62 232.75 381.48 235.39 381.59 239.32L319.07 239.34Z" fill="#E0E0E0"/>
<path d="M347.82 239.34H245.11C243.67 234.52 247.4 228.74 251.47 227.93C256.47 226.93 261.47 218.13 261.74 212.53C262.01 206.93 271 189.7 285 200.34C299 210.98 294.75 201.9 304.87 198.91C314.99 195.92 321.39 204.52 316.95 210.98C316.95 210.98 327.12 208.43 331.31 217.93C335.5 227.43 331.31 233.33 331.31 233.33C331.31 233.33 344.14 233 347.82 239.34Z" fill="#E0E0E0"/>
<path d="M190.23 107.459C190.232 106.702 190.056 105.955 189.717 105.278C189.377 104.602 188.883 104.015 188.275 103.564C187.667 103.114 186.961 102.812 186.215 102.685C185.469 102.557 184.703 102.606 183.98 102.829C184.184 101.376 184.075 99.8972 183.66 98.4905C183.245 97.0838 182.534 95.7822 181.575 94.673C180.615 93.5638 179.429 92.6728 178.097 92.0598C176.765 91.4467 175.317 91.1259 173.85 91.1187C173.219 91.1177 172.589 91.178 171.97 91.2987C170.963 89.6402 169.443 88.3544 167.64 87.6357C165.838 86.917 163.85 86.8044 161.978 87.3148C160.106 87.8252 158.45 88.9309 157.262 90.4651C156.073 91.9992 155.416 93.8783 155.39 95.8187H155.24C153.055 95.8187 150.959 96.6869 149.413 98.2322C147.868 99.7775 147 101.873 147 104.059C147 106.244 147.868 108.34 149.413 109.885C150.959 111.431 153.055 112.299 155.24 112.299H185.5C186.766 112.275 187.972 111.754 188.857 110.848C189.742 109.943 190.235 108.725 190.23 107.459V107.459Z" fill="#F5F5F5"/>
<path d="M153.18 28.4587C153.18 27.7063 153.005 26.9643 152.667 26.2918C152.33 25.6193 151.84 25.0349 151.237 24.5852C150.634 24.1355 149.934 23.8329 149.193 23.7015C148.452 23.5702 147.691 23.6138 146.97 23.8287C147.186 22.3753 147.086 20.8925 146.676 19.4814C146.266 18.0704 145.556 16.7644 144.596 15.6527C143.635 14.541 142.446 13.6497 141.109 13.0398C139.772 12.4299 138.319 12.1157 136.85 12.1187C136.216 12.1172 135.583 12.1775 134.96 12.2987C133.953 10.6401 132.433 9.35442 130.63 8.63572C128.828 7.91702 126.84 7.80436 124.968 8.31477C123.096 8.82519 121.44 9.93094 120.252 11.4651C119.063 12.9992 118.406 14.8783 118.38 16.8187H118.24C116.055 16.8187 113.959 17.6869 112.413 19.2322C110.868 20.7775 110 22.8733 110 25.0587C110 27.2441 110.868 29.34 112.413 30.8853C113.959 32.4306 116.055 33.2987 118.24 33.2987H148.49C149.749 33.2648 150.945 32.7393 151.822 31.8347C152.698 30.9301 153.186 29.7183 153.18 28.4587V28.4587Z" fill="#F5F5F5"/>
<path d="M355.85 113.737C355.85 112.942 355.534 112.179 354.971 111.616C354.409 111.053 353.646 110.737 352.85 110.737C352.559 110.736 352.27 110.777 351.99 110.857C352.039 110.553 352.062 110.245 352.06 109.937C352.06 109.102 351.896 108.275 351.576 107.503C351.256 106.732 350.788 106.031 350.197 105.44C349.607 104.849 348.905 104.381 348.134 104.061C347.362 103.742 346.535 103.577 345.7 103.577C345.307 103.578 344.916 103.615 344.53 103.687C343.905 102.652 342.96 101.848 341.837 101.399C340.714 100.949 339.476 100.878 338.309 101.195C337.142 101.513 336.111 102.203 335.371 103.159C334.631 104.116 334.224 105.288 334.21 106.497H334.12C332.762 106.497 331.46 107.037 330.5 107.997C329.539 108.957 329 110.259 329 111.617C329 112.975 329.539 114.277 330.5 115.238C331.46 116.198 332.762 116.737 334.12 116.737H352.98C353.753 116.704 354.483 116.373 355.018 115.814C355.553 115.255 355.851 114.511 355.85 113.737V113.737Z" fill="#F5F5F5"/>
<path d="M232.644 12.73C232.644 11.9344 232.328 11.1713 231.765 10.6087C231.202 10.0461 230.439 9.73 229.644 9.73C229.352 9.72675 229.061 9.77064 228.784 9.86C228.824 9.55167 228.844 9.24099 228.844 8.93C228.844 7.24587 228.175 5.63073 226.984 4.43987C225.793 3.24901 224.178 2.58 222.494 2.58C222.098 2.57769 221.703 2.61116 221.314 2.68C220.689 1.64677 219.745 0.845237 218.624 0.396923C217.504 -0.0513901 216.267 -0.12204 215.103 0.195683C213.938 0.513405 212.909 1.20217 212.171 2.15757C211.433 3.11297 211.027 4.2829 211.014 5.48999H210.904C209.583 5.54832 208.337 6.11376 207.423 7.0685C206.51 8.02324 206 9.29364 206 10.615C206 11.9364 206.51 13.2068 207.423 14.1615C208.337 15.1162 209.583 15.6817 210.904 15.74H229.714C230.499 15.7217 231.245 15.3962 231.793 14.8334C232.341 14.2706 232.646 13.5154 232.644 12.73V12.73Z" fill="#F5F5F5"/>
<path d="M26.84 57.73C26.84 56.9343 26.5239 56.1713 25.9613 55.6087C25.3987 55.0461 24.6356 54.73 23.84 54.73C23.5482 54.7267 23.2578 54.7706 22.98 54.86C23.0236 54.5519 23.047 54.2412 23.05 53.93C23.05 52.2432 22.3799 50.6255 21.1872 49.4328C19.9945 48.2401 18.3768 47.57 16.69 47.57C16.2941 47.571 15.8992 47.6078 15.51 47.68C14.8857 46.6468 13.9416 45.8452 12.8208 45.3969C11.7 44.9486 10.4635 44.878 9.29893 45.1957C8.13433 45.5134 7.10507 46.2022 6.36719 47.1576C5.62931 48.113 5.22305 49.2829 5.21 50.49H5.12C3.76209 50.49 2.4598 51.0294 1.49961 51.9896C0.539425 52.9498 0 54.2521 0 55.61C0 56.9679 0.539425 58.2702 1.49961 59.2304C2.4598 60.1906 3.76209 60.73 5.12 60.73H23.92C24.7017 60.7091 25.4444 60.3839 25.9898 59.8235C26.5352 59.2632 26.8403 58.512 26.84 57.73V57.73Z" fill="#F5F5F5"/>
<path d="M337.75 82.1499C337.907 81.5379 338.001 80.9112 338.03 80.28C338.26 76.38 342.03 77 345.14 76.47C347.61 76.06 341.07 69.82 346.05 67.8C347.023 67.5405 347.875 66.95 348.46 66.13C348.71 65.5166 348.738 64.8351 348.539 64.2032C348.34 63.5714 347.927 63.029 347.37 62.67C346.231 61.9874 344.916 61.6569 343.59 61.72C342.78 60.72 343.44 59.25 344.23 58.24C345.02 57.23 345.98 56.08 345.68 54.84C345.23 52.96 342.6 52.8399 340.68 53.2599C339.98 52.1199 340 50.7 339.68 49.41C339.36 48.12 338.31 46.7699 336.99 46.9299C335.67 47.0899 334.99 48.49 333.75 48.78C332.33 49.11 331.1 47.86 329.99 46.92C328.88 45.98 326.93 45.39 326.16 46.63C325.7 47.37 325.97 48.41 325.5 49.14C324.67 50.41 322.71 49.62 321.5 48.72C320.29 47.82 318.34 47.01 317.5 48.25C317.287 48.6644 317.129 49.1048 317.03 49.56C316.45 51.22 314.65 52.0499 313.25 53.1199C311.85 54.1899 310.74 56.31 311.93 57.61C312.51 58.25 313.54 58.51 313.83 59.33C314.19 60.33 313.15 61.27 312.32 61.97C310.95 63.14 310.7 66.65 312.52 67.6C313.28 68.01 314.4 68.13 314.59 68.97C314.78 69.81 313.99 70.31 313.48 70.89C313.161 71.3036 312.935 71.7813 312.817 72.2903C312.699 72.7994 312.693 73.3278 312.799 73.8396C312.904 74.3513 313.119 74.8342 313.428 75.2554C313.737 75.6766 314.133 76.0261 314.59 76.28C315.03 76.49 315.59 76.6599 315.73 77.1199C315.796 77.4567 315.757 77.8055 315.62 78.1199C315.433 78.7691 315.375 79.4486 315.45 80.1199C315.445 80.3483 315.527 80.57 315.68 80.74C315.852 80.8516 316.055 80.9074 316.26 80.8999C318.89 81.0199 320.16 80.0899 321.76 82.3699C321.9 82.5999 322.088 82.7976 322.31 82.95C322.534 83.0631 322.779 83.1278 323.03 83.14C324.84 83.28 326.03 82.14 327.67 81.95C329.96 81.65 330.45 82.84 332.47 83.78C335.61 85.24 337.15 84.3199 337.75 82.1499Z" fill="#EBEBEB"/>
<path d="M307.48 78.8798C307.637 78.2677 307.731 77.6411 307.76 77.0098C307.99 73.1098 311.71 73.7298 314.87 73.1998C317.34 72.7898 310.8 66.5498 315.78 64.5298C316.75 64.2636 317.6 63.6745 318.19 62.8598C318.44 62.2465 318.468 61.5649 318.269 60.9331C318.07 60.3012 317.657 59.7589 317.1 59.3998C315.966 58.7008 314.651 58.3529 313.32 58.3998C312.51 57.3998 313.17 55.9298 313.95 54.9198C314.73 53.9098 315.7 52.7598 315.41 51.5198C314.96 49.6398 312.33 49.5698 310.41 49.9398C309.71 48.7998 309.73 47.3798 309.41 46.0898C309.09 44.7998 308.04 43.4498 306.72 43.6098C305.4 43.7698 304.72 45.1698 303.48 45.4598C302.06 45.7898 300.83 44.5398 299.72 43.5998C298.61 42.6598 296.66 42.0598 295.89 43.3098C295.43 44.0498 295.7 45.0898 295.23 45.8198C294.4 47.0898 292.44 46.2998 291.23 45.3998C290.02 44.4998 288.07 43.6798 287.23 44.9298C287.017 45.3443 286.859 45.7846 286.76 46.2398C286.18 47.8998 284.38 48.7298 282.98 49.7998C281.58 50.8698 280.47 52.9798 281.66 54.2898C282.24 54.9298 283.27 55.1898 283.56 56.0098C283.92 57.0098 282.88 57.9498 282.05 58.6498C280.67 59.8198 280.42 63.3198 282.24 64.2798C283.01 64.6898 284.13 64.8098 284.32 65.6498C284.51 66.4898 283.72 66.9898 283.21 67.5698C282.891 67.9835 282.665 68.4611 282.547 68.9702C282.429 69.4792 282.423 70.0077 282.529 70.5194C282.634 71.0311 282.849 71.5141 283.158 71.9353C283.467 72.3564 283.863 72.7059 284.32 72.9598C284.76 73.1698 285.32 73.3398 285.45 73.7998C285.519 74.1356 285.484 74.4843 285.35 74.7998C285.169 75.433 285.112 76.0949 285.18 76.7498C285.175 76.9782 285.257 77.1998 285.41 77.3698C285.582 77.4814 285.785 77.5373 285.99 77.5298C288.62 77.6498 289.89 76.7198 291.49 78.9998C291.627 79.2319 291.815 79.4301 292.04 79.5798C292.263 79.6954 292.509 79.757 292.76 79.7598C294.57 79.9098 295.76 78.7598 297.4 78.5798C299.69 78.2798 300.18 79.4598 302.2 80.4098C305.34 81.9998 306.88 81.0498 307.48 78.8798Z" fill="#EBEBEB"/>
<path d="M304.56 59.6099C304.716 58.9942 304.81 58.3644 304.84 57.7299C305.07 53.8299 308.84 54.4499 311.96 53.9199C314.43 53.5099 307.88 47.2699 312.87 45.2499C313.839 44.9875 314.687 44.3974 315.27 43.5799C315.521 42.9676 315.551 42.2869 315.354 41.6552C315.157 41.0234 314.745 40.4804 314.19 40.1199C313.053 39.4206 311.734 39.0728 310.4 39.1199C309.59 38.1199 310.25 36.6499 311.04 35.6399C311.83 34.6299 312.79 33.4799 312.49 32.2399C312.04 30.3599 309.41 30.2899 307.49 30.6599C306.79 29.5199 306.8 28.0999 306.49 26.8099C306.18 25.5199 305.12 24.1699 303.8 24.3299C302.48 24.4899 301.8 25.8898 300.57 26.1798C299.15 26.5198 297.92 25.2599 296.8 24.3199C295.68 23.3799 293.74 22.7899 292.97 24.0299C292.51 24.7699 292.79 25.8099 292.31 26.5399C291.48 27.8099 289.52 27.0199 288.31 26.1199C287.1 25.2199 285.15 24.4099 284.31 25.6599C284.096 26.0702 283.938 26.5074 283.84 26.9599C283.26 28.6199 281.46 29.4499 280.06 30.5199C278.66 31.5899 277.55 33.7099 278.74 35.0099C279.32 35.6499 280.35 35.9099 280.64 36.7299C281.01 37.7299 279.96 38.6699 279.13 39.3699C277.76 40.5399 277.51 44.0499 279.33 45.0099C280.09 45.4099 281.21 45.5299 281.4 46.3699C281.59 47.2099 280.8 47.7099 280.29 48.2999C279.971 48.7127 279.745 49.1896 279.627 49.6979C279.51 50.2062 279.504 50.7339 279.609 51.2449C279.715 51.7558 279.929 52.2379 280.238 52.6582C280.547 53.0785 280.944 53.427 281.4 53.6798C281.84 53.8898 282.4 54.0599 282.54 54.5199C282.603 54.8567 282.565 55.2048 282.43 55.5199C282.258 56.1547 282.201 56.8149 282.26 57.4699C282.261 57.6961 282.346 57.9139 282.5 58.0799C282.668 58.1939 282.868 58.25 283.07 58.2399C285.7 58.3599 286.97 57.4299 288.57 59.7099C288.713 59.9407 288.9 60.1412 289.12 60.2999C289.348 60.4097 289.597 60.471 289.85 60.4799C291.65 60.6299 292.85 59.4799 294.48 59.2899C296.78 58.9999 297.26 60.1799 299.28 61.1299C302.42 62.6899 304 61.7699 304.56 59.6099Z" fill="#EBEBEB"/>
<path d="M284.62 69.21C284.778 68.5947 284.872 67.9647 284.9 67.33C285.13 63.44 288.9 64.05 292.02 63.52C294.49 63.11 287.94 56.87 292.93 54.86C293.898 54.5899 294.745 53.9971 295.33 53.18C295.582 52.5684 295.611 51.8878 295.411 51.2572C295.212 50.6265 294.797 50.086 294.24 49.73C293.105 49.0383 291.787 48.707 290.46 48.78C289.65 47.78 290.31 46.3 291.1 45.29C291.89 44.28 292.85 43.14 292.55 41.89C292.1 40.01 289.47 39.95 287.55 40.31C286.85 39.18 286.86 37.76 286.55 36.47C286.24 35.18 285.18 33.82 283.86 33.98C282.54 34.14 281.86 35.55 280.63 35.83C279.21 36.17 277.98 34.91 276.86 33.97C275.74 33.03 273.8 32.44 273.03 33.68C272.57 34.42 272.85 35.46 272.37 36.19C271.54 37.46 269.58 36.67 268.37 35.77C267.16 34.87 265.21 34.06 264.37 35.31C264.156 35.7203 263.998 36.1576 263.9 36.61C263.32 38.27 261.52 39.1 260.12 40.17C258.72 41.24 257.61 43.36 258.8 44.66C259.38 45.3 260.41 45.56 260.7 46.38C261.07 47.38 260.02 48.32 259.19 49.02C257.82 50.2 257.57 53.7 259.39 54.66C260.15 55.06 261.27 55.18 261.46 56.03C261.65 56.88 260.86 57.37 260.35 57.95C260.031 58.3628 259.805 58.8397 259.688 59.348C259.57 59.8563 259.564 60.3841 259.669 60.895C259.775 61.406 259.989 61.8881 260.298 62.3084C260.607 62.7287 261.004 63.0772 261.46 63.33C261.9 63.54 262.46 63.71 262.6 64.17C262.663 64.5069 262.625 64.8549 262.49 65.17C262.318 65.8048 262.261 66.4651 262.32 67.12C262.317 67.3451 262.399 67.5631 262.55 67.73C262.722 67.8416 262.925 67.8975 263.13 67.89C265.76 68.01 267.03 67.08 268.63 69.37C268.773 69.5984 268.96 69.7957 269.18 69.95C269.408 70.061 269.657 70.1224 269.91 70.13C271.71 70.28 272.91 69.13 274.54 68.94C276.84 68.65 277.32 69.83 279.34 70.78C282.48 72.29 284 71.37 284.62 69.21Z" fill="#EBEBEB"/>
<path d="M264.47 64.7699C264.627 64.1579 264.721 63.5312 264.75 62.8999C264.98 58.9999 268.7 59.6199 271.86 59.0899C274.33 58.6799 267.79 52.4299 272.77 50.4199C273.743 50.1541 274.594 49.5607 275.18 48.7399C275.43 48.1281 275.457 47.4481 275.258 46.818C275.059 46.1879 274.646 45.6473 274.09 45.2899C272.951 44.6085 271.636 44.278 270.31 44.3399C269.5 43.3399 270.16 41.8699 270.94 40.8599C271.72 39.8499 272.69 38.6999 272.4 37.4599C271.94 35.5799 269.32 35.4599 267.4 35.8799C266.7 34.7399 266.72 33.3199 266.4 32.0299C266.08 30.7399 265.03 29.3899 263.71 29.5499C262.39 29.7099 261.71 31.1099 260.47 31.3999C259.05 31.7299 257.82 30.4799 256.71 29.5299C255.6 28.5799 253.64 27.9999 252.88 29.2499C252.42 29.9899 252.69 31.0199 252.21 31.7599C251.39 33.0199 249.42 32.2399 248.21 31.3399C247 30.4399 245.05 29.6199 244.21 30.8699C243.996 31.2838 243.838 31.7243 243.74 32.1799C243.16 33.8399 241.36 34.6699 239.96 35.7299C238.56 36.7899 237.45 38.9199 238.64 40.2299C239.22 40.8699 240.25 41.1299 240.54 41.9499C240.9 42.9499 239.86 43.8899 239.03 44.5899C237.65 45.7599 237.4 49.2599 239.22 50.2199C239.99 50.6199 241.11 50.7499 241.3 51.5899C241.49 52.4299 240.7 52.9299 240.19 53.5099C239.871 53.9236 239.645 54.4013 239.527 54.9103C239.409 55.4194 239.403 55.9478 239.509 56.4596C239.614 56.9713 239.829 57.4542 240.138 57.8754C240.447 58.2966 240.843 58.646 241.3 58.8999C241.74 59.1099 242.3 59.2799 242.43 59.7399C242.499 60.0757 242.464 60.4245 242.33 60.7399C242.15 61.3733 242.089 62.0344 242.15 62.6899C242.135 62.7993 242.147 62.9106 242.184 63.0146C242.221 63.1187 242.282 63.2125 242.361 63.2886C242.441 63.3646 242.538 63.4207 242.644 63.4522C242.75 63.4837 242.861 63.4898 242.97 63.4699C245.6 63.5899 246.86 62.6499 248.47 64.9399C248.605 65.1742 248.793 65.3731 249.02 65.5199C249.242 65.6355 249.489 65.6972 249.74 65.6999C251.55 65.8499 252.74 64.6999 254.38 64.5099C256.67 64.2199 257.16 65.3999 259.18 66.3499C262.33 67.8599 263.87 66.9399 264.47 64.7699Z" fill="#EBEBEB"/>
<path d="M264.2 86.33C264.325 85.8453 264.402 85.3496 264.43 84.85C264.61 81.79 267.54 82.27 270.03 81.85C271.97 81.52 266.82 76.61 270.74 75.02C271.505 74.8095 272.176 74.3438 272.64 73.7C272.837 73.2175 272.859 72.6813 272.702 72.1845C272.545 71.6876 272.219 71.2614 271.78 70.98C270.877 70.4362 269.832 70.175 268.78 70.23C268.14 69.46 268.66 68.23 269.28 67.49C269.9 66.75 270.66 65.79 270.43 64.81C270.07 63.33 268 63.28 266.51 63.57C266.099 62.6136 265.826 61.6034 265.7 60.57C265.43 59.57 264.63 58.49 263.58 58.57C262.53 58.65 262 59.79 261.04 60.02C259.92 60.29 258.95 59.3 258.04 58.55C257.13 57.8 255.63 57.35 255.04 58.33C254.68 58.91 254.89 59.73 254.52 60.33C253.86 61.33 252.32 60.71 251.36 60C250.4 59.29 248.87 58.65 248.2 59.64C248.029 59.9548 247.901 60.2911 247.82 60.64C247.37 61.95 245.95 62.64 244.82 63.45C243.69 64.26 242.82 65.96 243.82 66.98C244.28 67.49 245.09 67.69 245.32 68.34C245.55 68.99 244.78 69.86 244.13 70.42C243.05 71.34 242.85 74.1 244.28 74.85C244.88 75.17 245.77 75.27 245.91 75.93C246.05 76.59 245.44 76.99 245.04 77.44C244.788 77.7648 244.609 78.1404 244.516 78.5409C244.423 78.9414 244.417 79.3573 244.5 79.7601C244.582 80.1629 244.751 80.543 244.995 80.8744C245.238 81.2058 245.55 81.4806 245.91 81.68C246.26 81.85 246.68 81.98 246.81 82.34C246.863 82.612 246.835 82.8935 246.73 83.15C246.589 83.6468 246.541 84.1657 246.59 84.68C246.588 84.7685 246.604 84.8566 246.637 84.939C246.67 85.0214 246.718 85.0965 246.78 85.16C246.911 85.2537 247.07 85.2996 247.23 85.29C249.3 85.38 250.3 84.65 251.56 86.45C251.671 86.6308 251.817 86.7872 251.99 86.91C252.166 87.0008 252.362 87.0488 252.56 87.05C253.99 87.17 254.92 86.28 256.22 86.12C258.02 85.89 258.4 86.82 259.99 87.56C262.52 88.76 263.73 88 264.2 86.33Z" fill="#EBEBEB"/>
<path d="M252.91 78.8798C253.067 78.2677 253.161 77.6411 253.19 77.0098C253.43 73.1098 257.14 73.7298 260.31 73.1998C262.78 72.7898 256.23 66.5498 261.22 64.5298C262.187 64.2637 263.034 63.6743 263.62 62.8598C263.871 62.2476 263.901 61.5668 263.704 60.9351C263.507 60.3034 263.095 59.7603 262.54 59.3998C261.403 58.7006 260.084 58.3527 258.75 58.3998C257.94 57.3998 258.6 55.9298 259.39 54.9198C260.18 53.9098 261.14 52.7598 260.84 51.5198C260.39 49.6398 257.76 49.5698 255.84 49.9398C255.14 48.7998 255.15 47.3798 254.84 46.0898C254.53 44.7998 253.47 43.4498 252.15 43.6098C250.83 43.7698 250.15 45.1698 248.92 45.4598C247.5 45.7898 246.27 44.5398 245.15 43.5998C244.03 42.6598 242.09 42.0598 241.32 43.3098C240.86 44.0498 241.14 45.0898 240.66 45.8198C239.83 47.0898 237.87 46.2998 236.66 45.3998C235.45 44.4998 233.5 43.6798 232.66 44.9298C232.447 45.3443 232.289 45.7846 232.19 46.2398C231.61 47.8998 229.82 48.7298 228.42 49.7998C227.02 50.8698 225.9 52.9798 227.09 54.2898C227.67 54.9298 228.7 55.1898 228.99 56.0098C229.36 57.0098 228.31 57.9498 227.48 58.6498C226.11 59.8198 225.86 63.3198 227.68 64.2798C228.44 64.6898 229.56 64.8098 229.75 65.6498C229.94 66.4898 229.15 66.9898 228.65 67.5698C228.329 67.9822 228.101 68.4593 227.982 68.9682C227.862 69.4771 227.855 70.0059 227.959 70.518C228.064 71.0302 228.278 71.5137 228.587 71.9352C228.896 72.3567 229.293 72.7062 229.75 72.9598C230.19 73.1698 230.75 73.3398 230.89 73.7998C230.956 74.1366 230.917 74.4854 230.78 74.7998C230.609 75.4348 230.552 76.0949 230.61 76.7498C230.608 76.9795 230.694 77.2013 230.85 77.3698C231.018 77.4838 231.218 77.54 231.42 77.5298C234.05 77.6498 235.32 76.7198 236.92 78.9998C237.06 79.2298 237.248 79.4274 237.47 79.5798C237.697 79.6945 237.946 79.7561 238.2 79.7598C240 79.9098 241.2 78.7598 242.84 78.5798C245.13 78.2798 245.61 79.4598 247.63 80.4098C250.78 81.9998 252.31 81.0498 252.91 78.8798Z" fill="#EBEBEB"/>
<path d="M284.62 45.4898C284.777 44.8777 284.871 44.2511 284.9 43.6198C285.13 39.7198 288.9 40.3398 292.02 39.8098C294.49 39.3998 287.94 33.1598 292.93 31.1398C293.899 30.8775 294.747 30.2873 295.33 29.4698C295.582 28.8567 295.612 28.1745 295.412 27.5422C295.213 26.9098 294.798 26.3675 294.24 26.0098C293.101 25.3272 291.786 24.9967 290.46 25.0598C289.65 24.0598 290.31 22.5898 291.1 21.5798C291.89 20.5698 292.85 19.4198 292.55 18.1798C292.1 16.2998 289.47 16.1798 287.55 16.5998C286.85 15.4598 286.86 14.0398 286.55 12.7498C286.24 11.4598 285.18 10.1098 283.86 10.2698C282.54 10.4298 281.86 11.8298 280.63 12.1198C279.21 12.4598 277.98 11.1998 276.86 10.2598C275.74 9.3198 273.8 8.7298 273.03 9.9698C272.57 10.7098 272.85 11.7498 272.37 12.4798C271.54 13.7498 269.58 12.9598 268.37 12.0598C267.16 11.1598 265.21 10.3498 264.37 11.5898C264.157 12.0043 263.999 12.4446 263.9 12.8998C263.32 14.5598 261.52 15.3898 260.12 16.4598C258.72 17.5298 257.61 19.6498 258.8 20.9498C259.38 21.5898 260.41 21.8498 260.7 22.6698C261.07 23.6698 260.02 24.6098 259.19 25.3098C257.82 26.4798 257.57 29.9898 259.39 30.9398C260.15 31.3498 261.27 31.4698 261.46 32.3098C261.65 33.1498 260.86 33.6498 260.35 34.2298C260.031 34.6435 259.805 35.1211 259.687 35.6302C259.57 36.1392 259.563 36.6677 259.669 37.1794C259.774 37.6911 259.989 38.1741 260.298 38.5953C260.607 39.0164 261.003 39.3659 261.46 39.6198C261.9 39.8298 262.46 39.9998 262.6 40.4598C262.663 40.7967 262.625 41.1447 262.49 41.4598C262.312 42.1106 262.255 42.7884 262.32 43.4598C262.317 43.6849 262.399 43.9029 262.55 44.0698C262.722 44.1814 262.925 44.2373 263.13 44.2298C265.76 44.3498 267.03 43.4198 268.63 45.6998C268.773 45.9306 268.96 46.1311 269.18 46.2898C269.408 46.4008 269.657 46.4622 269.91 46.4698C271.71 46.6198 272.91 45.4698 274.54 45.2798C276.84 44.9798 277.32 46.1698 279.34 47.1198C282.48 48.5798 284 47.6598 284.62 45.4898Z" fill="#EBEBEB"/>
<path d="M310.51 46.8198C310.668 46.2045 310.762 45.5745 310.79 44.9398C311.02 41.0498 314.74 41.6598 317.91 41.1398C320.38 40.7198 313.83 34.4798 318.82 32.4698C319.788 32.1997 320.635 31.6069 321.22 30.7898C321.472 30.1782 321.501 29.4976 321.301 28.867C321.102 28.2363 320.688 27.6958 320.13 27.3398C319.001 26.6306 317.683 26.2818 316.35 26.3398C315.54 25.3398 316.2 23.8598 316.99 22.8498C317.78 21.8398 318.74 20.6998 318.44 19.4498C317.99 17.5698 315.36 17.5098 313.44 17.8698C312.74 16.7398 312.75 15.3198 312.44 14.0298C312.13 12.7398 311.07 11.3798 309.75 11.5498C308.43 11.7198 307.75 13.1098 306.52 13.3898C305.1 13.7298 303.87 12.4698 302.75 11.5298C301.63 10.5898 299.69 9.99982 298.92 11.2398C298.46 11.9798 298.74 13.0198 298.26 13.7498C297.43 15.0198 295.47 14.2298 294.26 13.3298C293.05 12.4298 291.1 11.6198 290.26 12.8698C290.046 13.2802 289.888 13.7174 289.79 14.1698C289.21 15.8298 287.41 16.6598 286.01 17.7298C284.61 18.7998 283.5 20.9198 284.69 22.2198C285.27 22.8598 286.3 23.1198 286.59 23.9398C286.96 24.9398 285.91 25.8798 285.08 26.5898C283.71 27.7598 283.46 31.2598 285.28 32.2198C286.04 32.6198 287.16 32.7398 287.35 33.5898C287.54 34.4398 286.75 34.9298 286.24 35.5098C285.921 35.9226 285.695 36.3995 285.578 36.9078C285.46 37.4161 285.454 37.9439 285.559 38.4548C285.665 38.9658 285.879 39.4479 286.188 39.8682C286.498 40.2885 286.894 40.637 287.35 40.8898C287.79 41.0998 288.35 41.2798 288.49 41.7298C288.554 42.0667 288.516 42.4149 288.38 42.7298C288.209 43.3647 288.152 44.0249 288.21 44.6798C288.205 44.9053 288.287 45.124 288.44 45.2898C288.613 45.4014 288.815 45.4573 289.02 45.4498C291.65 45.5698 292.92 44.6398 294.52 46.9298C294.663 47.1582 294.85 47.3555 295.07 47.5098C295.296 47.6255 295.546 47.6872 295.8 47.6898C297.6 47.8398 298.8 46.6898 300.43 46.4998C302.73 46.2098 303.21 47.3898 305.23 48.3398C308.37 49.8998 309.91 48.9998 310.51 46.8198Z" fill="#EBEBEB"/>
<path d="M326.24 57.4099C326.397 56.7979 326.491 56.1712 326.52 55.5399C326.75 51.6399 330.52 52.2599 333.63 51.7299C336.1 51.3199 329.56 45.0799 334.54 43.0599C335.512 42.7974 336.363 42.2075 336.95 41.3899C337.2 40.7766 337.228 40.095 337.029 39.4632C336.83 38.8314 336.417 38.289 335.86 37.9299C334.726 37.2309 333.411 36.883 332.08 36.9299C331.27 35.9299 331.93 34.4599 332.71 33.4499C333.49 32.4399 334.46 31.2899 334.16 30.0499C333.71 28.1699 331.09 28.0999 329.16 28.4699C328.46 27.3299 328.47 25.9099 328.16 24.6199C327.85 23.3299 326.8 21.9799 325.47 22.1399C324.14 22.2999 323.47 23.6999 322.24 23.9899C320.82 24.3199 319.59 23.0699 318.48 22.1299C317.37 21.1899 315.41 20.5999 314.65 21.8399C314.19 22.5799 314.46 23.6199 313.98 24.3499C313.16 25.6199 311.19 24.8299 309.98 23.9299C308.77 23.0299 306.82 22.2199 305.98 23.4599C305.764 23.874 305.603 24.3144 305.5 24.7699C304.93 26.4299 303.13 27.2599 301.73 28.3299C300.33 29.3999 299.22 31.5099 300.4 32.8199C300.99 33.4599 302.02 33.7199 302.31 34.5399C302.67 35.5399 301.63 36.4799 300.8 37.1799C299.42 38.3499 299.17 41.8599 300.99 42.8099C301.76 43.2199 302.88 43.3399 303.07 44.1799C303.26 45.0199 302.47 45.5199 301.96 46.0999C301.637 46.5123 301.409 46.99 301.289 47.4997C301.17 48.0094 301.162 48.5389 301.268 49.0517C301.374 49.5645 301.589 50.0481 301.901 50.4691C302.212 50.8902 302.611 51.2385 303.07 51.4899C303.5 51.6999 304.07 51.8699 304.2 52.3299C304.269 52.6657 304.234 53.0144 304.1 53.3299C303.915 53.9793 303.854 54.6579 303.92 55.3299C303.918 55.5596 304.004 55.7815 304.16 55.9499C304.332 56.0615 304.535 56.1174 304.74 56.1099C307.37 56.2299 308.63 55.2999 310.24 57.5799C310.375 57.8142 310.563 58.0131 310.79 58.1599C311.014 58.2742 311.259 58.339 311.51 58.3499C313.32 58.4899 314.51 57.3499 316.15 57.1599C318.44 56.8599 318.93 58.0499 320.94 58.9899C324.1 60.4999 325.64 59.5799 326.24 57.4099Z" fill="#EBEBEB"/>
<path d="M321.47 70.8098C321.47 70.8098 314.89 80.0998 312.62 83.0498C310.35 85.9998 299.02 104.37 297.47 116.52C297.31 117.82 297.15 118.93 296.99 119.91C301.86 152.1 301.1 211 300.93 221.08H285.48C285.33 209.71 284.02 105.77 283.54 102.6C283.02 99.2398 276.54 86.4498 266.54 81.1998C256.54 75.9498 248 58.5598 248 58.5598H251.18C251.18 58.5598 257.08 69.2198 265.47 75.1098C266.676 75.9434 267.939 76.6919 269.25 77.3498C269.229 70.9379 270.356 64.5739 272.58 58.5598L274.3 60.1498C271.98 69.6398 272.3 75.7198 272.99 79.2098C276.161 80.6953 279.088 82.6543 281.67 85.0198C290.37 73.6998 295.26 47.8198 295.26 47.8198L297.49 49.0298C296.858 54.3774 295.896 59.6808 294.61 64.9098C292.98 71.6098 288.18 84.2198 285.95 89.9098C288.623 93.7491 290.831 97.8913 292.53 102.25C292.766 101.882 293.049 101.546 293.37 101.25C299.04 96.1298 309.69 71.9098 309.69 71.9098C312.27 66.2798 308.33 51.4998 308.33 51.4998H311.33L312.66 64.4298L320.15 56.2598L321.51 57.3998L313.57 67.5998L309.49 80.5298L320.15 68.7298L321.47 70.8098Z" fill="#E6E6E6"/>
<path d="M40.6598 116.83C40.5337 116.359 40.4599 115.876 40.4398 115.39C40.2598 112.39 37.4398 112.88 34.9798 112.47C33.0798 112.16 38.0998 107.37 34.2798 105.82C33.5384 105.616 32.8891 105.164 32.4398 104.54C32.2459 104.069 32.2228 103.546 32.3743 103.06C32.5259 102.574 32.8427 102.157 33.2698 101.88C34.1448 101.36 35.1534 101.11 36.1698 101.16C36.7998 100.4 36.2898 99.2598 35.6898 98.4798C35.0898 97.6998 34.3398 96.8298 34.5698 95.8698C34.9198 94.4298 36.9298 94.3798 38.3898 94.6598C38.7895 93.7188 39.0522 92.7254 39.1698 91.7098C39.4398 90.7098 40.1698 89.7098 41.2398 89.8098C42.3098 89.9098 42.7798 90.9998 43.7198 91.2298C44.8098 91.4798 45.7198 90.5198 46.6098 89.7998C47.4998 89.0798 48.9598 88.6198 49.5498 89.5698C49.8998 90.1398 49.6898 90.9398 50.0598 91.4998C50.6898 92.4998 52.1998 91.8698 53.1298 91.1798C54.0598 90.4898 55.5598 89.8598 56.2098 90.8198C56.3772 91.1351 56.5017 91.4714 56.5798 91.8198C57.0198 93.0998 58.3998 93.7298 59.4698 94.5498C60.5398 95.3698 61.3998 96.9998 60.4698 97.9998C60.0198 98.4898 59.2298 98.6898 59.0098 99.3198C58.7298 100.1 59.5298 100.81 60.1698 101.32C61.1698 102.22 61.4098 104.9 60.0198 105.64C59.4298 105.95 58.5698 106.04 58.4298 106.69C58.2898 107.34 58.8898 107.69 59.2798 108.16C59.5248 108.477 59.6983 108.844 59.7887 109.235C59.879 109.626 59.884 110.032 59.8033 110.425C59.7227 110.817 59.5582 111.188 59.3212 111.512C59.0841 111.836 58.7801 112.104 58.4298 112.3C58.0898 112.46 57.6798 112.59 57.5598 112.94C57.5021 113.202 57.5302 113.475 57.6398 113.72C57.7734 114.208 57.8174 114.716 57.7698 115.22C57.7696 115.39 57.7053 115.554 57.5898 115.68C57.4592 115.773 57.3003 115.819 57.1398 115.81C55.1398 115.9 54.1398 115.19 52.9198 116.94C52.8152 117.119 52.6717 117.273 52.4998 117.39C52.3276 117.472 52.1406 117.52 51.9498 117.53C50.5598 117.64 49.6598 116.77 48.3898 116.61C46.6298 116.39 46.2598 117.3 44.7098 118.02C42.2898 119.2 41.1098 118.49 40.6598 116.83Z" fill="#EBEBEB"/>
<path d="M63.88 114.32C63.7587 113.849 63.685 113.366 63.66 112.88C63.49 109.88 60.66 110.37 58.21 109.96C56.31 109.65 61.33 104.86 57.51 103.31C56.7627 103.096 56.1104 102.634 55.66 102C55.4677 101.53 55.4465 101.007 55.6 100.523C55.7535 100.039 56.072 99.6235 56.5 99.3499C57.3718 98.8217 58.3821 98.5674 59.4 98.6199C60.02 97.8599 59.51 96.7199 58.91 95.9399C58.31 95.1599 57.57 94.2899 57.8 93.3299C58.14 91.8899 60.16 91.8399 61.61 92.1199C62.0223 91.1652 62.2886 90.1539 62.4 89.1199C62.66 88.1199 63.4 87.1199 64.46 87.2199C65.52 87.3199 66.01 88.4199 66.95 88.6399C68.04 88.8899 68.95 87.93 69.83 87.21C70.71 86.49 72.18 86.0299 72.77 86.9799C73.13 87.5499 72.91 88.3499 73.28 88.9099C73.92 89.9099 75.42 89.2799 76.36 88.5899C77.3 87.8999 78.78 87.2699 79.44 88.2299C79.604 88.5458 79.7251 88.8821 79.8 89.2299C80.24 90.5099 81.62 91.14 82.7 91.96C83.78 92.78 84.63 94.4099 83.7 95.4099C83.25 95.8999 82.46 96.0999 82.23 96.7299C81.96 97.5099 82.76 98.2199 83.39 98.7299C84.45 99.6299 84.64 102.31 83.24 103.05C82.66 103.36 81.8 103.45 81.65 104.1C81.5 104.75 82.11 105.1 82.5 105.57C82.7466 105.887 82.9216 106.254 83.0129 106.645C83.1041 107.036 83.1096 107.442 83.0288 107.836C82.948 108.229 82.7829 108.6 82.5449 108.924C82.3069 109.248 82.0016 109.516 81.65 109.71C81.32 109.87 80.91 110 80.78 110.35C80.7271 110.612 80.755 110.884 80.86 111.13C80.9969 111.617 81.0444 112.126 81 112.63C80.9949 112.804 80.9275 112.971 80.81 113.1C80.6806 113.187 80.5259 113.229 80.37 113.22C78.37 113.31 77.37 112.6 76.15 114.35C76.0598 114.536 75.9169 114.691 75.739 114.796C75.5611 114.901 75.3563 114.951 75.15 114.94C73.77 115.05 72.86 114.18 71.59 114.02C69.84 113.8 69.46 114.71 67.92 115.43C65.52 116.69 64.34 116 63.88 114.32Z" fill="#EBEBEB"/>
<path d="M66.12 99.5299C65.9945 99.0593 65.9207 98.5764 65.9 98.0899C65.72 95.0899 62.9 95.5799 60.44 95.1699C58.55 94.8499 63.57 90.0699 59.75 88.5199C59.0031 88.3159 58.3496 87.8602 57.9 87.2299C57.7087 86.7605 57.6869 86.2393 57.8384 85.7556C57.9899 85.272 58.3051 84.8562 58.73 84.5799C59.608 84.0589 60.6202 83.8084 61.64 83.8599C62.26 83.0999 61.75 81.9599 61.15 81.1799C60.55 80.3999 59.81 79.5299 60.04 78.5699C60.38 77.1299 62.4 77.0799 63.85 77.3599C64.2622 76.4051 64.5285 75.3938 64.64 74.3599C64.9 73.3599 65.64 72.3599 66.7 72.4599C67.76 72.5599 68.24 73.6499 69.18 73.8799C70.12 74.1099 71.18 73.1699 72.07 72.4399C72.96 71.7099 74.42 71.2699 75.01 72.2199C75.36 72.7899 75.15 73.5899 75.52 74.1499C76.15 75.1499 77.66 74.5199 78.6 73.8299C79.54 73.1399 81.02 72.5099 81.68 73.4699C81.8428 73.7862 81.9639 74.1223 82.04 74.4699C82.48 75.7499 83.86 76.3799 84.94 77.1999C86.02 78.0199 86.86 79.6499 85.94 80.6499C85.5 81.1399 84.71 81.3399 84.48 81.9699C84.25 82.5999 85.01 83.4599 85.64 83.9699C86.7 84.8599 86.89 87.5499 85.49 88.2899C84.91 88.5999 84.05 88.6899 83.9 89.2899C83.75 89.8899 84.36 90.2899 84.75 90.7599C84.9964 91.0761 85.1713 91.442 85.2625 91.8324C85.3537 92.2228 85.3591 92.6284 85.2783 93.0211C85.1975 93.4138 85.0324 93.7842 84.7944 94.1069C84.5564 94.4295 84.2513 94.6967 83.9 94.8899C83.57 95.0599 83.15 95.1899 83.03 95.5399C82.977 95.802 83.0049 96.074 83.11 96.3199C83.248 96.8037 83.2922 97.3095 83.24 97.8099C83.2433 97.8963 83.229 97.9825 83.1981 98.0633C83.1672 98.1441 83.1202 98.2178 83.06 98.2799C82.9332 98.3736 82.7774 98.4197 82.62 98.4099C80.62 98.4999 79.62 97.7799 78.4 99.5399C78.2923 99.7171 78.1494 99.8703 77.98 99.9899C77.8048 100.073 77.6138 100.117 77.42 100.12C76.04 100.24 75.13 99.3699 73.86 99.2099C72.1 98.9899 71.73 99.8899 70.18 100.62C67.76 101.9 66.58 101.19 66.12 99.5299Z" fill="#EBEBEB"/>
<path d="M81.42 106.9C81.2946 106.429 81.2208 105.946 81.2 105.46C81.02 102.46 78.2 102.94 75.74 102.54C73.85 102.22 78.87 97.4298 75.05 95.8898C74.3032 95.6858 73.6497 95.2301 73.2 94.5998C73.0189 94.14 72.9994 93.6322 73.1447 93.1597C73.2901 92.6873 73.5917 92.2783 74 91.9998C74.8772 91.4759 75.8894 91.222 76.91 91.2698C77.53 90.5198 77.02 89.3698 76.42 88.5998C75.82 87.8298 75.08 86.9498 75.31 85.9898C75.65 84.5498 77.67 84.4998 79.12 84.7798C79.5275 83.8409 79.7937 82.8468 79.91 81.8298C80.17 80.8298 80.91 79.8298 81.97 79.9198C83.03 80.0098 83.51 81.1198 84.45 81.3398C85.39 81.5598 86.45 80.6398 87.34 79.9098C88.23 79.1798 89.69 78.7398 90.28 79.6898C90.63 80.2598 90.42 81.0598 90.79 81.6198C91.42 82.6198 92.93 81.9898 93.87 81.2998C94.81 80.6098 96.29 79.9798 96.95 80.9398C97.1129 81.2561 97.2339 81.5923 97.31 81.9398C97.75 83.2098 99.13 83.8498 100.21 84.6698C101.29 85.4898 102.13 87.1198 101.21 88.1098C100.76 88.6098 99.98 88.8098 99.75 89.4398C99.47 90.2198 100.28 90.9198 100.91 91.4398C101.97 92.3398 102.16 95.0298 100.76 95.7698C100.18 96.0698 99.32 96.1698 99.17 96.7698C99.02 97.3698 99.63 97.7698 100.02 98.2398C100.266 98.5561 100.441 98.922 100.533 99.3124C100.624 99.7028 100.629 100.108 100.548 100.501C100.468 100.894 100.302 101.264 100.064 101.587C99.8265 101.909 99.5213 102.177 99.17 102.37C98.84 102.53 98.42 102.66 98.3 103.01C98.2469 103.275 98.2748 103.55 98.38 103.8C98.5181 104.284 98.5622 104.789 98.51 105.29C98.5145 105.464 98.4498 105.633 98.33 105.76C98.2008 105.849 98.0468 105.894 97.89 105.89C95.89 105.98 94.89 105.26 93.67 107.02C93.565 107.196 93.4215 107.347 93.25 107.46C93.0773 107.551 92.8852 107.599 92.69 107.6C91.31 107.72 90.4 106.85 89.13 106.69C87.37 106.47 87 107.37 85.45 108.1C83.06 109.26 81.88 108.56 81.42 106.9Z" fill="#EBEBEB"/>
<path d="M96.88 103.5C96.7651 103.027 96.6915 102.545 96.66 102.06C96.49 99.06 93.66 99.54 91.21 99.14C89.31 98.82 94.33 94.03 90.51 92.48C89.7653 92.2771 89.1125 91.8254 88.66 91.2C88.4677 90.7298 88.4465 90.207 88.6 89.7228C88.7535 89.2386 89.072 88.8235 89.5 88.55C90.3718 88.0218 91.3821 87.7675 92.4 87.82C93.02 87.06 92.52 85.92 91.91 85.15C91.3 84.38 90.57 83.49 90.8 82.54C91.14 81.1 93.16 81.05 94.61 81.33C95.021 80.3748 95.2873 79.3637 95.4 78.33C95.66 77.33 96.4 76.33 97.47 76.42C98.54 76.51 99.01 77.62 99.95 77.84C101.04 78.1 101.95 77.13 102.84 76.41C103.73 75.69 105.19 75.23 105.77 76.19C106.13 76.76 105.92 77.55 106.28 78.11C106.92 79.11 108.42 78.48 109.36 77.79C110.3 77.1 111.78 76.48 112.44 77.44C112.607 77.7544 112.729 78.0911 112.8 78.44C113.25 79.71 114.63 80.35 115.7 81.17C116.77 81.99 117.63 83.61 116.7 84.61C116.25 85.1 115.46 85.3 115.24 85.93C114.96 86.72 115.76 87.42 116.39 87.93C117.45 88.83 117.64 91.52 116.25 92.25C115.66 92.56 114.8 92.66 114.66 93.25C114.52 93.84 115.11 94.25 115.5 94.73C115.746 95.0462 115.921 95.4121 116.013 95.8025C116.104 96.1929 116.109 96.5985 116.028 96.9912C115.948 97.3839 115.782 97.7543 115.544 98.077C115.307 98.3996 115.001 98.6668 114.65 98.86C114.32 99.02 113.91 99.15 113.78 99.5C113.727 99.7621 113.755 100.034 113.86 100.28C113.996 100.768 114.044 101.276 114 101.78C114.001 101.955 113.932 102.124 113.81 102.25C113.683 102.342 113.526 102.384 113.37 102.37C111.37 102.46 110.37 101.75 109.15 103.5C109.045 103.679 108.902 103.833 108.73 103.95C108.556 104.037 108.365 104.085 108.17 104.09C106.79 104.2 105.88 103.34 104.62 103.18C102.86 102.95 102.49 103.86 100.94 104.59C98.52 105.86 97.34 105.16 96.88 103.5Z" fill="#EBEBEB"/>
<path d="M97.0799 120C96.988 119.626 96.9311 119.244 96.9099 118.86C96.7699 116.51 94.5299 116.86 92.6199 116.56C91.1199 116.31 95.0799 112.56 92.0699 111.33C91.4833 111.173 90.9681 110.82 90.6099 110.33C90.4603 109.961 90.4444 109.551 90.5649 109.171C90.6854 108.791 90.9348 108.465 91.2699 108.25C91.9567 107.837 92.7495 107.636 93.5499 107.67C94.0499 107.08 93.6499 106.18 93.1699 105.57C92.6899 104.96 92.1099 104.27 92.2899 103.51C92.5699 102.38 94.1499 102.34 95.2899 102.56C95.6048 101.82 95.8135 101.039 95.9099 100.24C96.1099 99.4598 96.7299 98.6398 97.5299 98.7398C98.3299 98.8398 98.7499 99.6798 99.5299 99.8498C100.31 100.02 101.13 99.2998 101.8 98.7298C102.47 98.1598 103.65 97.7998 104.12 98.5498C104.39 98.9998 104.23 99.6298 104.52 100.07C105.02 100.84 106.2 100.36 106.94 99.8198C107.68 99.2798 108.85 98.8198 109.36 99.5398C109.492 99.7851 109.59 100.048 109.65 100.32C110 101.32 111.08 101.83 111.93 102.47C112.78 103.11 113.45 104.4 112.73 105.19C112.38 105.57 111.73 105.73 111.58 106.19C111.43 106.65 111.99 107.36 112.49 107.78C113.32 108.49 113.49 110.61 112.38 111.19C111.91 111.43 111.24 111.5 111.12 112.01C111 112.52 111.48 112.82 111.79 113.17C111.984 113.42 112.121 113.708 112.193 114.016C112.265 114.324 112.269 114.644 112.205 114.954C112.142 115.264 112.012 115.556 111.824 115.811C111.637 116.066 111.397 116.277 111.12 116.43C110.86 116.55 110.53 116.66 110.44 116.93C110.393 117.138 110.414 117.355 110.5 117.55C110.607 117.933 110.644 118.333 110.61 118.73C110.607 118.867 110.554 118.999 110.46 119.1C110.358 119.172 110.234 119.204 110.11 119.19C108.53 119.27 107.76 118.7 106.79 120.09C106.707 120.229 106.594 120.349 106.46 120.44C106.321 120.502 106.172 120.539 106.02 120.55C104.93 120.64 104.22 119.95 103.22 119.83C101.83 119.65 101.54 120.36 100.32 120.94C98.3699 121.9 97.4399 121.34 97.0799 120Z" fill="#EBEBEB"/>
<path d="M105.75 114.32C105.624 113.85 105.55 113.367 105.53 112.88C105.35 109.88 102.53 110.37 100.07 109.96C98.1798 109.65 103.2 104.86 99.3798 103.31C98.6354 103.106 97.9828 102.655 97.5298 102.03C97.3366 101.561 97.3138 101.039 97.4654 100.555C97.617 100.071 97.9335 99.655 98.3598 99.38C99.2351 98.8515 100.249 98.5973 101.27 98.65C101.89 97.89 101.38 96.75 100.78 95.97C100.18 95.19 99.4398 94.32 99.6598 93.36C100.01 91.92 102.02 91.87 103.48 92.15C103.892 91.1952 104.158 90.1839 104.27 89.15C104.53 88.15 105.27 87.15 106.33 87.25C107.39 87.35 107.87 88.45 108.81 88.67C109.9 88.92 110.81 87.96 111.7 87.24C112.59 86.52 114.05 86.06 114.64 87.01C114.99 87.58 114.78 88.38 115.15 88.94C115.78 89.94 117.29 89.31 118.22 88.62C119.15 87.93 120.65 87.3 121.31 88.26C121.47 88.5776 121.59 88.9134 121.67 89.26C122.11 90.54 123.49 91.17 124.57 91.99C125.65 92.81 126.49 94.44 125.57 95.44C125.12 95.93 124.33 96.13 124.11 96.76C123.83 97.54 124.64 98.25 125.27 98.76C126.33 99.66 126.52 102.34 125.12 103.08C124.53 103.39 123.67 103.48 123.53 104.13C123.39 104.78 123.99 105.13 124.38 105.6C124.626 105.917 124.801 106.284 124.893 106.675C124.984 107.066 124.989 107.472 124.909 107.866C124.828 108.259 124.663 108.631 124.425 108.954C124.187 109.278 123.881 109.546 123.53 109.74C123.19 109.9 122.78 110.03 122.66 110.38C122.607 110.642 122.635 110.914 122.74 111.16C122.873 111.648 122.917 112.156 122.87 112.66C122.873 112.834 122.809 113.003 122.69 113.13C122.559 113.215 122.405 113.257 122.25 113.25C120.25 113.34 119.25 112.63 118.03 114.38C117.922 114.557 117.779 114.71 117.61 114.83C117.434 114.912 117.244 114.959 117.05 114.97C115.66 115.08 114.76 114.21 113.49 114.05C111.73 113.83 111.36 114.74 109.81 115.46C107.39 116.69 106.21 116 105.75 114.32Z" fill="#EBEBEB"/>
<path d="M81.4198 88.71C81.2944 88.236 81.2206 87.7498 81.1998 87.26C81.0198 84.26 78.1998 84.75 75.7398 84.34C73.8498 84.03 78.8698 79.24 75.0498 77.69C74.3036 77.4901 73.6499 77.0377 73.1998 76.41C73.0085 75.9407 72.9868 75.4194 73.1382 74.9357C73.2897 74.4521 73.605 74.0364 74.0298 73.76C74.9051 73.2315 75.9186 72.9773 76.9398 73.03C77.5598 72.27 77.0498 71.13 76.4498 70.36C75.8498 69.59 75.1098 68.7 75.3398 67.75C75.6798 66.31 77.6998 66.25 79.1498 66.53C79.5572 65.591 79.8235 64.5969 79.9398 63.58C80.1998 62.58 80.9398 61.58 81.9998 61.68C83.0598 61.78 83.5398 62.88 84.4798 63.1C85.4198 63.32 86.4798 62.39 87.3698 61.67C88.2598 60.95 89.7198 60.49 90.3098 61.45C90.6598 62.02 90.4498 62.81 90.8198 63.37C91.4498 64.37 92.9598 63.74 93.8998 63.05C94.8398 62.36 96.3198 61.74 96.9798 62.69C97.1395 63.0076 97.2604 63.3434 97.3398 63.69C97.7798 64.97 99.1598 65.61 100.24 66.43C101.32 67.25 102.16 68.87 101.24 69.87C100.79 70.36 100.01 70.56 99.7798 71.19C99.4998 71.98 100.31 72.68 100.94 73.19C102 74.09 102.19 76.78 100.79 77.51C100.21 77.82 99.3498 77.91 99.1998 78.56C99.0498 79.21 99.6598 79.56 100.05 80.04C100.296 80.3562 100.471 80.7222 100.562 81.1126C100.654 81.503 100.659 81.9085 100.578 82.3012C100.497 82.6939 100.332 83.0643 100.094 83.387C99.8562 83.7096 99.5511 83.9768 99.1998 84.17C98.8698 84.33 98.4498 84.46 98.3298 84.81C98.2768 85.0721 98.3047 85.3441 98.4098 85.59C98.5477 86.0772 98.5918 86.5863 98.5398 87.09C98.5431 87.2641 98.4786 87.4327 98.3598 87.56C98.2297 87.646 98.0755 87.688 97.9198 87.68C95.9198 87.77 94.9198 87.06 93.6998 88.81C93.5949 88.9893 93.4514 89.143 93.2798 89.26C93.1053 89.3462 92.9143 89.3939 92.7198 89.4C91.3398 89.51 90.4298 88.65 89.1598 88.49C87.3998 88.26 87.0298 89.17 85.4798 89.9C83.0598 91.07 81.8798 90.36 81.4198 88.71Z" fill="#EBEBEB"/>
<path d="M61.5499 89.7198C61.4329 89.2478 61.3626 88.7655 61.3399 88.2798C61.1599 85.2798 58.3399 85.7698 55.8799 85.3598C53.9799 85.0398 58.9999 80.2498 55.1799 78.7098C54.4356 78.506 53.7852 78.05 53.3399 77.4198C53.1466 76.9507 53.1238 76.4288 53.2755 75.9447C53.4271 75.4605 53.7436 75.0448 54.1699 74.7698C55.043 74.2457 56.053 73.9949 57.0699 74.0498C57.6999 73.2898 57.1899 72.1498 56.5799 71.3698C55.9699 70.5898 55.2399 69.7198 55.4699 68.7598C55.8199 67.3198 57.8299 67.2698 59.2899 67.5498C59.6942 66.593 59.957 65.5824 60.0699 64.5498C60.3399 63.5498 61.1199 62.5498 62.1399 62.6498C63.1599 62.7498 63.6799 63.8398 64.6199 64.0598C65.5599 64.2798 66.6199 63.3598 67.5099 62.6298C68.3999 61.8998 69.8599 61.4598 70.4499 62.4098C70.7999 62.9798 70.5899 63.7798 70.9499 64.3398C71.5899 65.3398 73.0999 64.7098 74.0299 64.0198C74.9599 63.3298 76.4599 62.6998 77.1099 63.6598C77.276 63.9757 77.4004 64.3119 77.4799 64.6598C77.9199 65.9398 79.2999 66.5698 80.3699 67.3898C81.4399 68.2098 82.2999 69.8398 81.3699 70.8398C80.9199 71.3298 80.1299 71.5298 79.9099 72.1598C79.6299 72.9398 80.4299 73.6498 81.0699 74.1598C82.0699 75.0498 82.3099 77.7398 80.9199 78.4798C80.3299 78.7898 79.4699 78.8798 79.3299 79.5298C79.1899 80.1798 79.7899 80.5298 80.1799 80.9998C80.4247 81.3166 80.5981 81.6826 80.6884 82.0727C80.7787 82.4628 80.7836 82.8678 80.7029 83.2599C80.6222 83.6521 80.4577 84.0222 80.2208 84.3449C79.9838 84.6677 79.6799 84.9354 79.3299 85.1298C78.9899 85.2898 78.5799 85.4298 78.4499 85.7798C78.4022 86.0421 78.43 86.3126 78.5299 86.5598C78.6713 87.043 78.7188 87.5488 78.6699 88.0498C78.6702 88.2234 78.606 88.3909 78.4899 88.5198C78.357 88.6088 78.1997 88.6542 78.0399 88.6498C76.0399 88.7398 75.0399 88.0198 73.8199 89.7798C73.7179 89.9586 73.5737 90.1096 73.3999 90.2198C73.2311 90.3117 73.042 90.3598 72.8499 90.3598C71.4599 90.4798 70.5499 89.6098 69.2899 89.4498C67.5299 89.2298 67.1599 90.1298 65.6099 90.8598C63.1899 92.0898 61.9999 91.3798 61.5499 89.7198Z" fill="#EBEBEB"/>
<path d="M49.4901 97.8499C49.3646 97.3794 49.2909 96.8965 49.2701 96.4099C49.0901 93.4099 46.2701 93.8999 43.8101 93.4899C41.9201 93.1699 46.9401 88.3799 43.1201 86.8399C42.3732 86.6359 41.7197 86.1802 41.2701 85.5499C41.0788 85.0806 41.0571 84.5593 41.2085 84.0757C41.36 83.5921 41.6753 83.1763 42.1001 82.8999C42.9773 82.376 43.9894 82.1221 45.0101 82.1699C45.6301 81.4199 45.1201 80.2799 44.5201 79.4999C43.9201 78.7199 43.1801 77.8499 43.4101 76.8899C43.7501 75.4499 45.7601 75.3999 47.2201 75.6799C47.6323 74.7252 47.8987 73.7139 48.0101 72.6799C48.2701 71.6799 49.0101 70.6799 50.0701 70.7699C51.1301 70.8599 51.6101 71.9699 52.5501 72.1899C53.6401 72.4499 54.5501 71.4899 55.4401 70.7599C56.3301 70.0299 57.7901 69.5899 58.3801 70.5399C58.7301 71.1099 58.5201 71.9099 58.8901 72.4699C59.5201 73.4699 61.0301 72.8399 61.9701 72.1499C62.9101 71.4599 64.3901 70.8299 65.0501 71.7899C65.213 72.1062 65.334 72.4424 65.4101 72.7899C65.8501 74.0699 67.2301 74.6999 68.3101 75.5199C69.3901 76.3399 70.2301 77.9699 69.3101 78.9699C68.8601 79.4599 68.0801 79.6599 67.8501 80.2899C67.5701 81.0699 68.3801 81.7699 69.0101 82.2899C70.0701 83.1899 70.2601 85.8799 68.8601 86.6199C68.2801 86.9199 67.4201 87.0199 67.2701 87.6699C67.1201 88.3199 67.7301 88.6699 68.1201 89.1399C68.3665 89.4562 68.5414 89.8221 68.6326 90.2125C68.7238 90.6029 68.7292 91.0085 68.6484 91.4012C68.5676 91.7938 68.4025 92.1643 68.1645 92.487C67.9266 92.8096 67.6214 93.0768 67.2701 93.2699C66.9301 93.4299 66.5201 93.5699 66.4001 93.9199C66.3471 94.182 66.375 94.454 66.4801 94.6999C66.6133 95.1846 66.6573 95.6895 66.6101 96.1899C66.6145 96.3642 66.5498 96.5332 66.4301 96.6599C66.3003 96.7476 66.1466 96.793 65.9901 96.7899C63.9901 96.8799 62.9901 96.1599 61.7701 97.9199C61.6651 98.0964 61.5215 98.2469 61.3501 98.3599C61.1773 98.4507 60.9853 98.4987 60.7901 98.4999C59.4101 98.6199 58.5001 97.7499 57.2301 97.5899C55.4701 97.3699 55.1001 98.2699 53.5501 98.9999C51.1301 100.22 50.0001 99.5099 49.4901 97.8499Z" fill="#EBEBEB"/>
<path d="M53.1499 108.13C53.1499 108.13 58.1499 115.26 59.9299 117.52C61.7099 119.78 70.3699 133.88 71.5599 143.2C71.6799 144.2 71.8099 145.05 71.9299 145.8C68.1899 170.5 68.7699 215.69 68.9299 223.43H80.7799C80.8899 214.7 81.8999 134.95 82.2699 132.52C82.6399 130.09 87.6199 120.13 95.2699 116.1C102.92 112.07 109.54 98.7299 109.54 98.7299H107.1C107.1 98.7299 102.57 106.91 96.0999 111.43C95.1738 112.069 94.2048 112.644 93.1999 113.15C93.2161 108.229 92.349 103.345 90.6399 98.7299L89.3499 100C91.1299 107.28 90.8999 112 90.3499 114.63C87.9258 115.743 85.6838 117.217 83.6999 119C77.0199 110.32 73.2699 90.46 73.2699 90.46L71.5599 91.39C72.0427 95.4919 72.7808 99.5598 73.7699 103.57C75.0199 108.71 78.6999 118.39 80.4099 122.78C78.3802 125.731 76.7022 128.909 75.4099 132.25C75.2266 131.967 75.0082 131.708 74.7599 131.48C70.3699 127.58 62.1999 109 62.1999 109C60.1999 104.68 63.1999 93.34 63.1999 93.34H60.9999L59.9999 103.25L54.1899 97L53.1899 97.8699L59.2799 105.7L62.4099 115.62L54.2299 106.57L53.1499 108.13Z" fill="#E6E6E6"/>
<path d="M398.71 257.24L15.2902 257.24V245.32C15.2902 244.28 15.4951 243.25 15.8931 242.289C16.2911 241.328 16.8745 240.455 17.6099 239.72C18.3454 238.984 19.2185 238.401 20.1794 238.003C21.1403 237.605 22.1701 237.4 23.2102 237.4L390.8 237.4C392.901 237.4 394.915 238.234 396.4 239.72C397.886 241.205 398.72 243.219 398.72 245.32V257.24H398.71Z" fill="#E0E0E0"/>
<path d="M207 301.56C314.082 301.56 400.89 296.492 400.89 290.24C400.89 283.988 314.082 278.92 207 278.92C99.9174 278.92 13.1099 283.988 13.1099 290.24C13.1099 296.492 99.9174 301.56 207 301.56Z" fill="#F5F5F5"/>
<path d="M62.4199 265.16C62.4199 265.16 60.9999 255 54.5299 253.87C48.0599 252.74 49.9799 247.87 48.2899 245.93C46.5999 243.99 42.1599 249.65 45.9599 255.09C49.7599 260.53 46.6499 258.82 48.2899 263.88C49.9299 268.94 62.9999 273.59 62.4199 265.16Z" fill="#263238"/>
<path opacity="0.2" d="M62.4199 265.16C62.4199 265.16 60.9999 255 54.5299 253.87C48.0599 252.74 49.9799 247.87 48.2899 245.93C46.5999 243.99 42.1599 249.65 45.9599 255.09C49.7599 260.53 46.6499 258.82 48.2899 263.88C49.9299 268.94 62.9999 273.59 62.4199 265.16Z" fill="white"/>
<path d="M62.15 272.21C62.0651 272.211 61.9815 272.189 61.9089 272.144C61.8363 272.1 61.7778 272.036 61.74 271.96C61.74 271.85 56.74 261.27 59.33 244.42C60.1718 239.594 61.5123 234.869 63.33 230.32C66.47 221.74 68.96 214.96 63.27 202.58C61.47 198.66 59.64 195.01 57.86 191.48C51.18 178.22 45.86 167.75 49.86 157.15C49.8801 157.094 49.9111 157.043 49.9512 156.999C49.9913 156.955 50.0398 156.919 50.0937 156.894C50.1476 156.869 50.206 156.855 50.2655 156.852C50.3249 156.85 50.3843 156.859 50.44 156.88C50.5515 156.923 50.642 157.007 50.6924 157.116C50.7428 157.224 50.7491 157.347 50.71 157.46C46.92 167.7 52.12 178.01 58.71 191.07C60.49 194.61 62.34 198.27 64.14 202.2C69.99 214.92 67.31 222.2 64.22 230.63C62.4237 235.12 61.1031 239.785 60.28 244.55C57.71 261.12 62.56 271.47 62.61 271.55C62.6583 271.659 62.6623 271.783 62.6212 271.895C62.5802 272.006 62.4973 272.098 62.39 272.15C62.3176 272.193 62.2342 272.214 62.15 272.21Z" fill="#263238"/>
<path d="M58.39 269.73C58.39 269.73 54.19 263.39 60.26 260.13C66.33 256.87 67.54 259.5 71.26 257.13C74.98 254.76 77.86 249.13 78.5 252.74C79.14 256.35 74.8 258.44 76.34 260.1C77.88 261.76 66.17 272.59 58.39 269.73Z" fill="#263238"/>
<path d="M48.4699 162.59C48.4699 162.59 44.3699 150.14 53.6899 149.88C63.0099 149.62 52.7399 161.27 48.4699 162.59Z" fill="#263238"/>
<path d="M56.5698 172.17C56.5698 172.17 59.3398 160.85 65.9598 163.23C72.5798 165.61 63.1598 172.38 56.5698 172.17Z" fill="#263238"/>
<path d="M45.34 173.15C45.34 173.15 46.34 164.15 39.34 163.93C32.34 163.71 35.43 171.69 45.34 173.15Z" fill="#263238"/>
<path d="M50 191.58C50 191.58 40.58 183.19 37.2 189.44C33.82 195.69 44.31 197 50 191.58Z" fill="#263238"/>
<path d="M66.6802 190.09C66.6802 190.09 68.4502 176.15 76.0602 180.52C83.6702 184.89 73.3102 191.49 66.6802 190.09Z" fill="#263238"/>
<path d="M73.3802 210.06C73.3802 210.06 67.7602 195.97 78.2002 197.56C88.6402 199.15 80.7402 206.64 73.3802 210.06Z" fill="#263238"/>
<path d="M57.3599 215.09C57.3599 215.09 48.5399 204.71 41.8099 208C35.0799 211.29 40.5799 221.62 57.3599 215.09Z" fill="#263238"/>
<path d="M65.3599 238.1C65.3599 238.1 72.8699 221.42 79.5499 227.04C86.2299 232.66 75.2899 241.07 65.3599 238.1Z" fill="#263238"/>
<path d="M54.45 237.12C54.45 237.12 56.45 224.19 49 225.23C41.55 226.27 43.51 234.18 54.45 237.12Z" fill="#263238"/>
<g opacity="0.2">
<path d="M48.4699 162.59C48.4699 162.59 44.3699 150.14 53.6899 149.88C63.0099 149.62 52.7399 161.27 48.4699 162.59Z" fill="white"/>
<path d="M56.5698 172.17C56.5698 172.17 59.3398 160.85 65.9598 163.23C72.5798 165.61 63.1598 172.38 56.5698 172.17Z" fill="white"/>
<path d="M45.34 173.15C45.34 173.15 46.34 164.15 39.34 163.93C32.34 163.71 35.43 171.69 45.34 173.15Z" fill="white"/>
<path d="M50 191.58C50 191.58 40.58 183.19 37.2 189.44C33.82 195.69 44.31 197 50 191.58Z" fill="white"/>
<path d="M66.6802 190.09C66.6802 190.09 68.4502 176.15 76.0602 180.52C83.6702 184.89 73.3102 191.49 66.6802 190.09Z" fill="white"/>
<path d="M73.3802 210.06C73.3802 210.06 67.7602 195.97 78.2002 197.56C88.6402 199.15 80.7402 206.64 73.3802 210.06Z" fill="white"/>
<path d="M57.3599 215.09C57.3599 215.09 48.5399 204.71 41.8099 208C35.0799 211.29 40.5799 221.62 57.3599 215.09Z" fill="white"/>
<path d="M65.3599 238.1C65.3599 238.1 72.8699 221.42 79.5499 227.04C86.2299 232.66 75.2899 241.07 65.3599 238.1Z" fill="white"/>
<path d="M54.45 237.12C54.45 237.12 56.45 224.19 49 225.23C41.55 226.27 43.51 234.18 54.45 237.12Z" fill="white"/>
</g>
<path d="M52.5001 179.67C52.4228 179.669 52.3472 179.648 52.2801 179.61C46.7701 176.52 42.8001 170.69 42.6301 170.44C42.5651 170.339 42.5423 170.216 42.5666 170.098C42.5909 169.981 42.6604 169.877 42.7601 169.81C42.809 169.777 42.8641 169.754 42.9221 169.742C42.9801 169.731 43.0398 169.731 43.0977 169.743C43.1555 169.755 43.2104 169.779 43.2589 169.813C43.3074 169.847 43.3486 169.89 43.3801 169.94C43.3801 169.99 47.2001 175.55 52.3201 178.59C53.1701 177.03 56.2001 171.65 58.7301 170.13C58.7812 170.099 58.8379 170.079 58.8968 170.071C58.9558 170.062 59.0158 170.066 59.0735 170.08C59.1312 170.095 59.1853 170.122 59.2328 170.157C59.2803 170.193 59.3201 170.238 59.3501 170.29C59.3818 170.34 59.403 170.396 59.4121 170.454C59.4212 170.513 59.4182 170.573 59.4032 170.63C59.3882 170.687 59.3615 170.741 59.3248 170.787C59.2881 170.834 59.2423 170.872 59.1901 170.9C56.5001 172.52 52.9401 179.35 52.9001 179.42C52.8735 179.475 52.8357 179.524 52.7893 179.563C52.7428 179.603 52.6886 179.632 52.6301 179.65L52.5001 179.67Z" fill="#263238"/>
<path d="M61.0499 197C60.9494 197.001 60.8512 196.969 60.7699 196.91C52.9299 190.98 42.8999 191.23 42.7699 191.23C42.651 191.228 42.537 191.182 42.4502 191.1C42.3634 191.019 42.3098 190.909 42.2999 190.79C42.2986 190.731 42.3089 190.672 42.3303 190.617C42.3517 190.562 42.3838 190.512 42.4246 190.469C42.4655 190.426 42.5143 190.392 42.5685 190.368C42.6226 190.344 42.6808 190.331 42.7399 190.33C42.8399 190.33 52.8499 190.07 60.8899 195.9C61.8899 194.22 65.9699 188.15 71.1399 185.11C71.1906 185.078 71.2474 185.057 71.3066 185.048C71.3659 185.038 71.4264 185.041 71.4844 185.056C71.5425 185.071 71.5969 185.098 71.6443 185.135C71.6916 185.171 71.731 185.217 71.7599 185.27C71.7917 185.32 71.8128 185.376 71.822 185.434C71.8311 185.493 71.8281 185.553 71.813 185.61C71.798 185.667 71.7713 185.721 71.7347 185.767C71.698 185.814 71.6521 185.852 71.5999 185.88C65.8999 189.24 61.4499 196.71 61.3999 196.78C61.3696 196.836 61.3267 196.884 61.2747 196.92C61.2226 196.957 61.1628 196.981 61.0999 196.99L61.0499 197Z" fill="#263238"/>
<path d="M66.4799 219.84C66.4027 219.839 66.3271 219.818 66.2599 219.78C66.1399 219.71 54.6799 213.12 46.3899 212.96C46.3308 212.96 46.2723 212.948 46.2177 212.926C46.1631 212.903 46.1135 212.87 46.0717 212.828C46.03 212.786 45.9968 212.737 45.9742 212.682C45.9516 212.628 45.9399 212.569 45.9399 212.51C45.9399 212.451 45.9516 212.392 45.9742 212.338C45.9968 212.283 46.03 212.234 46.0717 212.192C46.1135 212.15 46.1631 212.117 46.2177 212.094C46.2723 212.072 46.3308 212.06 46.3899 212.06C54.2899 212.21 64.5799 217.81 66.3899 218.84C71.7099 214.36 75.9299 203.34 75.9799 203.23C75.9988 203.172 76.0292 203.119 76.0694 203.073C76.1096 203.027 76.1587 202.99 76.2137 202.963C76.2687 202.937 76.3285 202.922 76.3894 202.92C76.4503 202.917 76.5111 202.927 76.5681 202.949C76.6251 202.97 76.6771 203.003 76.7209 203.046C76.7647 203.088 76.7994 203.139 76.823 203.195C76.8465 203.252 76.8584 203.312 76.8579 203.373C76.8574 203.434 76.8445 203.494 76.8199 203.55C76.6399 204.02 72.3399 215.23 66.7199 219.74C66.6522 219.797 66.5683 219.832 66.4799 219.84Z" fill="#263238"/>
<path d="M59.8503 243.49C59.7697 243.491 59.6904 243.47 59.6203 243.43C55.2903 240.95 49.6903 230.09 49.4503 229.63C49.4234 229.577 49.4072 229.519 49.4027 229.46C49.3982 229.4 49.4054 229.34 49.424 229.284C49.4425 229.227 49.4721 229.175 49.5109 229.129C49.5497 229.084 49.5971 229.047 49.6503 229.02C49.7035 228.993 49.7614 228.977 49.8209 228.972C49.8803 228.968 49.9401 228.975 49.9967 228.994C50.0534 229.012 50.1058 229.042 50.151 229.081C50.1962 229.12 50.2334 229.167 50.2603 229.22C50.2603 229.33 55.6703 239.71 59.7403 242.43C63.056 238.565 67.4393 235.764 72.3403 234.38C72.4556 234.349 72.5785 234.364 72.6831 234.422C72.7876 234.48 72.8655 234.576 72.9003 234.69C72.9346 234.804 72.9222 234.927 72.866 235.032C72.8098 235.137 72.7142 235.215 72.6003 235.25C67.7541 236.597 63.4326 239.388 60.2103 243.25C60.1777 243.319 60.127 243.378 60.0636 243.42C60.0002 243.462 59.9264 243.487 59.8503 243.49V243.49Z" fill="#263238"/>
<path d="M59.0001 268.22C59.0001 268.22 55.3901 262.48 51.3201 261.66C47.2501 260.84 45.5301 256.15 44.0001 259C42.4701 261.85 46.6701 271.15 59.0001 268.22Z" fill="#263238"/>
<path d="M40.3199 290.75H79.6999L82.3399 266.46H37.6899L40.3199 290.75Z" fill="#219D68"/>
<path d="M36.7699 271.06H83.2599L83.8499 265.92H36.1699L36.7699 271.06Z" fill="#219D68"/>
<path opacity="0.3" d="M36.7699 271.06H83.2599L83.8499 265.92H36.1699L36.7699 271.06Z" fill="white"/>
<path d="M385.9 28.0601L382.48 60.9101H365.36L361.94 28.0601H385.9Z" fill="#263238"/>
<path opacity="0.3" d="M385.9 28.0601L382.48 60.9101H365.36L361.94 28.0601H385.9Z" fill="white"/>
<path d="M377.1 53.8501H370.73V290.75H377.1V53.8501Z" fill="#263238"/>
<path opacity="0.3" d="M377.1 53.8501H370.73V290.75H377.1V53.8501Z" fill="white"/>
<path d="M380.68 58.9101H367.16L364.16 30.0601H383.68L380.68 58.9101Z" fill="#219D68"/>
<path opacity="0.4" d="M380.68 58.9101H367.16L364.16 30.0601H383.68L380.68 58.9101Z" fill="white"/>
<path d="M372.14 59.3601H371.22L370.22 29.0601H371.14L372.14 59.3601Z" fill="#263238"/>
<path opacity="0.3" d="M372.14 59.3601H371.22L370.22 29.0601H371.14L372.14 59.3601Z" fill="white"/>
<path opacity="0.2" d="M385.9 28.0601L382.48 60.9101H371.72L370.43 28.0601H385.9Z" fill="white"/>
<path d="M373.92 17.5C373.92 17.5 363.76 27.5 355.98 27.5L358.4 29.09H389.4L391.81 27.5C384.07 27.52 373.92 17.5 373.92 17.5Z" fill="#263238"/>
<path opacity="0.4" d="M391.85 27.52L389.44 29.1H358.44L356 27.52C363.78 27.52 373.93 17.52 373.93 17.52C373.93 17.52 384.07 27.52 391.85 27.52Z" fill="white"/>
<path opacity="0.2" d="M391.85 27.52L389.44 29.1H369.28C368.67 28.1 368.28 27.39 368.28 27.39C373.69 24.88 373.96 17.5 373.96 17.5C373.96 17.5 384.07 27.52 391.85 27.52Z" fill="white"/>
<path d="M368.45 286.37H379.39C380.045 286.37 380.673 286.63 381.137 287.094C381.6 287.557 381.86 288.185 381.86 288.84V290.75H366V288.84C366 288.188 366.257 287.563 366.716 287.101C367.175 286.638 367.798 286.375 368.45 286.37V286.37Z" fill="#263238"/>
<path opacity="0.5" d="M368.45 286.37H379.39C380.045 286.37 380.673 286.63 381.137 287.094C381.6 287.557 381.86 288.185 381.86 288.84V290.75H366V288.84C366 288.188 366.257 287.563 366.716 287.101C367.175 286.638 367.798 286.375 368.45 286.37V286.37Z" fill="white"/>
</svg>
