<svg width="378" height="121" viewBox="0 0 378 121" fill="none" xmlns="http://www.w3.org/2000/svg">
<path d="M24.5 75V71.1H16.3V41.5H27.9V37.5H16.3V13.1H12.2V37.5H3.5V41.5H12.2V75H24.5ZM54.2453 75V71.1H46.8453V54.5C46.8453 52.4333 47.2786 50.5333 48.1453 48.8C49.012 47 50.212 45.5333 51.7453 44.4C53.0786 43.2667 54.612 42.4 56.3453 41.8C58.1453 41.1333 60.0453 40.8 62.0453 40.8L62.2453 36.7C60.712 36.7667 59.1786 37.0333 57.6453 37.5C56.1786 37.9667 54.7453 38.6333 53.3453 39.5C51.8786 40.3667 50.5453 41.4667 49.3453 42.8C48.212 44.0667 47.2786 45.5333 46.5453 47.2C46.4786 46.0667 46.4453 45.3333 46.4453 45C46.4453 44.6667 46.412 43.9333 46.3453 42.8L46.0453 37.5H35.5453V41.4H42.7453V71.1H34.9453V75H54.2453ZM116.023 75V71.1H108.623V37.5H105.323C105.189 38.9667 105.089 40.4667 105.023 42C104.956 43.4667 104.923 44.9 104.923 46.3C103.789 43.7 101.823 41.4667 99.0227 39.6C96.2227 37.6667 92.856 36.7 88.9227 36.7C86.1227 36.7 83.5227 37.2333 81.1227 38.3C78.7893 39.3 76.7227 40.6667 74.9227 42.4C73.1227 44.2 71.7227 46.3 70.7227 48.7C69.7227 51.1 69.2227 53.6 69.2227 56.2C69.2227 58.9333 69.7227 61.4667 70.7227 63.8C71.7227 66.1333 73.1227 68.2 74.9227 70C76.7227 71.8 78.7893 73.2 81.1227 74.2C83.5227 75.2 86.1227 75.7 88.9227 75.7C90.9227 75.7 92.7893 75.4333 94.5227 74.9C96.3227 74.3667 97.9227 73.6333 99.3227 72.7C100.656 71.8333 101.789 70.8667 102.723 69.8C103.723 68.6667 104.456 67.5 104.923 66.3C104.923 67.1667 104.923 67.9667 104.923 68.7C104.923 69.3667 104.923 70.1 104.923 70.9V75H116.023ZM88.9227 40.7C91.056 40.7 93.056 41.1 94.9227 41.9C96.7893 42.6333 98.456 43.7 99.9227 45.1C101.323 46.5 102.423 48.1667 103.223 50.1C104.089 51.9667 104.523 54 104.523 56.2C104.523 58.4 104.089 60.4667 103.223 62.4C102.423 64.2667 101.289 65.9 99.8227 67.3C98.4227 68.7 96.7893 69.8 94.9227 70.6C93.056 71.3333 91.056 71.7 88.9227 71.7C86.7893 71.7 84.8227 71.3333 83.0227 70.6C81.2227 69.8667 79.6227 68.8333 78.2227 67.5C76.6893 66.1 75.4893 64.4333 74.6227 62.5C73.756 60.5667 73.3227 58.4667 73.3227 56.2C73.3227 54.0667 73.6893 52.0667 74.4227 50.2C75.2227 48.3333 76.3227 46.7 77.7227 45.3C79.056 43.8333 80.6893 42.7 82.6227 41.9C84.556 41.1 86.656 40.7 88.9227 40.7ZM142.331 75V71.1H134.931V54.5C134.931 52.5 135.331 50.6667 136.131 49C136.998 47.3333 138.165 45.8667 139.631 44.6C140.965 43.4 142.565 42.4667 144.431 41.8C146.298 41.1333 148.265 40.8 150.331 40.8C153.131 40.9333 155.231 41.8 156.631 43.4C158.098 44.9333 158.898 46.8 159.031 49V71.1H151.231V75H170.531V71.1H163.131V47.9C162.998 44.5667 161.865 41.8667 159.731 39.8C157.598 37.7333 154.698 36.7 151.031 36.7C147.298 36.7 143.965 37.6667 141.031 39.6C138.098 41.5333 135.965 44.0667 134.631 47.2C134.565 46.0667 134.498 45.0667 134.431 44.2C134.365 43.2667 134.298 42.2333 134.231 41.1L134.131 37.5H123.631V41.4H130.831V71.1H123.031V75H142.331Z" fill="black"/>
<path d="M198.523 75V71.1H190.323V41.5H201.923V37.5H190.323V13.1H186.223V37.5H177.523V41.5H186.223V75H198.523ZM228.269 75V71.1H220.869V54.5C220.869 52.4333 221.302 50.5333 222.169 48.8C223.035 47 224.235 45.5333 225.769 44.4C227.102 43.2667 228.635 42.4 230.369 41.8C232.169 41.1333 234.069 40.8 236.069 40.8L236.269 36.7C234.735 36.7667 233.202 37.0333 231.669 37.5C230.202 37.9667 228.769 38.6333 227.369 39.5C225.902 40.3667 224.569 41.4667 223.369 42.8C222.235 44.0667 221.302 45.5333 220.569 47.2C220.502 46.0667 220.469 45.3333 220.469 45C220.469 44.6667 220.435 43.9333 220.369 42.8L220.069 37.5H209.569V41.4H216.769V71.1H208.969V75H228.269ZM290.046 75V71.1H282.646V37.5H279.346C279.213 38.9667 279.113 40.4667 279.046 42C278.979 43.4667 278.946 44.9 278.946 46.3C277.813 43.7 275.846 41.4667 273.046 39.6C270.246 37.6667 266.879 36.7 262.946 36.7C260.146 36.7 257.546 37.2333 255.146 38.3C252.813 39.3 250.746 40.6667 248.946 42.4C247.146 44.2 245.746 46.3 244.746 48.7C243.746 51.1 243.246 53.6 243.246 56.2C243.246 58.9333 243.746 61.4667 244.746 63.8C245.746 66.1333 247.146 68.2 248.946 70C250.746 71.8 252.813 73.2 255.146 74.2C257.546 75.2 260.146 75.7 262.946 75.7C264.946 75.7 266.813 75.4333 268.546 74.9C270.346 74.3667 271.946 73.6333 273.346 72.7C274.679 71.8333 275.813 70.8667 276.746 69.8C277.746 68.6667 278.479 67.5 278.946 66.3C278.946 67.1667 278.946 67.9667 278.946 68.7C278.946 69.3667 278.946 70.1 278.946 70.9V75H290.046ZM262.946 40.7C265.079 40.7 267.079 41.1 268.946 41.9C270.813 42.6333 272.479 43.7 273.946 45.1C275.346 46.5 276.446 48.1667 277.246 50.1C278.113 51.9667 278.546 54 278.546 56.2C278.546 58.4 278.113 60.4667 277.246 62.4C276.446 64.2667 275.313 65.9 273.846 67.3C272.446 68.7 270.813 69.8 268.946 70.6C267.079 71.3333 265.079 71.7 262.946 71.7C260.813 71.7 258.846 71.3333 257.046 70.6C255.246 69.8667 253.646 68.8333 252.246 67.5C250.713 66.1 249.513 64.4333 248.646 62.5C247.779 60.5667 247.346 58.4667 247.346 56.2C247.346 54.0667 247.713 52.0667 248.446 50.2C249.246 48.3333 250.346 46.7 251.746 45.3C253.079 43.8333 254.713 42.7 256.646 41.9C258.579 41.1 260.679 40.7 262.946 40.7ZM329.055 71.4L326.455 68.3C325.121 69.3667 323.621 70.2 321.955 70.8C320.288 71.4 318.521 71.7 316.655 71.7C314.521 71.7 312.488 71.3 310.555 70.5C308.688 69.7 307.088 68.6333 305.755 67.3C304.288 65.9 303.155 64.2667 302.355 62.4C301.555 60.4667 301.155 58.4 301.155 56.2C301.155 54 301.555 51.9667 302.355 50.1C303.155 48.1667 304.321 46.4667 305.855 45C307.188 43.6667 308.788 42.6333 310.655 41.9C312.521 41.1 314.521 40.7 316.655 40.7C318.321 40.7 319.888 40.9333 321.355 41.4C322.821 41.8667 324.155 42.5333 325.355 43.4V50.8H329.155V41C327.488 39.6667 325.588 38.6333 323.455 37.9C321.321 37.1 319.055 36.7 316.655 36.7C313.921 36.7 311.355 37.2333 308.955 38.3C306.621 39.3 304.555 40.6667 302.755 42.4C300.955 44.1333 299.555 46.2 298.555 48.6C297.555 51 297.055 53.5333 297.055 56.2C297.055 58.9333 297.555 61.5 298.555 63.9C299.555 66.2333 300.988 68.2667 302.855 70C304.588 71.8 306.621 73.2 308.955 74.2C311.355 75.2 313.921 75.7 316.655 75.7C319.055 75.7 321.288 75.3333 323.355 74.6C325.421 73.8 327.321 72.7333 329.055 71.4ZM355.717 40.7C358.317 40.7 360.651 41.4333 362.717 42.9C364.851 44.3 366.517 46.1333 367.717 48.4C363.184 50.2 358.651 52 354.117 53.8C349.651 55.5333 345.151 57.3 340.617 59.1C340.151 56.8333 340.184 54.6333 340.717 52.5C341.251 50.3 342.184 48.3333 343.517 46.6C344.917 44.8 346.651 43.3667 348.717 42.3C350.851 41.2333 353.184 40.7 355.717 40.7ZM368.817 70.5L366.317 67.5C364.917 68.8333 363.317 69.8667 361.517 70.6C359.717 71.3333 357.784 71.7 355.717 71.7C352.584 71.7 349.784 70.9 347.317 69.3C344.851 67.7 343.017 65.6 341.817 63C347.017 60.8667 352.184 58.8 357.317 56.8C362.517 54.8 367.717 52.7667 372.917 50.7C372.251 48.7 371.384 46.8667 370.317 45.2C369.251 43.4667 368.017 42 366.617 40.8C365.151 39.4667 363.484 38.4667 361.617 37.8C359.751 37.0667 357.784 36.7 355.717 36.7C352.984 36.7 350.417 37.2333 348.017 38.3C345.684 39.3 343.617 40.6667 341.817 42.4C340.017 44.1333 338.617 46.2 337.617 48.6C336.617 51 336.117 53.5333 336.117 56.2C336.117 58.9333 336.617 61.4667 337.617 63.8C338.617 66.1333 340.017 68.2 341.817 70C343.617 71.8 345.684 73.2 348.017 74.2C350.417 75.2 352.984 75.7 355.717 75.7C358.317 75.7 360.717 75.2333 362.917 74.3C365.117 73.3667 367.084 72.1 368.817 70.5Z" fill="#8A5EEA"/>
<path d="M179.84 114V112.83H177.62V107.85C177.62 107.25 177.74 106.7 177.98 106.2C178.24 105.7 178.59 105.26 179.03 104.88C179.43 104.52 179.91 104.24 180.47 104.04C181.03 103.84 181.62 103.74 182.24 103.74C183.08 103.78 183.71 104.04 184.13 104.52C184.57 104.98 184.81 105.54 184.85 106.2V112.83H182.51V114H188.3V112.83H186.08V107.73C186.1 107.15 186.24 106.62 186.5 106.14C186.76 105.64 187.1 105.21 187.52 104.85C187.94 104.51 188.42 104.24 188.96 104.04C189.52 103.84 190.1 103.74 190.7 103.74C191.54 103.78 192.17 104.04 192.59 104.52C193.03 104.98 193.27 105.54 193.31 106.2V112.83H191V114H196.76V112.83H194.54V105.87C194.5 104.87 194.16 104.06 193.52 103.44C192.9 102.82 192.03 102.51 190.91 102.51C189.81 102.53 188.83 102.81 187.97 103.35C187.13 103.89 186.49 104.61 186.05 105.51C185.95 104.61 185.58 103.89 184.94 103.35C184.3 102.79 183.47 102.51 182.45 102.51C181.31 102.53 180.3 102.83 179.42 103.41C178.56 103.97 177.93 104.72 177.53 105.66C177.51 105.32 177.49 105.02 177.47 104.76C177.45 104.48 177.43 104.17 177.41 103.83L177.38 102.75H174.23V103.92H176.39V112.83H174.05V114H179.84ZM212.904 114V112.83H210.684V102.75H209.694C209.654 103.19 209.624 103.64 209.604 104.1C209.584 104.54 209.574 104.97 209.574 105.39C209.234 104.61 208.644 103.94 207.804 103.38C206.964 102.8 205.954 102.51 204.774 102.51C203.934 102.51 203.154 102.67 202.434 102.99C201.734 103.29 201.114 103.7 200.574 104.22C200.034 104.76 199.614 105.39 199.314 106.11C199.014 106.83 198.864 107.58 198.864 108.36C198.864 109.18 199.014 109.94 199.314 110.64C199.614 111.34 200.034 111.96 200.574 112.5C201.114 113.04 201.734 113.46 202.434 113.76C203.154 114.06 203.934 114.21 204.774 114.21C205.374 114.21 205.934 114.13 206.454 113.97C206.994 113.81 207.474 113.59 207.894 113.31C208.294 113.05 208.634 112.76 208.914 112.44C209.214 112.1 209.434 111.75 209.574 111.39C209.574 111.65 209.574 111.89 209.574 112.11C209.574 112.31 209.574 112.53 209.574 112.77V114H212.904ZM204.774 103.71C205.414 103.71 206.014 103.83 206.574 104.07C207.134 104.29 207.634 104.61 208.074 105.03C208.494 105.45 208.824 105.95 209.064 106.53C209.324 107.09 209.454 107.7 209.454 108.36C209.454 109.02 209.324 109.64 209.064 110.22C208.824 110.78 208.484 111.27 208.044 111.69C207.624 112.11 207.134 112.44 206.574 112.68C206.014 112.9 205.414 113.01 204.774 113.01C204.134 113.01 203.544 112.9 203.004 112.68C202.464 112.46 201.984 112.15 201.564 111.75C201.104 111.33 200.744 110.83 200.484 110.25C200.224 109.67 200.094 109.04 200.094 108.36C200.094 107.72 200.204 107.12 200.424 106.56C200.664 106 200.994 105.51 201.414 105.09C201.814 104.65 202.304 104.31 202.884 104.07C203.464 103.83 204.094 103.71 204.774 103.71ZM215.007 114H220.797V112.83H218.457V109.83L220.377 108C220.937 108.82 221.517 109.63 222.117 110.43C222.717 111.21 223.317 112.01 223.917 112.83H222.447V114H227.997V112.83H225.387C224.687 111.89 223.997 110.96 223.317 110.04C222.637 109.1 221.957 108.15 221.277 107.19C221.917 106.59 222.487 106.05 222.987 105.57C223.507 105.07 224.067 104.52 224.667 103.92H226.857V102.75H221.307V103.92H223.137L218.457 108.3V91.5H215.097V92.67H217.227V112.83H215.007V114ZM235.975 103.71C236.755 103.71 237.455 103.93 238.075 104.37C238.715 104.79 239.215 105.34 239.575 106.02C238.215 106.56 236.855 107.1 235.495 107.64C234.155 108.16 232.805 108.69 231.445 109.23C231.305 108.55 231.315 107.89 231.475 107.25C231.635 106.59 231.915 106 232.315 105.48C232.735 104.94 233.255 104.51 233.875 104.19C234.515 103.87 235.215 103.71 235.975 103.71ZM239.905 112.65L239.155 111.75C238.735 112.15 238.255 112.46 237.715 112.68C237.175 112.9 236.595 113.01 235.975 113.01C235.035 113.01 234.195 112.77 233.455 112.29C232.715 111.81 232.165 111.18 231.805 110.4C233.365 109.76 234.915 109.14 236.455 108.54C238.015 107.94 239.575 107.33 241.135 106.71C240.935 106.11 240.675 105.56 240.355 105.06C240.035 104.54 239.665 104.1 239.245 103.74C238.805 103.34 238.305 103.04 237.745 102.84C237.185 102.62 236.595 102.51 235.975 102.51C235.155 102.51 234.385 102.67 233.665 102.99C232.965 103.29 232.345 103.7 231.805 104.22C231.265 104.74 230.845 105.36 230.545 106.08C230.245 106.8 230.095 107.56 230.095 108.36C230.095 109.18 230.245 109.94 230.545 110.64C230.845 111.34 231.265 111.96 231.805 112.5C232.345 113.04 232.965 113.46 233.665 113.76C234.385 114.06 235.155 114.21 235.975 114.21C236.755 114.21 237.475 114.07 238.135 113.79C238.795 113.51 239.385 113.13 239.905 112.65ZM266.371 114V112.83H264.151V102.75H263.161C263.121 103.19 263.091 103.64 263.071 104.1C263.051 104.54 263.041 104.97 263.041 105.39C262.701 104.61 262.111 103.94 261.271 103.38C260.431 102.8 259.421 102.51 258.241 102.51C257.401 102.51 256.621 102.67 255.901 102.99C255.201 103.29 254.581 103.7 254.041 104.22C253.501 104.76 253.081 105.39 252.781 106.11C252.481 106.83 252.331 107.58 252.331 108.36C252.331 109.18 252.481 109.94 252.781 110.64C253.081 111.34 253.501 111.96 254.041 112.5C254.581 113.04 255.201 113.46 255.901 113.76C256.621 114.06 257.401 114.21 258.241 114.21C258.841 114.21 259.401 114.13 259.921 113.97C260.461 113.81 260.941 113.59 261.361 113.31C261.761 113.05 262.101 112.76 262.381 112.44C262.681 112.1 262.901 111.75 263.041 111.39C263.041 111.65 263.041 111.89 263.041 112.11C263.041 112.31 263.041 112.53 263.041 112.77V114H266.371ZM258.241 103.71C258.881 103.71 259.481 103.83 260.041 104.07C260.601 104.29 261.101 104.61 261.541 105.03C261.961 105.45 262.291 105.95 262.531 106.53C262.791 107.09 262.921 107.7 262.921 108.36C262.921 109.02 262.791 109.64 262.531 110.22C262.291 110.78 261.951 111.27 261.511 111.69C261.091 112.11 260.601 112.44 260.041 112.68C259.481 112.9 258.881 113.01 258.241 113.01C257.601 113.01 257.011 112.9 256.471 112.68C255.931 112.46 255.451 112.15 255.031 111.75C254.571 111.33 254.211 110.83 253.951 110.25C253.691 109.67 253.561 109.04 253.561 108.36C253.561 107.72 253.671 107.12 253.891 106.56C254.131 106 254.461 105.51 254.881 105.09C255.281 104.65 255.771 104.31 256.351 104.07C256.931 103.83 257.561 103.71 258.241 103.71ZM274.264 114V112.83H272.044V107.85C272.044 107.25 272.164 106.7 272.404 106.2C272.664 105.7 273.014 105.26 273.454 104.88C273.854 104.52 274.334 104.24 274.894 104.04C275.454 103.84 276.044 103.74 276.664 103.74C277.504 103.78 278.134 104.04 278.554 104.52C278.994 104.98 279.234 105.54 279.274 106.2V112.83H276.934V114H282.724V112.83H280.504V105.87C280.464 104.87 280.124 104.06 279.484 103.44C278.844 102.82 277.974 102.51 276.874 102.51C275.754 102.51 274.754 102.8 273.874 103.38C272.994 103.96 272.354 104.72 271.954 105.66C271.934 105.32 271.914 105.02 271.894 104.76C271.874 104.48 271.854 104.17 271.834 103.83L271.804 102.75H268.654V103.92H270.814V112.83H268.474V114H274.264ZM298.861 114V112.83H296.641V91.5H293.281V92.67H295.411V102.63C295.411 103.17 295.411 103.61 295.411 103.95C295.411 104.29 295.421 104.73 295.441 105.27C295.281 104.93 295.071 104.6 294.811 104.28C294.551 103.96 294.211 103.66 293.791 103.38C293.371 103.12 292.891 102.91 292.351 102.75C291.831 102.59 291.291 102.51 290.731 102.51C289.891 102.51 289.111 102.67 288.391 102.99C287.691 103.29 287.071 103.7 286.531 104.22C285.991 104.74 285.571 105.36 285.271 106.08C284.971 106.8 284.821 107.56 284.821 108.36C284.821 109.18 284.971 109.94 285.271 110.64C285.571 111.34 285.991 111.96 286.531 112.5C287.071 113.04 287.691 113.46 288.391 113.76C289.111 114.06 289.891 114.21 290.731 114.21C291.331 114.21 291.891 114.13 292.411 113.97C292.951 113.81 293.431 113.59 293.851 113.31C294.251 113.05 294.591 112.76 294.871 112.44C295.171 112.1 295.391 111.75 295.531 111.39C295.531 111.65 295.531 111.89 295.531 112.11C295.531 112.31 295.531 112.53 295.531 112.77V114H298.861ZM290.731 103.71C291.351 103.71 291.941 103.82 292.501 104.04C293.061 104.26 293.551 104.57 293.971 104.97C294.411 105.39 294.761 105.9 295.021 106.5C295.281 107.08 295.411 107.7 295.411 108.36C295.411 109.02 295.281 109.64 295.021 110.22C294.781 110.8 294.441 111.29 294.001 111.69C293.561 112.11 293.061 112.44 292.501 112.68C291.961 112.9 291.371 113.01 290.731 113.01C290.071 113.01 289.461 112.9 288.901 112.68C288.361 112.44 287.881 112.11 287.461 111.69C287.021 111.29 286.671 110.8 286.411 110.22C286.171 109.64 286.051 109.02 286.051 108.36C286.051 107.72 286.171 107.12 286.411 106.56C286.651 105.98 286.981 105.48 287.401 105.06C287.821 104.64 288.311 104.31 288.871 104.07C289.431 103.83 290.051 103.71 290.731 103.71ZM319.558 112.92L318.778 111.99C318.378 112.31 317.928 112.56 317.428 112.74C316.928 112.92 316.398 113.01 315.838 113.01C315.198 113.01 314.588 112.89 314.008 112.65C313.448 112.41 312.968 112.09 312.568 111.69C312.128 111.27 311.788 110.78 311.548 110.22C311.308 109.64 311.188 109.02 311.188 108.36C311.188 107.7 311.308 107.09 311.548 106.53C311.788 105.95 312.138 105.44 312.598 105C312.998 104.6 313.478 104.29 314.038 104.07C314.598 103.83 315.198 103.71 315.838 103.71C316.338 103.71 316.808 103.78 317.248 103.92C317.688 104.06 318.088 104.26 318.448 104.52V106.74H319.588V103.8C319.088 103.4 318.518 103.09 317.878 102.87C317.238 102.63 316.558 102.51 315.838 102.51C315.018 102.51 314.248 102.67 313.528 102.99C312.828 103.29 312.208 103.7 311.668 104.22C311.128 104.74 310.708 105.36 310.408 106.08C310.108 106.8 309.958 107.56 309.958 108.36C309.958 109.18 310.108 109.95 310.408 110.67C310.708 111.37 311.138 111.98 311.698 112.5C312.218 113.04 312.828 113.46 313.528 113.76C314.248 114.06 315.018 114.21 315.838 114.21C316.558 114.21 317.228 114.1 317.848 113.88C318.468 113.64 319.038 113.32 319.558 112.92ZM327.467 114V112.83H325.247V107.85C325.247 107.25 325.367 106.7 325.607 106.2C325.867 105.7 326.217 105.26 326.657 104.88C327.057 104.52 327.537 104.24 328.097 104.04C328.657 103.84 329.247 103.74 329.867 103.74C330.707 103.78 331.337 104.04 331.757 104.52C332.197 104.98 332.437 105.54 332.477 106.2V112.83H330.137V114H335.927V112.83H333.707V105.87C333.667 104.87 333.327 104.06 332.687 103.44C332.047 102.82 331.177 102.51 330.077 102.51C328.937 102.53 327.937 102.82 327.077 103.38C326.217 103.94 325.577 104.7 325.157 105.66L325.247 104.31V91.5H321.797V92.67H324.017V112.83H321.677V114H327.467ZM343.905 103.71C344.685 103.71 345.385 103.93 346.005 104.37C346.645 104.79 347.145 105.34 347.505 106.02C346.145 106.56 344.785 107.1 343.425 107.64C342.085 108.16 340.735 108.69 339.375 109.23C339.235 108.55 339.245 107.89 339.405 107.25C339.565 106.59 339.845 106 340.245 105.48C340.665 104.94 341.185 104.51 341.805 104.19C342.445 103.87 343.145 103.71 343.905 103.71ZM347.835 112.65L347.085 111.75C346.665 112.15 346.185 112.46 345.645 112.68C345.105 112.9 344.525 113.01 343.905 113.01C342.965 113.01 342.125 112.77 341.385 112.29C340.645 111.81 340.095 111.18 339.735 110.4C341.295 109.76 342.845 109.14 344.385 108.54C345.945 107.94 347.505 107.33 349.065 106.71C348.865 106.11 348.605 105.56 348.285 105.06C347.965 104.54 347.595 104.1 347.175 103.74C346.735 103.34 346.235 103.04 345.675 102.84C345.115 102.62 344.525 102.51 343.905 102.51C343.085 102.51 342.315 102.67 341.595 102.99C340.895 103.29 340.275 103.7 339.735 104.22C339.195 104.74 338.775 105.36 338.475 106.08C338.175 106.8 338.025 107.56 338.025 108.36C338.025 109.18 338.175 109.94 338.475 110.64C338.775 111.34 339.195 111.96 339.735 112.5C340.275 113.04 340.895 113.46 341.595 113.76C342.315 114.06 343.085 114.21 343.905 114.21C344.685 114.21 345.405 114.07 346.065 113.79C346.725 113.51 347.315 113.13 347.835 112.65ZM360.867 112.92L360.087 111.99C359.687 112.31 359.237 112.56 358.737 112.74C358.237 112.92 357.707 113.01 357.147 113.01C356.507 113.01 355.897 112.89 355.317 112.65C354.757 112.41 354.277 112.09 353.877 111.69C353.437 111.27 353.097 110.78 352.857 110.22C352.617 109.64 352.497 109.02 352.497 108.36C352.497 107.7 352.617 107.09 352.857 106.53C353.097 105.95 353.447 105.44 353.907 105C354.307 104.6 354.787 104.29 355.347 104.07C355.907 103.83 356.507 103.71 357.147 103.71C357.647 103.71 358.117 103.78 358.557 103.92C358.997 104.06 359.397 104.26 359.757 104.52V106.74H360.897V103.8C360.397 103.4 359.827 103.09 359.187 102.87C358.547 102.63 357.867 102.51 357.147 102.51C356.327 102.51 355.557 102.67 354.837 102.99C354.137 103.29 353.517 103.7 352.977 104.22C352.437 104.74 352.017 105.36 351.717 106.08C351.417 106.8 351.267 107.56 351.267 108.36C351.267 109.18 351.417 109.95 351.717 110.67C352.017 111.37 352.447 111.98 353.007 112.5C353.527 113.04 354.137 113.46 354.837 113.76C355.557 114.06 356.327 114.21 357.147 114.21C357.867 114.21 358.537 114.1 359.157 113.88C359.777 113.64 360.347 113.32 360.867 112.92ZM362.986 114H368.776V112.83H366.436V109.83L368.356 108C368.916 108.82 369.496 109.63 370.096 110.43C370.696 111.21 371.296 112.01 371.896 112.83H370.426V114H375.976V112.83H373.366C372.666 111.89 371.976 110.96 371.296 110.04C370.616 109.1 369.936 108.15 369.256 107.19C369.896 106.59 370.466 106.05 370.966 105.57C371.486 105.07 372.046 104.52 372.646 103.92H374.836V102.75H369.286V103.92H371.116L366.436 108.3V91.5H363.076V92.67H365.206V112.83H362.986V114Z" fill="black"/>
</svg>
